<svg width="20" height="20" viewBox="0 0 20 20" fill="none" xmlns="http://www.w3.org/2000/svg">
<path fill-rule="evenodd" clip-rule="evenodd" d="M10 0C4.49 0 0 4.49 0 10C0 15.51 4.49 20 10 20C15.51 20 20 15.51 20 10C20 4.49 15.51 0 10 0ZM10 5C9.45 5 9 5.45 9 6V9H6C5.45 9 5 9.45 5 10C5 10.55 5.45 11 6 11H9V14C9 14.55 9.45 15 10 15C10.55 15 11 14.55 11 14V11H14C14.55 11 15 10.55 15 10C15 9.45 14.55 9 14 9H11V6C11 5.45 10.55 5 10 5ZM2 10C2 14.41 5.59 18 10 18C14.41 18 18 14.41 18 10C18 5.59 14.41 2 10 2C5.59 2 2 5.59 2 10Z" fill="white"/>
</svg>
