<svg width="96" height="96" viewBox="0 0 96 96" fill="none" xmlns="http://www.w3.org/2000/svg">
<path d="M48 0C21.492 0 0 21.492 0 48C0 74.508 21.492 96 48 96C74.508 96 96 74.508 96 48C96 21.492 74.508 0 48 0ZM20 76.564C24.668 62.564 38.668 68.028 41 60.444V55.388C39.952 54.824 36.948 50.952 36.632 47.928C35.804 47.856 34.508 47.036 34.124 43.792C33.92 42.052 34.736 41.072 35.228 40.764C35.228 40.764 33.996 37.956 33.996 35.168C34 26.88 38.104 20 48 20C53.344 20 55 23.788 55 23.788C59.776 23.788 62 29.024 62 35.164C62 38.224 60.768 40.76 60.768 40.76C61.264 41.068 62.08 42.048 61.876 43.788C61.492 47.032 60.196 47.852 59.368 47.924C59.052 50.948 56.052 54.82 55 55.384V60.44C57.332 68.028 71.332 62.564 76 76.564C76 76.564 65.528 88 48 88C30.372 88 20 76.564 20 76.564Z" fill="#93A9C7"/>
</svg>
