<svg width="49" height="23" viewBox="0 0 49 23" fill="none" xmlns="http://www.w3.org/2000/svg">
<path d="M46 1H3C1.9 1 1 1.9 1 3V21L5 17H46C47.1 17 48 16.1 48 15V3C48 1.9 47.1 1 46 1Z" fill="white"/>
<path d="M1 21H0.5V22.2071L1.35355 21.3536L1 21ZM5 17V16.5H4.79289L4.64645 16.6464L5 17ZM46 0.5H3V1.5H46V0.5ZM3 0.5C1.62386 0.5 0.5 1.62386 0.5 3H1.5C1.5 2.17614 2.17614 1.5 3 1.5V0.5ZM0.5 3V21H1.5V3H0.5ZM1.35355 21.3536L5.35355 17.3536L4.64645 16.6464L0.646447 20.6464L1.35355 21.3536ZM5 17.5H46V16.5H5V17.5ZM46 17.5C47.3761 17.5 48.5 16.3761 48.5 15H47.5C47.5 15.8239 46.8239 16.5 46 16.5V17.5ZM48.5 15V3H47.5V15H48.5ZM48.5 3C48.5 1.62386 47.3761 0.5 46 0.5V1.5C46.8239 1.5 47.5 2.17614 47.5 3H48.5Z" fill="#E2E5EF"/>
</svg>

