<svg width="244" height="92" viewBox="0 0 244 92" fill="none" xmlns="http://www.w3.org/2000/svg">
<mask id="path-1-inside-1" fill="white">
<path fill-rule="evenodd" clip-rule="evenodd" d="M216.857 0.149763C216.661 -0.0499216 216.339 -0.0499208 216.143 0.149764L209.973 6.43596C209.873 6.53839 209.828 6.66364 209.829 6.7862H0V91.7862H244V6.7862H223.171C223.172 6.66364 223.127 6.53839 223.027 6.43596L216.857 0.149763Z"/>
</mask>
<path fill-rule="evenodd" clip-rule="evenodd" d="M216.857 0.149763C216.661 -0.0499216 216.339 -0.0499208 216.143 0.149764L209.973 6.43596C209.873 6.53839 209.828 6.66364 209.829 6.7862H0V91.7862H244V6.7862H223.171C223.172 6.66364 223.127 6.53839 223.027 6.43596L216.857 0.149763Z" fill="white"/>
<path d="M216.143 0.149764L216.857 0.850237V0.850226L216.143 0.149764ZM216.857 0.149763L217.571 -0.55071L217.571 -0.550727L216.857 0.149763ZM209.973 6.43596L209.26 5.73549L209.26 5.73553L209.973 6.43596ZM209.829 6.7862V7.7862H210.836L210.829 6.7791L209.829 6.7862ZM0 6.7862V5.7862H-1V6.7862H0ZM0 91.7862H-1V92.7862H0V91.7862ZM244 91.7862V92.7862H245V91.7862H244ZM244 6.7862H245V5.7862H244V6.7862ZM223.171 6.7862L222.171 6.7791L222.164 7.7862H223.171V6.7862ZM223.027 6.43596L223.74 5.73552L223.74 5.73549L223.027 6.43596ZM216.857 0.850226C216.661 1.04994 216.339 1.0499 216.143 0.850253L217.571 -0.550727C216.983 -1.14974 216.017 -1.14978 215.429 -0.550698L216.857 0.850226ZM210.687 7.13643L216.857 0.850237L215.429 -0.550709L209.26 5.73549L210.687 7.13643ZM210.829 6.7791C210.83 6.91104 210.779 7.04314 210.687 7.13639L209.26 5.73553C208.967 6.03364 208.826 6.41624 208.829 6.79329L210.829 6.7791ZM0 7.7862H209.829V5.7862H0V7.7862ZM1 91.7862V6.7862H-1V91.7862H1ZM244 90.7862H0V92.7862H244V90.7862ZM243 6.7862V91.7862H245V6.7862H243ZM223.171 7.7862H244V5.7862H223.171V7.7862ZM222.313 7.13639C222.221 7.04314 222.17 6.91104 222.171 6.7791L224.171 6.79329C224.174 6.41624 224.033 6.03364 223.74 5.73552L222.313 7.13639ZM216.143 0.850236L222.313 7.13643L223.74 5.73549L217.571 -0.55071L216.143 0.850236Z" fill="#E3E8F0" mask="url(#path-1-inside-1)"/>
</svg>
