<svg width="12" height="12" viewBox="0 0 12 12" fill="none" xmlns="http://www.w3.org/2000/svg">
<path fill-rule="evenodd" clip-rule="evenodd" d="M9.5 2H9V1.5C9 1.225 8.775 1 8.5 1C8.225 1 8 1.225 8 1.5V2H4V1.5C4 1.225 3.775 1 3.5 1C3.225 1 3 1.225 3 1.5V2H2.5C1.945 2 1.505 2.45 1.505 3L1.5 10C1.5 10.55 1.945 11 2.5 11H9.5C10.05 11 10.5 10.55 10.5 10V3C10.5 2.45 10.05 2 9.5 2ZM9.49999 9.5C9.49999 9.775 9.27499 10 8.99999 10H2.99999C2.72499 10 2.49999 9.775 2.49999 9.5V4.5H9.49999V9.5ZM4.50001 5.5H3.50001V6.5H4.50001V5.5ZM5.49999 5.5H6.49999V6.5H5.49999V5.5ZM8.5 6.5V5.5H7.5V6.5H8.5Z" fill="#4A70FF"/>
</svg>
