<svg width="12" height="13" viewBox="0 0 12 13" fill="none" xmlns="http://www.w3.org/2000/svg">
<path fill-rule="evenodd" clip-rule="evenodd" d="M9.5 2.78613H9V2.28613C9 2.01113 8.775 1.78613 8.5 1.78613C8.225 1.78613 8 2.01113 8 2.28613V2.78613H4V2.28613C4 2.01113 3.775 1.78613 3.5 1.78613C3.225 1.78613 3 2.01113 3 2.28613V2.78613H2.5C1.945 2.78613 1.505 3.23613 1.505 3.78613L1.5 10.7861C1.5 11.3361 1.945 11.7861 2.5 11.7861H9.5C10.05 11.7861 10.5 11.3361 10.5 10.7861V3.78613C10.5 3.23613 10.05 2.78613 9.5 2.78613ZM9.49999 10.2861C9.49999 10.5611 9.27499 10.7861 8.99999 10.7861H2.99999C2.72499 10.7861 2.49999 10.5611 2.49999 10.2861V5.28613H9.49999V10.2861ZM4.50001 6.28613H3.50001V7.28613H4.50001V6.28613ZM5.49999 6.28613H6.49999V7.28613H5.49999V6.28613ZM8.5 7.28613V6.28613H7.5V7.28613H8.5Z" fill="#B9C0CE"/>
</svg>
