<svg width="290" height="213" viewBox="0 0 290 213" fill="none" xmlns="http://www.w3.org/2000/svg">
<g clip-path="url(#clip0)">
<path d="M279.684 169.825H263.539H234.048C228.334 169.825 223.31 164.95 223.272 159.232C223.31 153.514 228.334 149.1 234.048 149.1H263.539H263.577C269.291 149.1 273.855 144.226 273.893 138.508C273.855 132.789 269.291 128.376 263.577 128.376H263.539H254.757C249.043 128.376 244.019 123.502 243.98 117.783C244.019 112.065 249.043 107.652 254.757 107.652H263.539H275.849C281.563 107.652 286.51 102.778 286.548 97.0591C286.51 91.3407 281.563 86.9272 275.849 86.9272H255.907C252.11 66.5099 242.331 46.9753 226.531 31.2018C187.721 -7.67546 126.324 -10.2084 84.5609 23.5645L49.6244 22.9889C43.9103 22.9121 39.2317 27.5175 39.1549 33.2359C39.1549 34.464 39.3467 35.6537 39.7302 36.7667C41.1108 40.758 44.9074 43.6748 49.3943 43.7132L67.457 44.097C73.1711 44.1737 77.773 48.8559 77.6963 54.5743C77.6196 60.2926 72.941 64.898 67.2269 64.8213L39.4234 64.4375L10.5461 64.0537C4.75532 64.0153 0.0766677 68.5824 -3.15653e-05 74.3008C-0.0767308 80.0191 4.52523 84.7013 10.2393 84.778L39.1166 85.1618L46.2113 85.277C51.9254 85.3537 56.5273 90.0359 56.4506 95.7543C56.3739 101.473 51.6953 106.078 45.9812 106.001L38.8865 105.848L35.0515 105.771C29.3374 105.694 24.6588 110.3 24.5821 116.018C24.5054 121.736 29.1073 126.419 34.8214 126.495L46.8632 126.687C50.7365 146.874 60.4773 166.179 76.124 181.799C114.474 220.254 174.913 223.17 216.675 190.549H279.684C285.398 190.549 289.962 185.675 290 179.956C289.962 174.238 285.398 169.825 279.684 169.825Z" fill="#E4EFFA"/>
<path d="M123.179 12.0893H109.373C108.721 12.0893 108.223 11.5904 108.223 10.938C108.223 10.2855 108.721 9.78662 109.373 9.78662H123.179C123.831 9.78662 124.33 10.2855 124.33 10.938C124.33 11.5904 123.831 12.0893 123.179 12.0893Z" fill="#FFAAAA"/>
<path d="M102.471 12.0893H77.1598C76.5078 12.0893 76.0093 11.5904 76.0093 10.938C76.0093 10.2855 76.5078 9.78662 77.1598 9.78662H102.471C103.122 9.78662 103.621 10.2855 103.621 10.938C103.621 11.5904 103.122 12.0893 102.471 12.0893Z" fill="#FFAAAA"/>
<path d="M154.242 5.18112H97.8683C97.2163 5.18112 96.7178 4.6822 96.7178 4.02977C96.7178 3.37734 97.2163 2.87842 97.8683 2.87842H154.242C154.894 2.87842 155.393 3.37734 155.393 4.02977C155.393 4.6822 154.894 5.18112 154.242 5.18112Z" fill="#FFAAAA"/>
<path d="M88.6646 5.18112H84.0626C83.4107 5.18112 82.9121 4.6822 82.9121 4.02977C82.9121 3.37734 83.4107 2.87842 84.0626 2.87842H88.6646C89.3165 2.87842 89.815 3.37734 89.815 4.02977C89.815 4.6822 89.3165 5.18112 88.6646 5.18112Z" fill="#FFAAAA"/>
<path d="M243.98 44.3271H240.529C239.877 44.3271 239.378 43.8282 239.378 43.1758C239.378 42.5233 239.877 42.0244 240.529 42.0244H243.98C244.632 42.0244 245.131 42.5233 245.131 43.1758C245.131 43.7898 244.632 44.3271 243.98 44.3271Z" fill="#FFAAAA"/>
<path d="M226.723 44.3271H223.272C222.62 44.3271 222.121 43.8282 222.121 43.1758C222.121 42.5233 222.62 42.0244 223.272 42.0244H226.723C227.375 42.0244 227.874 42.5233 227.874 43.1758C227.874 43.7898 227.375 44.3271 226.723 44.3271Z" fill="#FFAAAA"/>
<path d="M240.989 51.5421C240.682 51.5421 240.414 51.427 240.184 51.1967L237.729 48.7405C237.269 48.28 237.269 47.5508 237.729 47.1286C238.19 46.6681 238.918 46.6681 239.34 47.1286L241.794 49.5848C242.255 50.0454 242.255 50.7746 241.794 51.1967C241.564 51.4654 241.296 51.5421 240.989 51.5421Z" fill="#FFAAAA"/>
<path d="M228.794 39.3375C228.487 39.3375 228.219 39.2224 227.989 38.9921L225.534 36.5359C225.074 36.0754 225.074 35.3462 225.534 34.924C225.994 34.4635 226.723 34.4635 227.145 34.924L229.599 37.3802C230.059 37.8408 230.059 38.57 229.599 38.9921C229.369 39.2224 229.101 39.3375 228.794 39.3375Z" fill="#FFAAAA"/>
<path d="M233.626 54.6894C232.974 54.6894 232.476 54.1905 232.476 53.538V50.084C232.476 49.4315 232.974 48.9326 233.626 48.9326C234.278 48.9326 234.777 49.4315 234.777 50.084V53.538C234.777 54.1521 234.278 54.6894 233.626 54.6894Z" fill="#FFAAAA"/>
<path d="M233.626 37.4189C232.974 37.4189 232.476 36.9199 232.476 36.2675V32.8135C232.476 32.161 232.974 31.6621 233.626 31.6621C234.278 31.6621 234.777 32.161 234.777 32.8135V36.2675C234.777 36.8816 234.278 37.4189 233.626 37.4189Z" fill="#FFAAAA"/>
<path d="M226.339 51.5421C226.033 51.5421 225.764 51.427 225.534 51.1967C225.074 50.7362 225.074 50.007 225.534 49.5848L227.989 47.1286C228.449 46.6681 229.177 46.6681 229.599 47.1286C230.059 47.5892 230.059 48.3183 229.599 48.7405L227.145 51.1967C226.953 51.4654 226.646 51.5421 226.339 51.5421Z" fill="#FFAAAA"/>
<path d="M238.535 39.3375C238.228 39.3375 237.96 39.2224 237.729 38.9921C237.269 38.5316 237.269 37.8024 237.729 37.3802L240.184 34.924C240.644 34.4635 241.373 34.4635 241.794 34.924C242.255 35.3846 242.255 36.1137 241.794 36.5359L239.34 38.9921C239.148 39.2224 238.842 39.3375 238.535 39.3375Z" fill="#FFAAAA"/>
<path d="M268.486 116.479C268.064 116.479 267.681 116.248 267.489 115.865L266.07 113.293C265.418 112.142 264.498 111.182 263.309 110.53L260.74 109.11C260.356 108.918 260.126 108.534 260.126 108.112C260.126 107.69 260.356 107.306 260.74 107.114L263.309 105.694C264.459 105.042 265.418 104.121 266.07 102.931L267.489 100.36C267.681 99.9759 268.064 99.7456 268.486 99.7456C268.908 99.7456 269.292 99.9759 269.483 100.36L270.902 102.931C271.554 104.082 272.475 105.042 273.663 105.694L276.233 107.114C276.616 107.306 276.846 107.69 276.846 108.112C276.846 108.534 276.616 108.918 276.233 109.11L273.663 110.53C272.513 111.182 271.554 112.103 270.902 113.293L269.483 115.865C269.292 116.248 268.908 116.479 268.486 116.479ZM264.421 108.534C265.955 109.379 267.221 110.645 268.103 112.219L268.486 112.948L268.87 112.219C269.713 110.683 270.979 109.379 272.551 108.534L273.28 108.15L272.551 107.767C271.017 106.922 269.713 105.656 268.87 104.082L268.486 103.353L268.103 104.082C267.259 105.618 265.993 106.884 264.421 107.767L263.692 108.15L264.421 108.534Z" fill="#FFAAAA"/>
<path d="M43.8339 32.3531C43.412 32.3531 43.0285 32.1228 42.8368 31.739L41.4178 29.1677C40.7659 28.0163 39.8455 27.0569 38.6567 26.4044L36.0872 24.9844C35.7037 24.7925 35.4736 24.4088 35.4736 23.9866C35.4736 23.5644 35.7037 23.1807 36.0872 22.9888L38.6567 21.5688C39.8071 20.9163 40.7659 19.9953 41.4178 18.8055L42.8368 16.2342C43.0285 15.8504 43.412 15.6201 43.8339 15.6201C44.2557 15.6201 44.6392 15.8504 44.8309 16.2342L46.2499 18.8055C46.9018 19.9569 47.8222 20.9163 49.0111 21.5688L51.5805 22.9888C51.964 23.1807 52.1941 23.5644 52.1941 23.9866C52.1941 24.4088 51.964 24.7925 51.5805 24.9844L49.0111 26.4044C47.8606 27.0569 46.9018 27.978 46.2499 29.1677L44.8309 31.739C44.6392 32.1228 44.2557 32.3531 43.8339 32.3531ZM39.7688 24.4088C41.3028 25.2531 42.6067 26.5196 43.4504 28.0931L43.8339 28.8223L44.2174 28.0931C45.061 26.558 46.3266 25.2915 47.8989 24.4088L48.6276 24.025L47.8989 23.6412C46.3649 22.7969 45.0994 21.5304 44.2174 19.9569L43.8339 19.2277L43.4504 19.9569C42.6067 21.492 41.3411 22.7969 39.7688 23.6412L39.0402 24.025L39.7688 24.4088Z" fill="#FFAAAA"/>
<path d="M56.451 156.008H54.15C53.4981 156.008 52.9995 155.509 52.9995 154.857C52.9995 154.204 53.4981 153.706 54.15 153.706H56.451C57.1029 153.706 57.6015 154.204 57.6015 154.857C57.6015 155.471 57.1029 156.008 56.451 156.008Z" fill="#FFAAAA"/>
<path d="M44.9461 156.008H42.6451C41.9932 156.008 41.4946 155.509 41.4946 154.857C41.4946 154.204 41.9932 153.706 42.6451 153.706H44.9461C45.598 153.706 46.0966 154.204 46.0966 154.857C46.0966 155.471 45.598 156.008 44.9461 156.008Z" fill="#FFAAAA"/>
<path d="M49.548 162.916C48.896 162.916 48.3975 162.418 48.3975 161.765V159.462C48.3975 158.81 48.896 158.311 49.548 158.311C50.1999 158.311 50.6984 158.81 50.6984 159.462V161.765C50.6984 162.379 50.1999 162.916 49.548 162.916Z" fill="#FFAAAA"/>
<path d="M49.548 151.403C48.896 151.403 48.3975 150.904 48.3975 150.251V147.949C48.3975 147.296 48.896 146.797 49.548 146.797C50.1999 146.797 50.6984 147.296 50.6984 147.949V150.251C50.6984 150.865 50.1999 151.403 49.548 151.403Z" fill="#FFAAAA"/>
<path d="M120.878 191.7H61.0528C60.4009 191.7 59.9023 191.201 59.9023 190.549C59.9023 189.896 60.4009 189.397 61.0528 189.397H120.878C121.53 189.397 122.029 189.896 122.029 190.549C122.029 191.163 121.53 191.7 120.878 191.7Z" fill="#FFAAAA"/>
<path d="M109.373 199.76H88.6646C88.0127 199.76 87.5142 199.261 87.5142 198.608C87.5142 197.956 88.0127 197.457 88.6646 197.457H109.373C110.025 197.457 110.524 197.956 110.524 198.608C110.524 199.222 110.025 199.76 109.373 199.76Z" fill="#FFAAAA"/>
<path d="M77.1594 199.76H70.2564C69.6045 199.76 69.106 199.261 69.106 198.608C69.106 197.956 69.6045 197.457 70.2564 197.457H77.1594C77.8113 197.457 78.3099 197.956 78.3099 198.608C78.3099 199.222 77.8113 199.76 77.1594 199.76Z" fill="#FFAAAA"/>
<path d="M173.456 51.1584H165.249V42.4082C165.249 41.4103 164.405 40.6044 163.446 40.6044H141.97C140.973 40.6044 140.168 41.4487 140.168 42.4082V51.1584H131.923V42.4082C131.923 36.8817 136.41 32.353 141.97 32.353H163.446C168.969 32.353 173.494 36.8433 173.494 42.4082V51.1584H173.456Z" fill="white"/>
<path d="M113.86 52.041H191.518C199.648 52.041 206.245 58.6421 206.245 66.7783V75.6437L207.05 76.1043C186.571 78.6372 118.884 78.6372 98.4053 76.1043L99.2106 75.6437V66.7783C99.1723 58.6421 105.73 52.041 113.86 52.041Z" fill="white"/>
<path d="M200.914 56.1857C200.415 56.7998 199.878 57.529 199.342 58.0662C195.046 62.3646 177.444 61.5971 170.925 61.5971H134.492C127.129 61.5971 108.798 61.9808 104.503 56.6846C107.034 54.5738 110.332 53.5376 113.899 53.5376H191.557C195.085 53.5376 198.345 54.0749 200.914 56.1857Z" fill="#FF7575"/>
<path d="M94.4551 80.825C94.4551 83.2429 96.2575 85.2386 98.6735 85.4688H98.3667C118.845 88.0018 186.533 88.0018 207.011 85.4688H206.704C209.082 85.2386 210.923 83.2045 210.923 80.825C210.923 78.0618 208.545 75.8742 205.784 76.1812L207.011 76.1045C186.533 78.6375 118.845 78.6375 98.3667 76.1045L99.5939 76.1812C96.8328 75.8742 94.4551 78.0234 94.4551 80.825Z" fill="white"/>
<path d="M189.754 175.888C170.963 179.764 136.295 179.956 117.427 176.502L116.545 175.888L100.323 86.1979L100.706 85.4688C121.185 88.0017 184.155 88.0017 204.634 85.4688L205.017 86.1979L189.754 175.888Z" fill="#FF7575"/>
<path d="M117.311 176.502L116.429 175.888L100.208 86.1979L100.591 85.4688C103.429 85.8142 102.432 86.1212 106.689 86.3898L122.911 175.888C122.911 175.888 127.551 178.383 117.311 176.502Z" fill="#FF7575"/>
<path d="M205.516 86.1976L190.215 175.888C187.837 176.348 186.61 176.464 182.583 177.078L194.05 87.3874C198.345 87.1571 202.256 85.8522 205.133 85.5068L205.516 86.1976Z" fill="#FF7575"/>
<path d="M151.405 181.261C138.711 181.261 126.17 180.417 117.043 178.728C116.736 178.69 116.43 178.536 116.161 178.383L115.279 177.769C114.781 177.423 114.397 176.886 114.32 176.272L108.376 143.42C108.146 142.154 108.99 140.964 110.217 140.734C111.483 140.503 112.671 141.348 112.902 142.576L118.654 174.315C137.215 177.577 169.314 177.347 187.798 173.893L188.795 168.136C189.026 166.869 190.214 166.025 191.442 166.255C192.707 166.486 193.551 167.675 193.321 168.903L192.055 176.234C191.902 177.155 191.173 177.922 190.253 178.114C180.205 180.225 165.709 181.261 151.405 181.261Z" fill="#FF0000"/>
<path d="M192.132 164.298C191.518 164.298 190.943 164.067 190.483 163.607C190.061 163.185 189.792 162.571 189.792 161.995C189.792 161.381 190.023 160.805 190.483 160.383C190.905 159.961 191.518 159.692 192.132 159.692C192.745 159.692 193.321 159.923 193.743 160.383C194.164 160.805 194.433 161.419 194.433 161.995C194.433 162.609 194.203 163.185 193.743 163.607C193.321 164.029 192.745 164.298 192.132 164.298Z" fill="#FF0000"/>
<path d="M193.359 157.236C193.244 157.236 193.09 157.236 192.975 157.198C191.71 156.967 190.866 155.778 191.096 154.55L202.409 88.0399C180.55 90.1891 124.905 90.1891 103.007 88.0399L111.597 135.514C111.828 136.78 110.984 137.97 109.757 138.2C108.491 138.431 107.302 137.586 107.072 136.358L98.06 86.6582C97.9833 86.1593 98.06 85.622 98.2901 85.1615L98.6736 84.4323C99.1338 83.588 100.054 83.1274 100.975 83.2426C121.262 85.7372 184.04 85.7372 204.327 83.2426C205.286 83.1274 206.206 83.588 206.628 84.4323L207.011 85.1615C207.241 85.622 207.318 86.1209 207.241 86.6199L195.545 155.356C195.43 156.43 194.433 157.236 193.359 157.236Z" fill="#FF0000"/>
<path d="M206.206 77.9464C204.941 77.9464 203.905 76.9102 203.905 75.6437V66.7783C203.905 59.9469 198.344 54.3437 191.48 54.3437H113.86C108.414 54.3437 103.697 57.8361 102.048 62.9788C101.665 64.2069 100.361 64.8594 99.1722 64.4756C97.945 64.0918 97.293 62.7869 97.6765 61.5972C99.9392 54.4972 106.459 49.7383 113.898 49.7383H191.556C200.952 49.7383 208.584 57.3756 208.584 66.7783V75.6437C208.507 76.9102 207.472 77.9464 206.206 77.9464Z" fill="#FF0000"/>
<path d="M99.1726 77.9465C97.907 77.9465 96.8716 76.9103 96.8716 75.6438V68.0449C96.8716 66.7784 97.907 65.7422 99.1726 65.7422C100.438 65.7422 101.474 66.7784 101.474 68.0449V75.6438C101.474 76.9103 100.438 77.9465 99.1726 77.9465Z" fill="#FF0000"/>
<path d="M152.67 89.6519C130.466 89.6519 108.261 89.0378 98.0601 87.7713C97.83 87.7329 97.5999 87.6946 97.4082 87.5794C94.3402 86.8119 92.1543 84.0486 92.1543 80.8248C92.1543 78.8675 92.998 76.9486 94.4553 75.6437C95.2223 74.9529 96.181 74.4156 97.1781 74.1086C97.5616 73.8783 98.0218 73.7248 98.5203 73.7632L99.364 73.8016C99.5174 73.8016 99.6708 73.8016 99.8242 73.84C100.016 73.8783 100.208 73.9167 100.361 73.9551C115.778 75.6054 150.331 75.9891 176.025 75.4135C177.291 75.3751 178.364 76.4113 178.364 77.6778C178.403 78.9443 177.367 80.0189 176.102 80.0189C149.679 80.5946 113.899 80.1724 98.8271 78.4454C98.3286 78.4837 97.9067 78.714 97.5232 79.0594C97.0247 79.52 96.7563 80.134 96.7563 80.8248C96.7563 82.0529 97.6766 83.0508 98.9038 83.2043C99.0956 83.2043 99.249 83.2427 99.4024 83.3194C120.226 85.6989 185.152 85.6989 205.976 83.3194C206.129 83.281 206.321 83.2427 206.475 83.2043C207.702 83.0892 208.622 82.0529 208.622 80.8248C208.622 80.134 208.354 79.52 207.855 79.0594C207.472 78.714 207.05 78.5221 206.551 78.4454C202.716 78.8675 197.347 79.2513 190.598 79.5583C189.332 79.5967 188.259 78.6373 188.182 77.3708C188.143 76.1043 189.102 75.0297 190.368 74.9529C196.427 74.6843 201.336 74.3773 204.979 73.9935C205.132 73.9167 205.324 73.8783 205.516 73.8783C205.669 73.8783 205.823 73.84 205.976 73.84L206.82 73.8016C207.318 73.7632 207.778 73.8783 208.162 74.147C209.159 74.454 210.079 74.9529 210.885 75.6821C212.342 76.987 213.186 78.9059 213.186 80.8632C213.186 84.1254 211 86.8502 207.932 87.6178C207.74 87.6946 207.51 87.7713 207.28 87.8097C197.079 89.0378 174.874 89.6519 152.67 89.6519Z" fill="#FF0000"/>
<path d="M183.504 79.8271C181.586 79.7887 181.126 78.2152 181.126 77.6011C181.087 76.7184 181.663 75.3752 183.35 75.2217H183.427H183.465H183.504H183.619C185.536 75.2601 185.996 76.8336 185.996 77.4476C186.035 78.3303 185.459 79.6736 183.772 79.8271H183.695C183.657 79.8271 183.657 79.8271 183.619 79.8271C183.58 79.8271 183.58 79.8271 183.542 79.8271H183.504Z" fill="#FF0000"/>
<path d="M173.455 53.4611H165.248C163.983 53.4611 162.947 52.4249 162.947 51.1584V42.907H142.469V51.1584C142.469 52.4249 141.433 53.4611 140.168 53.4611H131.923C130.657 53.4611 129.622 52.4249 129.622 51.1584V42.4081C129.622 35.6152 135.144 30.0503 141.97 30.0503H163.446C170.234 30.0503 175.795 35.5768 175.795 42.4081V51.1584C175.756 52.4249 174.721 53.4611 173.455 53.4611ZM167.549 48.8557H171.154V42.4081C171.154 38.1481 167.664 34.6557 163.408 34.6557H141.932C137.675 34.6557 134.185 38.1481 134.185 42.4081V48.8557H137.79V42.4081C137.79 40.1438 139.631 38.3016 141.893 38.3016H163.369C165.632 38.3016 167.473 40.1438 167.473 42.4081V48.8557H167.549Z" fill="#FF0000"/>
<path d="M209.006 110.376C208.929 110.376 208.852 110.376 208.776 110.376L202.87 110.031C201.604 109.954 200.645 108.879 200.722 107.574C200.799 106.308 201.873 105.349 203.176 105.425L208.009 105.732L208.776 93.2977L206.168 93.0291C204.902 92.8755 203.982 91.7626 204.135 90.4961C204.289 89.2296 205.401 88.3085 206.666 88.462L210.194 88.8458C211.115 88.9226 211.92 89.3447 212.534 90.0356C213.147 90.7264 213.492 91.6474 213.416 92.6069L212.534 107.152C212.419 108.918 210.846 110.376 209.006 110.376Z" fill="#FF0000"/>
<path d="M96.7181 110.376C95.8744 110.376 95.0307 110.069 94.3788 109.493C93.6501 108.879 93.2283 107.997 93.1899 107.076L92.3079 92.5302C92.2695 91.6092 92.5763 90.6881 93.1899 89.9589C93.8035 89.2681 94.6472 88.8459 95.5293 88.7692L99.0574 88.3854C100.323 88.2319 101.473 89.1529 101.588 90.4194C101.742 91.6859 100.822 92.8373 99.556 92.9524L96.9482 93.221L97.7152 105.656L102.547 105.349C103.813 105.272 104.925 106.231 105.002 107.498C105.078 108.764 104.12 109.877 102.854 109.954L96.9482 110.299C96.8331 110.376 96.7564 110.376 96.7181 110.376Z" fill="#FF0000"/>
<path d="M153.092 166.485C150.484 166.485 148.49 164.374 148.49 161.765V101.818C148.49 99.208 150.484 97.0972 153.092 97.0972C155.7 97.0972 157.694 99.208 157.694 101.818V161.803C157.694 164.374 155.7 166.485 153.092 166.485Z" fill="white"/>
<path d="M153.744 166.447C153.552 166.485 153.361 166.485 153.169 166.485C150.561 166.485 148.49 164.374 148.49 161.765V101.818C148.49 99.208 150.561 97.0972 153.169 97.0972C153.361 97.0972 153.552 97.0972 153.744 97.1355C151.443 97.4426 149.641 99.3999 149.641 101.818V161.803C149.641 164.183 151.443 166.178 153.744 166.447Z" fill="white"/>
<path d="M133.265 166.178C130.696 166.524 128.318 164.758 127.973 162.187L119.69 102.777C119.344 100.206 121.109 97.8265 123.678 97.4811C126.247 97.1357 128.625 98.9011 128.97 101.472L137.254 160.882C137.637 163.415 135.835 165.795 133.265 166.178Z" fill="white"/>
<path d="M133.841 166.063C133.649 166.102 133.457 166.14 133.265 166.179C130.696 166.524 128.318 164.759 127.973 162.187L119.69 102.777C119.344 100.206 121.109 97.8267 123.678 97.4813C123.87 97.4429 124.061 97.4429 124.253 97.4429C121.991 98.0569 120.495 100.244 120.84 102.624L129.124 162.034C129.43 164.375 131.501 166.063 133.841 166.063Z" fill="white"/>
<path d="M173.149 166.178C175.719 166.524 178.096 164.72 178.441 162.149L186.495 102.739C186.84 100.168 185.038 97.7882 182.468 97.4428C179.899 97.0974 177.521 98.9011 177.176 101.473L169.122 160.882C168.777 163.454 170.58 165.833 173.149 166.178Z" fill="white"/>
<path d="M177.176 101.473L169.122 160.882C168.777 163.454 170.58 165.833 173.149 166.178C173.341 166.217 173.533 166.217 173.724 166.217C171.462 165.603 169.966 163.415 170.273 161.036L178.326 101.626C178.633 99.2466 180.704 97.5195 183.043 97.5579C182.852 97.5195 182.66 97.4811 182.468 97.4428C179.899 97.0974 177.559 98.9011 177.176 101.473Z" fill="white"/>
</g>
<defs>
<clipPath id="clip0">
<rect width="290" height="213" fill="white"/>
</clipPath>
</defs>
</svg>
