<svg width="18" height="14" viewBox="0 0 18 14" fill="none" xmlns="http://www.w3.org/2000/svg">
<path fill-rule="evenodd" clip-rule="evenodd" d="M2.33366 0.333252H15.667C16.5837 0.333252 17.3337 1.08325 17.3337 1.99992V11.9999C17.3337 12.9166 16.5837 13.6666 15.667 13.6666H2.33366C1.41699 13.6666 0.666992 12.9166 0.666992 11.9999L0.675326 1.99992C0.675326 1.08325 1.41699 0.333252 2.33366 0.333252ZM9.44199 7.55824L15.3337 3.87491C15.542 3.74157 15.667 3.51657 15.667 3.27491C15.667 2.71657 15.0587 2.38324 14.5837 2.67491L9.00033 6.16657L3.41699 2.67491C2.94199 2.38324 2.33366 2.71657 2.33366 3.27491C2.33366 3.51657 2.45866 3.74157 2.66699 3.87491L8.55866 7.55824C8.82533 7.72491 9.17532 7.72491 9.44199 7.55824Z" fill="#B9C0CE"/>
</svg>
