<svg width="16" height="16" viewBox="0 0 16 16" fill="none" xmlns="http://www.w3.org/2000/svg">
<path fill-rule="evenodd" clip-rule="evenodd" d="M1.8065 3.0266C1.5465 2.7666 1.5465 2.3466 1.8065 2.0866C2.0665 1.8266 2.49317 1.8266 2.75317 2.0866L13.6265 12.9733C13.8865 13.2333 13.8865 13.6533 13.6265 13.9133C13.3665 14.1733 12.9465 14.1733 12.6865 13.9133L10.8732 12.0999C9.97984 12.4466 9.01317 12.6466 7.99984 12.6466C4.6665 12.6466 1.81984 10.5733 0.666504 7.6466C1.17984 6.33327 2.03984 5.19993 3.11984 4.33993L1.8065 3.0266ZM11.3332 7.6466C11.3332 5.8066 9.83984 4.31327 7.99984 4.31327C7.65984 4.31327 7.33317 4.37994 7.01984 4.47327L5.57317 3.0266C6.33984 2.77994 7.15317 2.6466 7.99984 2.6466C11.3332 2.6466 14.1798 4.71993 15.3332 7.63993C14.8732 8.81327 14.1398 9.83993 13.2132 10.6599L11.1732 8.61994C11.2665 8.31327 11.3332 7.9866 11.3332 7.6466ZM7.99984 10.9799C6.15984 10.9799 4.6665 9.4866 4.6665 7.6466C4.6665 7.13327 4.7865 6.6466 4.99317 6.21993L6.03984 7.2666C6.01984 7.3866 5.99984 7.51327 5.99984 7.6466C5.99984 8.75327 6.89317 9.6466 7.99984 9.6466C8.13317 9.6466 8.25317 9.6266 8.37984 9.59993L9.4265 10.6466C8.99317 10.8599 8.51317 10.9799 7.99984 10.9799ZM9.97984 7.4266C9.87984 6.49327 9.1465 5.7666 8.21984 5.6666L9.97984 7.4266Z" fill="#B3B6CB"/>
</svg>
