<svg width="12" height="12" viewBox="0 0 12 12" fill="none" xmlns="http://www.w3.org/2000/svg">
<path fill-rule="evenodd" clip-rule="evenodd" d="M10.355 2.02103C10.55 1.82605 10.55 1.51109 10.355 1.31611L9.185 0.146228C9.09159 0.052611 8.96476 0 8.8325 0C8.70024 0 8.57342 0.052611 8.48 0.146228L7.5 1.12613L9.375 3.00093L10.355 2.02103ZM8.875 3.50098L7 1.62617L2.075 6.55066C2.025 6.60066 2 6.66065 2 6.73064V8.25049C2 8.39047 2.11 8.50046 2.25 8.50046H3.77C3.835 8.50046 3.9 8.47546 3.945 8.42547L8.875 3.50098ZM11 10.0002H1C0.45 10.0002 0 10.4501 0 11.0001C0 11.55 0.45 12 1 12H11C11.55 12 12 11.55 12 11.0001C12 10.4501 11.55 10.0002 11 10.0002Z" fill="#4A70FF"/>
</svg>
