<svg width="17" height="18" viewBox="0 0 17 18" fill="none" xmlns="http://www.w3.org/2000/svg">
<path d="M2.93501 13.0221C2.88738 12.9744 2.83082 12.9366 2.76857 12.9108C2.70631 12.885 2.63959 12.8718 2.5722 12.8718C2.50481 12.8718 2.43808 12.885 2.37582 12.9108C2.31357 12.9366 2.25701 12.9744 2.20938 13.0221L1.54584 13.6851L0.882301 13.0221C0.834962 12.9731 0.778335 12.934 0.715725 12.9071C0.653116 12.8803 0.585776 12.8661 0.517637 12.8655C0.449498 12.8649 0.381923 12.8779 0.318855 12.9037C0.255787 12.9295 0.19849 12.9675 0.150306 13.0157C0.102123 13.0638 0.0640175 13.1211 0.0382145 13.1841C0.0124114 13.2472 -0.000572737 13.3147 1.93761e-05 13.3828C0.000611489 13.4509 0.0147682 13.5182 0.0416633 13.5807C0.0685584 13.6433 0.107654 13.6999 0.156667 13.7472L0.820155 14.4103L0.156667 15.0733C0.107654 15.1206 0.0685584 15.1772 0.0416633 15.2398C0.0147682 15.3024 0.000611489 15.3697 1.93761e-05 15.4377C-0.000572737 15.5058 0.0124114 15.5734 0.0382145 15.6364C0.0640175 15.6994 0.102123 15.7567 0.150306 15.8048C0.19849 15.853 0.255787 15.891 0.318855 15.9168C0.381923 15.9426 0.449498 15.9556 0.517637 15.955C0.585776 15.9544 0.653116 15.9403 0.715725 15.9134C0.778335 15.8865 0.834962 15.8474 0.882301 15.7985L1.54584 15.1354L2.20938 15.7985C2.30617 15.8919 2.4358 15.9436 2.57035 15.9424C2.7049 15.9412 2.83361 15.8873 2.92876 15.7922C3.02391 15.6971 3.07788 15.5685 3.07905 15.4341C3.08022 15.2996 3.02849 15.1701 2.93501 15.0733L2.27152 14.4103L2.93501 13.7472C2.98269 13.6996 3.0205 13.6431 3.04631 13.5809C3.07211 13.5186 3.08539 13.452 3.08539 13.3846C3.08539 13.3173 3.07211 13.2506 3.04631 13.1884C3.0205 13.1262 2.98269 13.0696 2.93501 13.0221ZM7.55361 13.0221C7.50598 12.9744 7.44943 12.9366 7.38717 12.9108C7.32492 12.885 7.25819 12.8718 7.1908 12.8718C7.12341 12.8718 7.05668 12.885 6.99442 12.9108C6.93217 12.9366 6.87561 12.9744 6.82798 13.0221L6.16444 13.6851L5.5009 13.0221C5.40412 12.9286 5.27449 12.8769 5.13993 12.8781C5.00538 12.8793 4.87667 12.9332 4.78152 13.0283C4.68637 13.1234 4.6324 13.252 4.63123 13.3865C4.63006 13.5209 4.68179 13.6505 4.77527 13.7472L5.43876 14.4103L4.77527 15.0733C4.72625 15.1206 4.68716 15.1772 4.66026 15.2398C4.63337 15.3024 4.61921 15.3697 4.61862 15.4377C4.61803 15.5058 4.63101 15.5734 4.65682 15.6364C4.68262 15.6994 4.72072 15.7567 4.76891 15.8048C4.81709 15.853 4.87439 15.891 4.93746 15.9168C5.00052 15.9426 5.0681 15.9556 5.13624 15.955C5.20438 15.9544 5.27172 15.9403 5.33433 15.9134C5.39694 15.8865 5.45356 15.8474 5.5009 15.7985L6.16444 15.1354L6.82798 15.7985C6.92477 15.8919 7.0544 15.9436 7.18895 15.9424C7.3235 15.9412 7.45222 15.8873 7.54736 15.7922C7.64251 15.6971 7.69648 15.5685 7.69765 15.4341C7.69882 15.2996 7.64709 15.1701 7.55361 15.0733L6.89013 14.4103L7.55361 13.7472C7.60129 13.6996 7.63911 13.6431 7.66491 13.5809C7.69071 13.5186 7.70399 13.452 7.70399 13.3846C7.70399 13.3173 7.69071 13.2506 7.66491 13.1884C7.63911 13.1262 7.60129 13.0696 7.55361 13.0221ZM12.1722 13.0221C12.1246 12.9744 12.068 12.9366 12.0058 12.9108C11.9435 12.885 11.8768 12.8718 11.8094 12.8718C11.742 12.8718 11.6753 12.885 11.613 12.9108C11.5508 12.9366 11.4942 12.9744 11.4466 13.0221L10.783 13.6851L10.1195 13.0221C10.0227 12.9286 9.89309 12.8769 9.75853 12.8781C9.62398 12.8793 9.49527 12.9332 9.40012 13.0283C9.30497 13.1234 9.251 13.252 9.24983 13.3865C9.24866 13.5209 9.30039 13.6505 9.39387 13.7472L10.0574 14.4103L9.39387 15.0733C9.34486 15.1206 9.30576 15.1772 9.27887 15.2398C9.25197 15.3024 9.23781 15.3697 9.23722 15.4377C9.23663 15.5058 9.24961 15.5734 9.27542 15.6364C9.30122 15.6994 9.33933 15.7567 9.38751 15.8048C9.43569 15.853 9.49299 15.891 9.55606 15.9168C9.61913 15.9426 9.6867 15.9556 9.75484 15.955C9.82298 15.9544 9.89032 15.9403 9.95293 15.9134C10.0155 15.8865 10.0722 15.8474 10.1195 15.7985L10.783 15.1354L11.4466 15.7985C11.5434 15.8919 11.673 15.9436 11.8076 15.9424C11.9421 15.9412 12.0708 15.8873 12.166 15.7922C12.2611 15.6971 12.3151 15.5685 12.3163 15.4341C12.3174 15.2996 12.2657 15.1701 12.1722 15.0733L11.5087 14.4103L12.1722 13.7472C12.2199 13.6996 12.2577 13.6431 12.2835 13.5809C12.3093 13.5186 12.3226 13.452 12.3226 13.3846C12.3226 13.3173 12.3093 13.2506 12.2835 13.1884C12.2577 13.1262 12.2199 13.0696 12.1722 13.0221ZM16.1273 14.4103L16.7908 13.7472C16.8843 13.6505 16.936 13.5209 16.9349 13.3865C16.9337 13.252 16.8797 13.1234 16.7846 13.0283C16.6894 12.9332 16.5607 12.8793 16.4262 12.8781C16.2916 12.8769 16.162 12.9286 16.0652 13.0221L15.4016 13.6851L14.7381 13.0221C14.6413 12.9286 14.5117 12.8769 14.3771 12.8781C14.2426 12.8793 14.1139 12.9332 14.0187 13.0283C13.9236 13.1234 13.8696 13.252 13.8684 13.3865C13.8673 13.5209 13.919 13.6505 14.0125 13.7472L14.676 14.4103L14.0125 15.0733C13.9635 15.1206 13.9244 15.1772 13.8975 15.2398C13.8706 15.3024 13.8564 15.3697 13.8558 15.4377C13.8552 15.5058 13.8682 15.5734 13.894 15.6364C13.9198 15.6994 13.9579 15.7567 14.0061 15.8048C14.0543 15.853 14.1116 15.891 14.1747 15.9168C14.2377 15.9426 14.3053 15.9556 14.3734 15.955C14.4416 15.9544 14.5089 15.9403 14.5715 15.9134C14.6341 15.8865 14.6908 15.8474 14.7381 15.7985L15.4016 15.1354L16.0652 15.7985C16.162 15.8919 16.2916 15.9436 16.4262 15.9424C16.5607 15.9412 16.6894 15.8873 16.7846 15.7922C16.8797 15.6971 16.9337 15.5685 16.9349 15.4341C16.936 15.2996 16.8843 15.1701 16.7908 15.0733L16.1273 14.4103ZM2.5722 16.9744H0.519484C0.383381 16.9744 0.252852 17.0284 0.156612 17.1246C0.0603729 17.2207 0.00630602 17.3512 0.00630602 17.4872C0.00630602 17.6232 0.0603729 17.7536 0.156612 17.8498C0.252852 17.946 0.383381 18 0.519484 18H2.5722C2.7083 18 2.83883 17.946 2.93507 17.8498C3.03131 17.7536 3.08537 17.6232 3.08537 17.4872C3.08537 17.3512 3.03131 17.2207 2.93507 17.1246C2.83883 17.0284 2.7083 16.9744 2.5722 16.9744ZM7.1908 16.9744H5.13809C5.00198 16.9744 4.87145 17.0284 4.77521 17.1246C4.67897 17.2207 4.62491 17.3512 4.62491 17.4872C4.62491 17.6232 4.67897 17.7536 4.77521 17.8498C4.87145 17.946 5.00198 18 5.13809 18H7.1908C7.3269 18 7.45743 17.946 7.55367 17.8498C7.64991 17.7536 7.70397 17.6232 7.70397 17.4872C7.70397 17.3512 7.64991 17.2207 7.55367 17.1246C7.45743 17.0284 7.3269 16.9744 7.1908 16.9744ZM11.8094 16.9744H9.75669C9.62058 16.9744 9.49005 17.0284 9.39382 17.1246C9.29758 17.2207 9.24351 17.3512 9.24351 17.4872C9.24351 17.6232 9.29758 17.7536 9.39382 17.8498C9.49005 17.946 9.62058 18 9.75669 18H11.8094C11.9455 18 12.076 17.946 12.1723 17.8498C12.2685 17.7536 12.3226 17.6232 12.3226 17.4872C12.3226 17.3512 12.2685 17.2207 12.1723 17.1246C12.076 17.0284 11.9455 16.9744 11.8094 16.9744ZM16.428 16.9744H14.3753C14.2392 16.9744 14.1087 17.0284 14.0124 17.1246C13.9162 17.2207 13.8621 17.3512 13.8621 17.4872C13.8621 17.6232 13.9162 17.7536 14.0124 17.8498C14.1087 17.946 14.2392 18 14.3753 18H16.428C16.5641 18 16.6946 17.946 16.7909 17.8498C16.8871 17.7536 16.9412 17.6232 16.9412 17.4872C16.9412 17.3512 16.8871 17.2207 16.7909 17.1246C16.6946 17.0284 16.5641 16.9744 16.428 16.9744ZM12.8614 4.46154H11.912V3.4359C11.912 2.52464 11.5498 1.65071 10.905 1.00635C10.2602 0.361995 9.38563 0 8.47374 0C7.56185 0 6.68731 0.361995 6.0425 1.00635C5.3977 1.65071 5.03545 2.52464 5.03545 3.4359V4.46154H4.08607C4.01849 4.46085 3.95145 4.47365 3.88888 4.49918C3.82631 4.52471 3.76946 4.56246 3.72167 4.61021C3.67388 4.65797 3.6361 4.71478 3.61056 4.7773C3.58501 4.83983 3.57221 4.90682 3.57289 4.97436V9.79487C3.57322 10.2028 3.73552 10.5939 4.02417 10.8824C4.31282 11.1708 4.70422 11.333 5.11243 11.3333H11.8351C12.2433 11.333 12.6347 11.1708 12.9233 10.8824C13.212 10.5939 13.3743 10.2028 13.3746 9.79487V4.97436C13.3753 4.90682 13.3625 4.83983 13.3369 4.7773C13.3114 4.71478 13.2736 4.65797 13.2258 4.61021C13.178 4.56246 13.1212 4.52471 13.0586 4.49918C12.996 4.47365 12.929 4.46085 12.8614 4.46154ZM6.06181 3.4359C6.06181 2.79666 6.31592 2.1836 6.76825 1.73159C7.22057 1.27958 7.83406 1.02564 8.47374 1.02564C9.11343 1.02564 9.72691 1.27958 10.1792 1.73159C10.6316 2.1836 10.8857 2.79666 10.8857 3.4359V4.46154H6.06181V3.4359Z" fill="#6E7B97"/>
</svg>
