<svg width="24" height="24" viewBox="0 0 24 24" fill="none" xmlns="http://www.w3.org/2000/svg">
<path fill-rule="evenodd" clip-rule="evenodd" d="M15.1552 14.4716H15.9436L20.1749 18.7316C20.584 19.1416 20.584 19.8116 20.1749 20.2216C19.7657 20.6316 19.0971 20.6316 18.688 20.2216L14.4467 15.9716V15.1816L14.1773 14.9016C12.7802 16.1016 10.8741 16.7216 8.84827 16.3816C6.074 15.9116 3.85857 13.5916 3.51927 10.7916C3.00034 6.56157 6.55301 3.00157 10.7743 3.52157C13.5685 3.86157 15.8837 6.08157 16.3528 8.86157C16.6921 10.8916 16.0734 12.8016 14.8758 14.2016L15.1552 14.4716ZM5.46525 9.97157C5.46525 12.4616 7.47111 14.4716 9.95598 14.4716C12.4409 14.4716 14.4467 12.4616 14.4467 9.97157C14.4467 7.48157 12.4409 5.47157 9.95598 5.47157C7.47111 5.47157 5.46525 7.48157 5.46525 9.97157Z" fill="#93A9C7"/>
</svg>
