<svg width="16" height="16" viewBox="0 0 16 16" fill="none" xmlns="http://www.w3.org/2000/svg">
    <path
        d="M14.7912 7.00459L3.62124 7.00459L8.50124 2.12459C8.89124 1.73459 8.89124 1.09459 8.50124 0.704595C8.31441 0.517342 8.06076 0.412109 7.79624 0.412109C7.53172 0.412109 7.27807 0.517342 7.09124 0.704595L0.50124 7.29459C0.11124 7.68459 0.11124 8.31459 0.50124 8.70459L7.09124 15.2946C7.48124 15.6846 8.11124 15.6846 8.50124 15.2946C8.89124 14.9046 8.89124 14.2746 8.50124 13.8846L3.62124 9.00459L14.7912 9.00459C15.3412 9.00459 15.7912 8.55459 15.7912 8.00459C15.7912 7.45459 15.3412 7.00459 14.7912 7.00459Z"
        fill="#5F6169" />
</svg>