<svg width="16" height="22" viewBox="0 0 16 22" fill="none" xmlns="http://www.w3.org/2000/svg">
<path fill-rule="evenodd" clip-rule="evenodd" d="M8 1.20954V2.99954C12.42 2.99954 16 6.57954 16 10.9995C16 12.0395 15.8 13.0395 15.43 13.9495C15.16 14.6195 14.3 14.7995 13.79 14.2895C13.52 14.0195 13.41 13.6095 13.56 13.2495C13.85 12.5595 14 11.7895 14 10.9995C14 7.68954 11.31 4.99954 8 4.99954V6.78954C8 7.23954 7.46 7.45954 7.14 7.14954L4.35 4.35954C4.15 4.15954 4.15 3.84954 4.35 3.64954L7.15 0.859542C7.46 0.539542 8 0.759542 8 1.20954ZM2 10.9995C2 14.3095 4.69 16.9995 8 16.9995V15.2095C8 14.7595 8.54 14.5395 8.85 14.8495L11.64 17.6395C11.84 17.8395 11.84 18.1495 11.64 18.3495L8.85 21.1395C8.54 21.4595 8 21.2395 8 20.7895V18.9995C3.58 18.9995 0 15.4195 0 10.9995C0 9.95954 0.2 8.95954 0.57 8.04954C0.84 7.37954 1.7 7.19954 2.21 7.70954C2.48 7.97954 2.59 8.38954 2.44 8.74954C2.15 9.43954 2 10.2095 2 10.9995Z" fill="#03CB83"/>
</svg>
