<svg width="20" height="18" viewBox="0 0 20 18" fill="none" xmlns="http://www.w3.org/2000/svg">
  <rect y="1" width="20" height="16" rx="2" fill="url(#paint0_linear_2)" />
  <path fill-rule="evenodd" clip-rule="evenodd"
    d="M6.25 11.25H8.5C8.9125 11.25 9.25 11.5875 9.25 12C9.25 12.4125 8.9125 12.75 8.5 12.75H6.25C4.18 12.75 2.5 11.07 2.5 9C2.5 6.93 4.18 5.25 6.25 5.25H8.5C8.9125 5.25 9.25 5.5875 9.25 6C9.25 6.4125 8.9125 6.75 8.5 6.75H6.25C5.0125 6.75 4 7.7625 4 9C4 10.2375 5.0125 11.25 6.25 11.25ZM13.75 5.25H11.5C11.0875 5.25 10.75 5.5875 10.75 6C10.75 6.4125 11.0875 6.75 11.5 6.75H13.75C14.9875 6.75 16 7.7625 16 9C16 10.2375 14.9875 11.25 13.75 11.25H11.5C11.0875 11.25 10.75 11.5875 10.75 12C10.75 12.4125 11.0875 12.75 11.5 12.75H13.75C15.82 12.75 17.5 11.07 17.5 9C17.5 6.93 15.82 5.25 13.75 5.25ZM7 9C7 9.4125 7.3375 9.75 7.75 9.75H12.25C12.6625 9.75 13 9.4125 13 9C13 8.5875 12.6625 8.25 12.25 8.25H7.75C7.3375 8.25 7 8.5875 7 9Z"
    fill="white" />
  <defs>
    <linearGradient id="paint0_linear_2" x1="10" y1="1" x2="10" y2="17" gradientUnits="userSpaceOnUse">
      <stop stop-color="#5DE6F9" />
      <stop offset="1" stop-color="#37B9F2" />
    </linearGradient>
  </defs>
</svg>