<svg width="212" height="212" viewBox="0 0 212 212" fill="none" xmlns="http://www.w3.org/2000/svg">
    <g clip-path="url(#clip0)">
        <path
            d="M183.692 151.275C185.348 154.25 188.674 155.704 192.079 155.688C197.876 155.661 202.524 160.6 202.023 166.493C201.583 171.713 196.876 175.562 191.635 175.562H159.001V178.875H86.1256H59.6256H23.1881C17.5237 178.875 12.9657 174.135 13.2638 168.404C13.5454 163.028 18.3684 159 23.7512 159H26.5006C30.5253 159 33.7086 155.413 33.0361 151.262C32.5061 148.006 29.4454 145.75 26.1462 145.75H9.93809C4.27371 145.75 -0.284288 141.01 0.0138372 135.279C0.2954 129.903 5.1184 125.875 10.5012 125.875H31.4693C36.0439 125.875 39.7506 122.168 39.7506 117.594C39.7506 113.019 36.0439 109.312 31.4693 109.312C26.8948 109.312 23.1881 105.606 23.1881 101.031C23.1881 96.4567 26.8948 92.75 31.4693 92.75H59.6256V69.5625H34.7818C28.1734 69.5625 22.8535 64.0306 23.2047 57.346C23.5326 51.0754 29.1605 46.375 35.4377 46.375H59.6256V33.125H139.126H159.001H187.157C193.765 33.125 199.085 38.6569 198.734 45.3415C198.406 51.6121 192.778 56.3125 186.501 56.3125H177.219C170.611 56.3125 165.291 61.8444 165.642 68.529C165.97 74.7996 171.598 79.5 177.875 79.5H185.501C191.387 79.5 196.081 84.6211 195.365 90.6499C194.772 95.6484 190.244 99.1696 185.216 99.3783C181.251 99.5439 178.187 103.198 179.008 107.348C179.631 110.488 182.596 112.625 185.795 112.625H200.407C207.015 112.625 212.335 118.157 211.984 124.841C211.656 131.112 206.028 135.812 199.751 135.812H192.126C184.865 135.812 179.425 143.597 183.692 151.275ZM8.28184 109.312C12.8564 109.312 16.5631 105.606 16.5631 101.031C16.5631 96.4567 12.8564 92.75 8.28184 92.75C3.70727 92.75 0.000587193 96.4567 0.000587193 101.031C0.000587193 105.606 3.70727 109.312 8.28184 109.312ZM8.28184 109.312C12.8564 109.312 16.5631 105.606 16.5631 101.031C16.5631 96.4567 12.8564 92.75 8.28184 92.75C3.70727 92.75 0.000587193 96.4567 0.000587193 101.031C0.000587193 105.606 3.70727 109.312 8.28184 109.312Z"
            fill="url(#paint0_radial)" />
        <path
            d="M165.625 192.125H53C47.5112 192.125 43.0625 187.676 43.0625 182.188V29.8125C43.0625 24.3237 47.5112 19.875 53 19.875H121.758C124.394 19.875 126.922 20.9218 128.783 22.7867L172.651 66.6541C174.516 68.5158 175.562 71.0432 175.562 73.6799V182.188C175.562 187.676 171.114 192.125 165.625 192.125Z"
            fill="url(#paint1_linear)" />
        <path fill-rule="evenodd" clip-rule="evenodd"
            d="M78.1625 104.623C79.2359 98.988 84.5259 95.1163 90.2759 95.1163H101.508C103.501 95.1163 105.149 93.468 105.149 91.4747C105.149 89.4813 103.501 87.833 101.508 87.833H90.6592C80.6542 87.833 71.7225 95.1547 70.7642 105.121C69.6525 116.545 78.6225 126.166 89.8159 126.166H101.508C103.501 126.166 105.149 124.518 105.149 122.525C105.149 120.531 103.501 118.883 101.508 118.883H89.8159C82.4942 118.883 76.7059 112.213 78.1625 104.623ZM97.482 110.833H120.482C122.59 110.833 124.315 109.108 124.315 107C124.315 104.891 122.59 103.166 120.482 103.166H97.482C95.3736 103.166 93.6486 104.891 93.6486 107C93.6486 109.108 95.3736 110.833 97.482 110.833ZM116.457 87.833H127.305C137.31 87.833 146.28 95.1547 147.239 105.121C148.312 116.545 139.342 126.166 128.149 126.166H116.457C114.464 126.166 112.815 124.518 112.815 122.525C112.815 120.531 114.464 118.883 116.457 118.883H128.149C135.47 118.883 141.259 112.213 139.802 104.623C138.729 98.988 133.439 95.1163 127.689 95.1163H116.457C114.464 95.1163 112.815 93.468 112.815 91.4747C112.815 89.4813 114.464 87.833 116.457 87.833Z"
            fill="white" />
        <path
            d="M172.651 66.6548L128.783 22.7873C127.939 21.9426 126.942 21.2901 125.875 20.7998V59.6256C125.875 65.1144 130.324 69.5631 135.812 69.5631H174.638C174.151 68.4965 173.499 67.4994 172.651 66.6548Z"
            fill="url(#paint2_linear)" />
        <path
            d="M135.812 69.5625C130.324 69.5625 125.875 65.1138 125.875 59.625V69.5625C125.875 75.0513 130.324 79.5 135.812 79.5H175.562V73.6799C175.562 72.2423 175.225 70.8477 174.638 69.5625H135.812Z"
            fill="url(#paint3_linear)" />
        <path
            d="M71.2188 69.5625H43.0625V29.8125C43.0625 24.3237 47.5112 19.875 53 19.875H84.4688C89.0433 19.875 92.75 23.5817 92.75 28.1562C92.75 32.7308 89.0433 36.4375 84.4688 36.4375H67.9062C63.3317 36.4375 59.625 40.1442 59.625 44.7188C59.625 49.2933 63.3317 53 67.9062 53H71.2188C75.7933 53 79.5 56.7067 79.5 61.2812C79.5 65.8558 75.7933 69.5625 71.2188 69.5625ZM96.0625 56.3125C92.4022 56.3125 89.4375 59.2772 89.4375 62.9375C89.4375 66.5978 92.4022 69.5625 96.0625 69.5625C99.7228 69.5625 102.688 66.5978 102.688 62.9375C102.688 59.2772 99.7228 56.3125 96.0625 56.3125Z"
            fill="url(#paint4_linear)" />
        <path
            d="M145.75 135.812H175.562V182.188C175.562 187.676 171.114 192.125 165.625 192.125H109.312C103.824 192.125 99.375 187.676 99.375 182.188C99.375 176.699 103.824 172.25 109.312 172.25H147.406C151.981 172.25 155.688 168.543 155.688 163.969C155.688 159.394 151.981 155.688 147.406 155.688H145.75C140.261 155.688 135.812 151.239 135.812 145.75C135.812 140.261 140.261 135.812 145.75 135.812ZM119.25 135.812C113.761 135.812 109.312 140.261 109.312 145.75C109.312 151.239 113.761 155.688 119.25 155.688C124.739 155.688 129.188 151.239 129.188 145.75C129.188 140.261 124.739 135.812 119.25 135.812Z"
            fill="url(#paint5_linear)" />
        <circle cx="163.5" cy="174.5" r="29.5" fill="#03CB83" stroke="white" stroke-width="4" />
        <path
            d="M158.124 182.105L151.762 175.743C151.419 175.4 150.954 175.207 150.469 175.207C149.984 175.207 149.519 175.4 149.177 175.743C148.462 176.458 148.462 177.613 149.177 178.328L156.84 185.992C157.555 186.707 158.71 186.707 159.425 185.992L178.822 166.595C179.537 165.88 179.537 164.725 178.822 164.01C178.479 163.667 178.014 163.474 177.529 163.474C177.044 163.474 176.579 163.667 176.237 164.01L158.124 182.105Z"
            fill="white" />
    </g>
    <defs>
        <radialGradient id="paint0_radial" cx="0" cy="0" r="1" gradientUnits="userSpaceOnUse"
            gradientTransform="translate(106.001 106) scale(109.319)">
            <stop stop-color="#F2E0BB" />
            <stop offset="0.011" stop-color="#F2E0BC" />
            <stop offset="0.362" stop-color="#F9EDD2" />
            <stop offset="0.699" stop-color="#FEF4DF" />
            <stop offset="1" stop-color="#FFF7E4" />
        </radialGradient>
        <linearGradient id="paint1_linear" x1="109.312" y1="192.125" x2="109.312" y2="19.875"
            gradientUnits="userSpaceOnUse">
            <stop stop-color="#41BFEC" />
            <stop offset="0.232" stop-color="#4CC5EF" />
            <stop offset="0.644" stop-color="#6BD4F6" />
            <stop offset="1" stop-color="#8AE4FD" />
        </linearGradient>
        <linearGradient id="paint2_linear" x1="128.787" y1="66.6514" x2="153.879" y2="41.5593"
            gradientUnits="userSpaceOnUse">
            <stop stop-color="#C6EFFD" />
            <stop offset="0.375" stop-color="#B7ECFD" />
            <stop offset="1" stop-color="#95E6FD" />
        </linearGradient>
        <linearGradient id="paint3_linear" x1="150.719" y1="79.7749" x2="150.719" y2="59.8999"
            gradientUnits="userSpaceOnUse">
            <stop stop-color="#42C6EE" />
            <stop offset="0.48" stop-color="#3BC3ED" />
            <stop offset="1" stop-color="#2EBEEA" />
        </linearGradient>
        <linearGradient id="paint4_linear" x1="72.875" y1="69.5625" x2="72.875" y2="19.875"
            gradientUnits="userSpaceOnUse">
            <stop stop-color="#81DCF7" />
            <stop offset="0.48" stop-color="#8CE1F9" />
            <stop offset="1" stop-color="#9EE8FD" />
        </linearGradient>
        <linearGradient id="paint5_linear" x1="137.469" y1="135.812" x2="137.469" y2="192.125"
            gradientUnits="userSpaceOnUse">
            <stop stop-color="#47C3EE" />
            <stop offset="0.98" stop-color="#32B5E8" />
            <stop offset="1" stop-color="#32B5E8" />
        </linearGradient>
        <clipPath id="clip0">
            <rect width="212" height="212" fill="white" />
        </clipPath>
    </defs>
</svg>