<svg width="18" height="22" viewBox="0 0 18 22" fill="none" xmlns="http://www.w3.org/2000/svg">
    <path fill-rule="evenodd" clip-rule="evenodd"
        d="M12 3.89258C12 5.55258 10.66 6.89258 9 6.89258C7.34 6.89258 6 5.55258 6 3.89258C6 2.23258 7.34 0.892578 9 0.892578C10.66 0.892578 12 2.23258 12 3.89258ZM2.32 7.09258C4.88 7.55258 7.18 8.74258 9 10.4426C10.82 8.74258 13.12 7.55258 15.68 7.09258C16.89 6.88258 18 7.84258 18 9.07258V15.9926C18 16.9526 17.23 17.8826 16.29 18.0126C13.77 18.3326 11.48 19.3826 9.61 20.9126C9.26 21.1926 8.69 21.1626 8.34 20.8726C6.48 19.3526 4.21 18.3226 1.71 18.0026C0.72 17.8726 0 16.9926 0 15.3126V9.07258C0 7.84258 1.11 6.88258 2.32 7.09258Z"
        fill="#03CB83" />
</svg>