<svg width="24" height="24" viewBox="0 0 24 24" fill="none" xmlns="http://www.w3.org/2000/svg">
<path fill-rule="evenodd" clip-rule="evenodd" d="M24 2.66667V21.3333C24 22.8 22.8 24 21.3333 24H2.66667C1.2 24 0 22.8 0 21.3333V2.66667C0 1.2 1.2 0 2.66667 0H21.3333C22.8 0 24 1.2 24 2.66667ZM10.6666 18.0133L7.86664 14.64C7.58664 14.3066 7.07997 14.32 6.82664 14.6666L3.50664 18.9333C3.15997 19.3733 3.46664 20.0133 4.02664 20.0133H20.0133C20.56 20.0133 20.88 19.3866 20.5466 18.9466L15.8666 12.7066C15.6 12.3466 15.0666 12.3466 14.8 12.6933L10.6666 18.0133Z" fill="#93A9C7"/>
</svg>
