<svg width="232" height="174" viewBox="0 0 232 174" fill="none" xmlns="http://www.w3.org/2000/svg">
<g clip-path="url(#clip0)">
<path opacity="0.6" d="M170.917 145.826H195.204L191.555 110.576H183.765C183.841 110.068 183.941 109.56 184.042 109.026C184.432 107.032 184.847 104.962 183.828 103.094C183.413 102.345 182.759 101.697 181.941 101.214C181.991 100.909 182.016 100.605 182.016 100.3C182.016 97.2638 179.575 94.7995 176.567 94.7995C175.082 94.7995 173.723 95.4092 172.742 96.3873L166.525 97.0351L158.131 91.0014C158.043 90.9379 157.955 90.8744 157.867 90.8236C157.087 89.9471 156.168 89.1976 155.136 88.6133L154.784 88.2576V87.8003C157.616 86.5682 159.591 83.7228 159.591 80.4201C159.591 79.4675 159.428 78.5529 159.126 77.7018H159.251C161.164 77.7018 162.712 76.1394 162.712 74.2086V74.0562C162.712 72.227 161.315 70.7281 159.541 70.5756C159.566 70.347 159.591 70.1057 159.591 69.8643C159.591 66.9935 157.288 64.6562 154.432 64.6562C152.28 64.6562 150.443 65.9773 149.675 67.8573C149.411 67.7684 149.134 67.7303 148.844 67.7303C147.322 67.7303 146.076 68.9751 146.076 70.5248C146.076 70.5375 146.076 70.5502 146.076 70.5629C143.609 70.5629 141.609 72.5827 141.609 75.0724C141.609 76.0378 141.911 76.9396 142.427 77.6764C141.923 78.2607 141.609 79.0229 141.609 79.8485C141.609 81.3982 142.666 82.6939 144.1 83.0369C144.566 84.4088 145.396 85.6282 146.479 86.5428C146.151 86.5809 145.837 86.7333 145.585 86.9874C145.245 87.3304 145.094 87.8003 145.145 88.2449C143.987 88.8039 142.943 89.566 142.049 90.4806C141.244 90.7855 140.514 91.3317 139.998 92.1192L133.844 101.405C133.165 102.434 132.951 103.729 133.278 104.923C133.605 106.117 134.436 107.121 135.556 107.654L138.928 109.268V112.278C138.928 114.069 139.356 115.746 140.111 117.245L135.732 170.113C135.115 171.078 134.763 172.234 134.763 173.467H135.468H146.428H147.12C147.12 172.603 146.944 171.777 146.63 171.028L149.662 134.978L149.7 136.35V170.596C149.26 171.46 149.008 172.438 149.008 173.467H149.7H160.661H161.353C161.353 172.425 161.101 171.447 160.661 170.596V145.826H170.917ZM169.029 105.368L172.565 105C172.591 105.813 172.817 106.676 173.258 107.591C173.786 108.696 174.214 109.661 174.516 110.576H171.395C171.005 109.839 170.514 109.077 169.923 108.213C169.369 107.4 168.866 106.359 169.029 105.368ZM179.763 109.649C179.726 109.954 179.701 110.259 179.675 110.576H175.17C174.856 109.573 174.403 108.531 173.811 107.312C173.534 106.727 173.207 105.851 173.195 104.936L173.597 104.898C174.453 105.47 175.485 105.8 176.58 105.8C177.524 105.8 178.404 105.559 179.172 105.139C180.091 106.511 179.94 108.036 179.763 109.649ZM183.287 103.399C184.193 105.063 183.828 106.93 183.438 108.912C183.325 109.458 183.224 110.017 183.136 110.576H180.254C180.279 110.297 180.305 110.004 180.342 109.712C180.519 108.074 180.682 106.372 179.65 104.822C180.67 104.11 181.437 103.069 181.79 101.849C182.431 102.269 182.96 102.789 183.287 103.399ZM165.38 105.724C165.518 105.724 165.669 105.711 165.82 105.698L168.45 105.419C168.35 106.346 168.677 107.413 169.445 108.531C169.948 109.268 170.376 109.941 170.741 110.563H167.268H163.845L160.648 141.367V115.492V113.764V112.24V111.046V103.297L162.913 104.923C163.643 105.444 164.499 105.724 165.38 105.724Z" fill="#BEC9ED"/>
<path opacity="0.6" d="M207.008 42.109L201.32 31.2737L199.961 28.695L197.91 24.7826C197.419 23.8427 196.261 23.487 195.343 23.9824L165.808 39.7844C164.877 40.2798 164.524 41.4484 165.015 42.3757L166.059 44.37L163.039 44.8019C161.995 44.9544 161.278 45.9198 161.429 46.9741L164.172 66.3963C164.323 67.4507 165.279 68.1747 166.324 68.0223L199.42 63.2588C200.464 63.1064 201.182 62.141 201.031 61.0867L199.244 48.4349L206.228 44.7003C207.146 44.2049 207.499 43.0363 207.008 42.109Z" fill="#BEC9ED"/>
<path opacity="0.6" d="M181.047 163.457V156.763H181.966V153.473H172.855H154.394V156.763H155.313V157.703V163.457H158.522V166.734H159.44V167.674V173.428H176.995H185.187V166.734H186.093V163.457H181.047Z" fill="#BEC9ED"/>
<path d="M174.365 164.969H156.823V171.663H174.365V164.969Z" fill="#80C4FF"/>
<path d="M174.365 161.678H155.904V164.956H174.365V161.678Z" fill="#80C4FF"/>
<path d="M174.358 171.656H182.551V164.961H174.358V171.656Z" fill="#0885F1"/>
<path d="M174.358 164.968H183.469V161.691H174.358V164.968Z" fill="#0885F1"/>
<path d="M174.365 164.969H156.823V165.921H174.365V164.969Z" fill="#0885F1"/>
<path d="M179.436 168.309H177.448C177.02 168.309 176.68 167.966 176.68 167.534C176.68 167.102 177.02 166.76 177.448 166.76H179.436C179.864 166.76 180.204 167.102 180.204 167.534C180.204 167.966 179.864 168.309 179.436 168.309Z" fill="#2A1E68"/>
<path d="M170.225 154.984H152.683V161.678H170.225V154.984Z" fill="#FFD64A"/>
<path d="M170.225 151.707H151.764V154.984H170.225V151.707Z" fill="#FFD64A"/>
<path d="M170.228 161.692H178.42V154.998H170.228V161.692Z" fill="#FBAA00"/>
<path d="M170.227 154.991H179.338V151.714H170.227V154.991Z" fill="#FBAA00"/>
<path d="M170.225 154.984H152.683V155.937H170.225V154.984Z" fill="#FBAA00"/>
<path d="M175.296 158.338H173.308C172.88 158.338 172.54 157.995 172.54 157.563C172.54 157.131 172.88 156.788 173.308 156.788H175.296C175.724 156.788 176.064 157.131 176.064 157.563C176.076 157.995 175.724 158.338 175.296 158.338Z" fill="#2A1E68"/>
<path d="M38.3929 171.579H66.9336V147.914H38.3929V171.579Z" fill="#80C4FF"/>
<path d="M29.9789 171.579H38.385V147.914H29.9789L29.9789 171.579Z" fill="#0885F1"/>
<path d="M32.9465 151.392H35.0732V147.912H32.9465V151.392Z" fill="#80C4FF"/>
<path d="M32.9465 171.621H35.0732V168.14H32.9465V171.621Z" fill="#80C4FF"/>
<path d="M56.006 147.884H53.1494V147.642C53.1494 146.842 53.7912 146.194 54.584 146.194C55.3768 146.194 56.0186 146.842 56.0186 147.642V147.884H56.006ZM53.6654 147.401H55.5026C55.402 146.995 55.0244 146.69 54.584 146.69C54.1436 146.69 53.766 146.995 53.6654 147.401Z" fill="#452B99"/>
<path d="M53.6903 147.884H49.4495V147.642C49.4495 146.461 50.4059 145.496 51.5762 145.496C52.7465 145.496 53.7029 146.461 53.7029 147.642V147.884H53.6903ZM49.9528 147.401H53.1995C53.0863 146.601 52.3941 145.991 51.5762 145.991C50.7456 145.991 50.0661 146.601 49.9528 147.401Z" fill="#452B99"/>
<path d="M52.6583 171.815C52.5199 171.815 52.4192 171.701 52.4192 171.574V147.909C52.4192 147.769 52.5324 147.667 52.6583 147.667C52.7967 147.667 52.8974 147.782 52.8974 147.909V171.574C52.8974 171.714 52.7967 171.815 52.6583 171.815Z" fill="#452B99"/>
<path d="M67.2938 156.788H29.8059C29.6675 156.788 29.5542 156.674 29.5542 156.534C29.5542 156.395 29.6675 156.28 29.8059 156.28H67.2938C67.4322 156.28 67.5455 156.395 67.5455 156.534C67.5455 156.674 67.4322 156.788 67.2938 156.788Z" fill="#452B99"/>
<path d="M40.6334 167.859L49.5242 168.441L49.849 163.383L40.9582 162.801L40.6334 167.859Z" fill="white"/>
<path d="M47.8893 168.335L40.8674 168.081V167.865L47.8893 168.335Z" fill="#0885F1"/>
<path d="M48.5563 164.778H48.5437L45.2341 164.486C45.1335 164.473 45.0706 164.397 45.0706 164.296C45.0831 164.194 45.1586 164.13 45.2593 164.13L48.5689 164.423C48.6696 164.435 48.7325 164.511 48.7325 164.613C48.7199 164.715 48.6444 164.778 48.5563 164.778Z" fill="#DEE4F6"/>
<path d="M48.4931 165.934H48.4805L41.9368 165.35C41.8361 165.337 41.7732 165.261 41.7732 165.159C41.7858 165.058 41.8613 164.994 41.962 164.994L48.5057 165.578C48.6064 165.591 48.6693 165.667 48.6693 165.769C48.6567 165.858 48.5812 165.934 48.4931 165.934Z" fill="#DEE4F6"/>
<path d="M48.4933 167.153C48.4933 167.153 48.4807 167.153 48.4933 167.153L42.9312 166.759C42.8305 166.747 42.7676 166.671 42.7676 166.569C42.7802 166.467 42.8557 166.404 42.9563 166.404L48.5059 166.798C48.6066 166.81 48.6695 166.887 48.6695 166.988C48.6569 167.09 48.5814 167.153 48.4933 167.153Z" fill="#DEE4F6"/>
<path d="M204.176 39.2511L195.078 21.912C194.587 20.972 193.43 20.6164 192.511 21.1118L162.976 36.9138C162.045 37.4092 161.693 38.5778 162.183 39.5051L171.282 56.8441C171.772 57.7841 172.93 58.1398 173.849 57.6444L203.384 41.8424C204.315 41.347 204.68 40.1784 204.176 39.2511Z" fill="#4A70FF"/>
<path d="M196.09 23.8542L163.188 41.4524L165.586 46.0206L198.488 28.4224L196.09 23.8542Z" fill="white"/>
<path d="M192.851 42.9856L174.428 52.8428C173.648 53.262 172.679 52.9571 172.276 52.1696C171.861 51.382 172.163 50.4039 172.943 49.9974L191.366 40.1402C192.146 39.7211 193.115 40.0259 193.518 40.8135C193.921 41.601 193.631 42.5664 192.851 42.9856Z" fill="#FF5B97"/>
<path d="M196.589 38.019C196.563 38.019 196.538 38.019 196.513 38.0063C196.375 37.9682 196.299 37.8158 196.337 37.676C196.551 36.9901 196.161 36.2533 195.481 36.0501C195.343 36.012 195.267 35.8596 195.305 35.7198C195.343 35.5801 195.494 35.5039 195.632 35.542C196.589 35.8342 197.13 36.8631 196.84 37.8412C196.803 37.9555 196.702 38.019 196.589 38.019Z" fill="white"/>
<path d="M197.721 38.3746C197.696 38.3746 197.671 38.3746 197.646 38.3619C197.507 38.3238 197.432 38.1714 197.469 38.0316C197.872 36.7106 197.13 35.3133 195.834 34.9068C195.695 34.8687 195.62 34.7163 195.657 34.5765C195.695 34.4368 195.846 34.3606 195.985 34.3987C197.57 34.8941 198.464 36.5835 197.973 38.1841C197.935 38.2984 197.834 38.3746 197.721 38.3746Z" fill="white"/>
<path d="M198.753 38.6923C198.728 38.6923 198.703 38.6923 198.678 38.6796C198.539 38.6415 198.464 38.489 198.502 38.3493C198.779 37.4347 198.69 36.4566 198.25 35.6056C197.81 34.7545 197.055 34.1321 196.148 33.8526C196.01 33.8145 195.935 33.6621 195.972 33.5223C196.01 33.3826 196.161 33.3064 196.3 33.3445C197.344 33.6748 198.2 34.3861 198.716 35.3642C199.232 36.3423 199.332 37.4601 199.005 38.5145C198.98 38.6288 198.867 38.6923 198.753 38.6923Z" fill="white"/>
<path d="M180.922 41.3215L172.289 45.9453C171.874 46.1739 171.71 46.6947 171.937 47.1139C172.163 47.5331 172.679 47.6982 173.094 47.4696L181.727 42.8459C182.142 42.6172 182.306 42.0964 182.079 41.6772C181.865 41.258 181.337 41.0929 180.922 41.3215Z" fill="#FF5B97"/>
<path d="M198.199 58.2286L195.456 38.8063C195.305 37.752 194.349 37.028 193.304 37.1804L160.208 41.9439C159.163 42.0963 158.446 43.0617 158.597 44.116L161.341 63.5382C161.492 64.5926 162.448 65.3166 163.492 65.1642L196.589 60.4007C197.62 60.2483 198.35 59.2702 198.199 58.2286Z" fill="#0097FF"/>
<path opacity="0.45" d="M192.33 47.9572C193.724 46.3456 193.56 43.8981 191.964 42.4906C190.367 41.0831 187.943 41.2486 186.548 42.8602C185.154 44.4718 185.318 46.9193 186.914 48.3268C188.511 49.7343 190.936 49.5689 192.33 47.9572Z" fill="white"/>
<path opacity="0.45" d="M194.248 56.4883L193.581 56.5899C193.392 56.6153 193.229 56.4883 193.204 56.2977L193.015 54.9894C192.99 54.7988 193.116 54.6337 193.304 54.6083L193.971 54.5066C194.16 54.4812 194.324 54.6083 194.349 54.7988L194.538 56.1072C194.563 56.285 194.437 56.4629 194.248 56.4883Z" fill="white"/>
<path opacity="0.45" d="M192.549 56.7297L191.882 56.8313C191.693 56.8567 191.53 56.7297 191.505 56.5392L191.316 55.2308C191.291 55.0403 191.417 54.8751 191.605 54.8497L192.272 54.7481C192.461 54.7227 192.625 54.8497 192.65 55.0403L192.839 56.3486C192.864 56.5265 192.738 56.7043 192.549 56.7297Z" fill="white"/>
<path opacity="0.45" d="M190.851 56.9712L190.184 57.0728C189.995 57.0982 189.831 56.9712 189.806 56.7807L189.617 55.4723C189.592 55.2817 189.718 55.1166 189.907 55.0912L190.574 54.9896C190.762 54.9642 190.926 55.0912 190.951 55.2817L191.14 56.5901C191.165 56.7807 191.039 56.9458 190.851 56.9712Z" fill="white"/>
<path opacity="0.45" d="M189.164 57.2124L188.497 57.314C188.308 57.3394 188.145 57.2124 188.119 57.0218L187.931 55.7135C187.906 55.5229 188.031 55.3578 188.22 55.3324L188.887 55.2308C189.076 55.2054 189.239 55.3324 189.265 55.5229L189.453 56.8313C189.466 57.0218 189.34 57.187 189.164 57.2124Z" fill="white"/>
<path opacity="0.45" d="M186.433 57.6062L185.766 57.7078C185.577 57.7332 185.414 57.6062 185.388 57.4156L185.2 56.1073C185.175 55.9167 185.3 55.7516 185.489 55.7262L186.156 55.6246C186.345 55.5992 186.509 55.7262 186.534 55.9167L186.722 57.2251C186.748 57.4156 186.622 57.5808 186.433 57.6062Z" fill="white"/>
<path opacity="0.45" d="M184.734 57.8603L184.067 57.962C183.878 57.9874 183.715 57.8603 183.69 57.6698L183.501 56.3614C183.476 56.1709 183.601 56.0057 183.79 55.9803L184.457 55.8787C184.646 55.8533 184.81 55.9803 184.835 56.1709L185.023 57.4793C185.049 57.6571 184.923 57.8222 184.734 57.8603Z" fill="white"/>
<path opacity="0.45" d="M183.048 58.1015L182.381 58.2032C182.192 58.2286 182.029 58.1015 182.004 57.911L181.815 56.6026C181.79 56.4121 181.916 56.247 182.104 56.2216L182.771 56.1199C182.96 56.0945 183.124 56.2216 183.149 56.4121L183.338 57.7205C183.35 57.8983 183.224 58.0761 183.048 58.1015Z" fill="white"/>
<path opacity="0.45" d="M181.35 58.343L180.683 58.4446C180.494 58.47 180.33 58.343 180.305 58.1524L180.116 56.8441C180.091 56.6535 180.217 56.4884 180.406 56.463L181.073 56.3614C181.261 56.336 181.425 56.463 181.45 56.6535L181.639 57.9619C181.664 58.1397 181.526 58.3175 181.35 58.343Z" fill="white"/>
<path opacity="0.45" d="M178.618 58.7365L177.951 58.8382C177.763 58.8636 177.599 58.7365 177.574 58.546L177.385 57.2376C177.36 57.0471 177.486 56.882 177.674 56.8566L178.341 56.7549C178.53 56.7295 178.694 56.8566 178.719 57.0471L178.908 58.3555C178.933 58.5333 178.807 58.7111 178.618 58.7365Z" fill="white"/>
<path opacity="0.45" d="M176.932 58.978L176.265 59.0796C176.076 59.105 175.913 58.978 175.888 58.7875L175.699 57.4791C175.674 57.2886 175.799 57.1234 175.988 57.098L176.655 56.9964C176.844 56.971 177.007 57.098 177.033 57.2886L177.221 58.5969C177.234 58.7747 177.108 58.9526 176.932 58.978Z" fill="white"/>
<path opacity="0.45" d="M175.233 59.2192L174.566 59.3208C174.378 59.3463 174.214 59.2192 174.189 59.0287L174 57.7203C173.975 57.5298 174.101 57.3646 174.289 57.3392L174.956 57.2376C175.145 57.2122 175.309 57.3392 175.334 57.5298L175.523 58.8381C175.548 59.0287 175.409 59.1938 175.233 59.2192Z" fill="white"/>
<path opacity="0.45" d="M173.534 59.4734L172.867 59.575C172.679 59.6004 172.515 59.4734 172.49 59.2828L172.301 57.9744C172.276 57.7839 172.402 57.6188 172.59 57.5934L173.257 57.4918C173.446 57.4663 173.61 57.5934 173.635 57.7839L173.824 59.0923C173.849 59.2701 173.723 59.4352 173.534 59.4734Z" fill="white"/>
<path opacity="0.45" d="M170.816 59.8545L170.149 59.9561C169.961 59.9815 169.797 59.8545 169.772 59.6639L169.583 58.3556C169.558 58.165 169.684 57.9999 169.872 57.9745L170.539 57.8729C170.728 57.8475 170.892 57.9745 170.917 58.165L171.106 59.4734C171.118 59.6639 170.992 59.8291 170.816 59.8545Z" fill="white"/>
<path opacity="0.45" d="M169.117 60.1084L168.45 60.21C168.262 60.2354 168.098 60.1084 168.073 59.9179L167.884 58.6095C167.859 58.4189 167.985 58.2538 168.174 58.2284L168.84 58.1268C169.029 58.1014 169.193 58.2284 169.218 58.4189L169.407 59.7273C169.432 59.9052 169.294 60.083 169.117 60.1084Z" fill="white"/>
<path opacity="0.45" d="M167.419 60.3498L166.752 60.4514C166.563 60.4768 166.399 60.3498 166.374 60.1593L166.185 58.8509C166.16 58.6604 166.286 58.4952 166.475 58.4698L167.142 58.3682C167.331 58.3428 167.494 58.4698 167.519 58.6604L167.708 59.9687C167.733 60.1466 167.607 60.3244 167.419 60.3498Z" fill="white"/>
<path opacity="0.45" d="M165.72 60.5913L165.053 60.6929C164.864 60.7183 164.7 60.5913 164.675 60.4008L164.486 59.0924C164.461 58.9018 164.587 58.7367 164.776 58.7113L165.443 58.6097C165.631 58.5843 165.795 58.7113 165.82 58.9018L166.009 60.2102C166.034 60.3881 165.908 60.5659 165.72 60.5913Z" fill="white"/>
<path opacity="0.45" d="M175.907 44.4466L162.688 46.3496L162.927 48.0347L176.145 46.1317L175.907 44.4466Z" fill="white"/>
<path opacity="0.45" d="M170.5 48.861L163.187 49.9138L163.425 51.599L170.738 50.5461L170.5 48.861Z" fill="white"/>
<path d="M73.1261 15.6497C73.1261 11.9532 71.3014 10.1113 67.6394 10.1113C71.3014 10.1113 73.1261 8.26945 73.1261 4.573C73.1261 8.26945 74.9508 10.1113 78.6127 10.1113C74.9633 10.1113 73.1261 11.9532 73.1261 15.6497Z" fill="white"/>
<path d="M216.046 61.5261C219.078 58.4654 220.118 54.5526 218.368 52.7867C216.619 51.0207 212.743 52.0703 209.71 55.131C206.678 58.1917 205.638 62.1045 207.388 63.8704C209.138 65.6364 213.014 64.5868 216.046 61.5261Z" fill="white"/>
<path d="M18.8456 66.0691C21.922 62.9638 23.5793 59.6019 22.5473 58.5602C21.5152 57.5184 18.1847 59.1913 15.1084 62.2967C12.032 65.402 10.3747 68.7639 11.4067 69.8057C12.4387 70.8474 15.7692 69.1745 18.8456 66.0691Z" fill="white"/>
<path d="M145.157 27.7171C145.157 25.7227 144.176 24.7319 142.2 24.7319C144.176 24.7319 145.157 23.7411 145.157 21.7468C145.157 23.7411 146.139 24.7319 148.115 24.7319C146.152 24.7319 145.157 25.7227 145.157 27.7171Z" fill="white"/>
<path d="M40.2569 4.71473C41.2056 3.37275 40.897 1.5085 39.5676 0.550807C38.2381 -0.406882 36.3912 -0.0953488 35.4425 1.24664C34.4937 2.58862 34.8024 4.45287 36.1318 5.41056C37.4613 6.36825 39.3081 6.05672 40.2569 4.71473Z" fill="white"/>
<path d="M229.043 132.78C229.043 130.786 228.061 129.795 226.085 129.795C228.061 129.795 229.043 128.804 229.043 126.81C229.043 128.804 230.024 129.795 232 129.795C230.024 129.795 229.043 130.786 229.043 132.78Z" fill="white"/>
<path d="M130.937 171.523H77.6941C73.6672 171.523 70.408 168.233 70.408 164.168V42.5919C70.408 38.527 73.6672 35.2371 77.6941 35.2371H130.937C134.964 35.2371 138.224 38.527 138.224 42.5919V164.181C138.224 168.233 134.964 171.523 130.937 171.523Z" fill="#2A1E68"/>
<path d="M136.915 171.51H83.6714C79.6445 171.51 76.3853 168.22 76.3853 164.155V42.5789C76.3853 38.5141 79.6445 35.2241 83.6714 35.2241H136.915C140.942 35.2241 144.201 38.5141 144.201 42.5789V164.168C144.201 168.22 140.942 171.51 136.915 171.51Z" fill="#482D98"/>
<path d="M83.6713 36.7739H136.915C140.086 36.7739 142.665 39.378 142.665 42.579V164.168C142.665 167.369 140.086 169.973 136.915 169.973H83.6713C80.5001 169.973 77.9204 167.369 77.9204 164.168V42.579C77.9204 39.378 80.5001 36.7739 83.6713 36.7739Z" fill="white"/>
<path opacity="0.13" d="M99.1012 57.1118C99.7481 53.0885 97.0413 49.2975 93.0554 48.6445C89.0696 47.9916 85.314 50.7238 84.6671 54.7472C84.0202 58.7706 86.727 62.5616 90.7129 63.2145C94.6987 63.8675 98.4543 61.1352 99.1012 57.1118Z" fill="#482D98"/>
<g opacity="0.5">
<g opacity="0.5">
<g opacity="0.5">
<path opacity="0.5" d="M134.763 54.2782H104.322C103.907 54.2782 103.567 53.9352 103.567 53.516C103.567 53.0969 103.907 52.7539 104.322 52.7539H134.763C135.178 52.7539 135.518 53.0969 135.518 53.516C135.518 53.9352 135.178 54.2782 134.763 54.2782Z" fill="#DEE4F6"/>
</g>
<g opacity="0.5">
<path opacity="0.5" d="M127.313 59.0925H104.322C103.907 59.0925 103.567 58.7495 103.567 58.3303C103.567 57.9111 103.907 57.5681 104.322 57.5681H127.313C127.728 57.5681 128.068 57.9111 128.068 58.3303C128.068 58.7622 127.728 59.0925 127.313 59.0925Z" fill="#DEE4F6"/>
</g>
</g>
</g>
<path d="M102.736 43.0108H117.85C118.467 43.0108 118.97 42.5027 118.97 41.8803C118.97 41.2579 118.467 40.7498 117.85 40.7498H102.736C102.12 40.7498 101.616 41.2579 101.616 41.8803C101.629 42.5027 102.12 43.0108 102.736 43.0108Z" fill="#482D98"/>
<path d="M136.034 132.78H84.5649V149.916H136.034V132.78Z" fill="#4A70FF"/>
<path opacity="0.6" d="M220.309 91.23H202.553C201.685 91.23 200.993 91.9413 200.993 92.8051V100.198V101.494V106.079L203.975 103.069H220.309C221.178 103.069 221.87 102.357 221.87 101.494V92.8051C221.87 91.9286 221.165 91.23 220.309 91.23Z" fill="#BEC9ED"/>
<path opacity="0.6" d="M31.1383 86.4412H51.7006C52.6948 86.4412 53.5128 87.2541 53.5128 88.2703V96.8319V98.3435V103.653L50.0647 100.173H31.1383C30.1441 100.173 29.3262 99.3597 29.3262 98.3435V88.2703C29.3262 87.2668 30.1316 86.4412 31.1383 86.4412Z" fill="#BEC9ED"/>
<path d="M29.1498 84.5103H49.7121C50.7063 84.5103 51.5242 85.3232 51.5242 86.3394V96.4125C51.5242 97.416 50.7189 98.2417 49.7121 98.2417H29.1498C28.1556 98.2417 27.3376 97.4287 27.3376 96.4125V86.3394C27.3376 85.3232 28.143 84.5103 29.1498 84.5103Z" fill="#FF5B97"/>
<path d="M51.5242 94.8884V101.71L46.8555 96.9971L51.5242 94.8884Z" fill="#FF5B97"/>
<path d="M43.6586 92.7415C44.4092 92.7415 45.0177 92.1273 45.0177 91.3697C45.0177 90.612 44.4092 89.9978 43.6586 89.9978C42.908 89.9978 42.2996 90.612 42.2996 91.3697C42.2996 92.1273 42.908 92.7415 43.6586 92.7415Z" fill="white"/>
<path d="M39.4306 92.7415C40.1812 92.7415 40.7897 92.1273 40.7897 91.3697C40.7897 90.612 40.1812 89.9978 39.4306 89.9978C38.68 89.9978 38.0715 90.612 38.0715 91.3697C38.0715 92.1273 38.68 92.7415 39.4306 92.7415Z" fill="white"/>
<path d="M35.2023 92.7415C35.9529 92.7415 36.5614 92.1273 36.5614 91.3697C36.5614 90.612 35.9529 89.9978 35.2023 89.9978C34.4517 89.9978 33.8433 90.612 33.8433 91.3697C33.8433 92.1273 34.4517 92.7415 35.2023 92.7415Z" fill="white"/>
<path d="M218.812 89.7183H201.056C200.188 89.7183 199.496 90.4296 199.496 91.2934V99.9819C199.496 100.858 200.2 101.557 201.056 101.557H218.812C219.681 101.557 220.373 100.846 220.373 99.9819V91.2934C220.373 90.4296 219.681 89.7183 218.812 89.7183Z" fill="#FBAA00"/>
<path d="M199.496 98.6863V104.58L203.523 100.503L199.496 98.6863Z" fill="#FBAA00"/>
<path d="M207.109 96.4872C207.566 96.0258 207.566 95.2779 207.109 94.8165C206.652 94.3552 205.911 94.3552 205.454 94.8166C204.997 95.2779 204.997 96.0258 205.454 96.4872C205.911 96.9485 206.652 96.9485 207.109 96.4872Z" fill="white"/>
<path d="M211.082 95.9365C211.23 95.3015 210.841 94.6653 210.212 94.5153C209.583 94.3654 208.952 94.7586 208.804 95.3935C208.655 96.0285 209.045 96.6648 209.674 96.8147C210.303 96.9646 210.933 96.5714 211.082 95.9365Z" fill="white"/>
<path d="M214.409 96.4882C214.866 96.0268 214.866 95.2788 214.409 94.8175C213.952 94.3562 213.211 94.3562 212.754 94.8175C212.297 95.2789 212.297 96.0268 212.754 96.4882C213.211 96.9495 213.952 96.9495 214.409 96.4882Z" fill="white"/>
<path d="M146.182 171.505H157.143V107.509H146.182V171.505Z" fill="#452B99"/>
<path d="M146.152 131.408L146.164 120.852L154.482 119.125L146.29 136.222L146.152 131.408Z" fill="#2A1E68"/>
<path d="M157.15 110.233H144.227V123.279H145.938C152.129 123.279 157.15 118.21 157.15 111.96V110.233Z" fill="#452B99"/>
<path d="M161.869 102.18C160.988 102.18 160.132 101.9 159.415 101.392L149.725 94.4182C147.825 93.0464 147.372 90.3788 148.731 88.448C150.09 86.5172 152.733 86.0727 154.646 87.4445L163.039 93.4783L172.641 92.4747C174.969 92.2334 177.045 93.9355 177.297 96.2855C177.536 98.6355 175.85 100.731 173.522 100.985L162.335 102.154C162.158 102.167 162.02 102.18 161.869 102.18Z" fill="#0885F1"/>
<path d="M131.957 171.51H142.918L148.065 107.514H137.104L131.957 171.51Z" fill="#452B99"/>
<path d="M146.29 119.658C152.28 119.658 157.15 114.755 157.15 108.696V94.5959C157.15 88.5494 152.293 83.6335 146.29 83.6335C140.3 83.6335 135.43 88.5367 135.43 94.5959V108.708C135.43 114.755 140.3 119.658 146.29 119.658Z" fill="#0885F1"/>
<path d="M151.664 165.273C155.074 165.273 157.842 168.068 157.842 171.51H145.485C145.485 168.068 148.253 165.273 151.664 165.273Z" fill="#2A1E68"/>
<path d="M137.431 165.273C140.841 165.273 143.609 168.068 143.609 171.51H131.252C131.252 168.068 134.02 165.273 137.431 165.273Z" fill="#2A1E68"/>
<path d="M151.789 88.9817C151.399 88.9817 150.997 88.8293 150.695 88.5244L147.838 85.6409C147.234 85.0312 147.234 84.0404 147.838 83.4307C148.442 82.821 149.424 82.821 150.028 83.4307L152.884 86.3142C153.488 86.9239 153.488 87.9147 152.884 88.5244C152.582 88.8293 152.192 88.9817 151.789 88.9817Z" fill="white"/>
<path d="M144.969 83.1764V85.5644C144.969 87.2412 146.239 88.6003 147.863 88.7401C147.951 88.7528 148.039 88.7528 148.127 88.7528C149.876 88.7528 151.286 87.3301 151.286 85.5644V83.1764C151.286 81.4107 149.876 79.988 148.127 79.988C146.378 79.988 144.969 81.4107 144.969 83.1764Z" fill="#FFACAD"/>
<path d="M144.969 83.6335V85.5643C144.969 87.241 146.24 88.6002 147.863 88.7399V83.6462H144.969V83.6335Z" fill="#FF9099"/>
<path d="M153.76 82.5491C156.871 79.4091 156.871 74.318 153.76 71.1779C150.649 68.0379 145.605 68.0379 142.495 71.1779C139.384 74.318 139.384 79.4091 142.495 82.5491C145.605 85.6892 150.649 85.6892 153.76 82.5491Z" fill="#FFACAD"/>
<path d="M148.127 68.8225C148.543 68.8225 148.945 68.8606 149.335 68.9241C145.51 69.5084 142.578 72.8365 142.578 76.8632C142.578 80.89 145.51 84.218 149.335 84.8024C148.945 84.8659 148.543 84.904 148.127 84.904C143.723 84.904 140.162 81.3091 140.162 76.8632C140.162 72.4173 143.723 68.8225 148.127 68.8225Z" fill="#FF9099"/>
<path d="M146.038 88.9817C145.648 88.9817 145.245 88.8293 144.943 88.5244L142.087 85.6409C141.483 85.0312 141.483 84.0404 142.087 83.4307C142.691 82.821 143.672 82.821 144.276 83.4307L147.133 86.3142C147.737 86.9239 147.737 87.9147 147.133 88.5244C146.831 88.8293 146.428 88.9817 146.038 88.9817Z" fill="white"/>
<path d="M142.578 76.0249C145.045 76.0249 147.045 74.006 147.045 71.5155C147.045 69.025 145.045 67.0061 142.578 67.0061C140.11 67.0061 138.11 69.025 138.11 71.5155C138.11 74.006 140.11 76.0249 142.578 76.0249Z" fill="#1F143F"/>
<path d="M144.604 74.1449H155.753C157.666 74.1449 159.214 72.5825 159.214 70.6517V70.4993C159.214 68.5685 157.666 67.0061 155.753 67.0061H144.604V74.1449Z" fill="#1F143F"/>
<path d="M155.959 67.5224C156.614 64.7232 154.897 61.9181 152.123 61.2571C149.35 60.5961 146.571 62.3295 145.917 65.1288C145.262 67.928 146.979 70.7331 149.752 71.3941C152.525 72.0551 155.304 70.3217 155.959 67.5224Z" fill="#1F143F"/>
<path d="M147.304 68.9516C148.385 67.8603 148.385 66.0909 147.304 64.9996C146.223 63.9082 144.47 63.9082 143.389 64.9996C142.307 66.0909 142.307 67.8603 143.389 68.9516C144.47 70.043 146.223 70.043 147.304 68.9516Z" fill="#1F143F"/>
<path d="M141.357 79.5689C143.15 79.5689 144.604 78.1016 144.604 76.2917C144.604 74.4817 143.15 73.0144 141.357 73.0144C139.564 73.0144 138.11 74.4817 138.11 76.2917C138.11 78.1016 139.564 79.5689 141.357 79.5689Z" fill="#1F143F"/>
<path d="M142.93 79.099C144.285 79.099 145.384 77.99 145.384 76.622C145.384 75.254 144.285 74.145 142.93 74.145C141.575 74.145 140.476 75.254 140.476 76.622C140.476 77.99 141.575 79.099 142.93 79.099Z" fill="#FFACAD"/>
<path d="M145.573 77.6255H145.598C145.925 77.6255 146.202 77.3588 146.202 77.0158V74.145H144.969V77.0158C144.969 77.3588 145.245 77.6255 145.573 77.6255Z" fill="#1F143F"/>
<path d="M146.655 76.6472C147.579 76.6472 148.329 75.8908 148.329 74.9578C148.329 74.0247 147.579 73.2683 146.655 73.2683C145.731 73.2683 144.981 74.0247 144.981 74.9578C144.981 75.8908 145.731 76.6472 146.655 76.6472Z" fill="#1F143F"/>
<path d="M149.185 111.795C148.58 111.795 147.964 111.668 147.385 111.389L132.07 104.098C130.95 103.564 130.12 102.573 129.792 101.367C129.465 100.172 129.667 98.8768 130.359 97.8479L136.512 88.5623C137.809 86.5935 140.439 86.0726 142.389 87.381C144.34 88.6894 144.856 91.3442 143.559 93.3131L140.149 98.4703L151.022 103.64C153.136 104.644 154.042 107.197 153.048 109.331C152.293 110.881 150.77 111.795 149.185 111.795Z" fill="#80C4FF"/>
<path d="M149.663 113.015C152.672 113.015 155.111 110.552 155.111 107.514C155.111 104.477 152.672 102.014 149.663 102.014C146.653 102.014 144.214 104.477 144.214 107.514C144.214 110.552 146.653 113.015 149.663 113.015Z" fill="#FFACAD"/>
<path d="M176.957 110.792C176.856 110.792 176.756 110.741 176.705 110.64C175.95 109.179 176.101 107.616 176.265 106.105C176.441 104.415 176.605 102.815 175.522 101.392C174.679 100.274 173.006 99.4612 171.168 99.2707C169.193 99.0547 167.078 99.6264 166.147 100.604C164.939 101.887 165.619 103.513 166.412 104.669C167.896 106.854 168.752 108.391 168.991 110.309C169.016 110.474 168.903 110.614 168.74 110.64C168.576 110.665 168.438 110.551 168.412 110.385C168.186 108.582 167.368 107.108 165.921 105C164.637 103.12 164.562 101.417 165.719 100.211C166.776 99.0929 169.042 98.4704 171.219 98.6991C173.207 98.915 175.032 99.8169 175.975 101.049C177.196 102.662 177.007 104.441 176.831 106.181C176.68 107.667 176.529 109.064 177.209 110.385C177.284 110.525 177.234 110.703 177.083 110.779C177.045 110.779 177.007 110.792 176.957 110.792Z" fill="#2A1E68"/>
<path d="M188.044 107.032H163.756L167.406 142.281H191.693L188.044 107.032Z" fill="#FFD64A"/>
<path d="M163.756 107.032H160.333L156.684 142.281H167.406L163.756 107.032Z" fill="#FBAA00"/>
<path d="M179.109 110.627C179.197 111.363 179.738 111.91 180.304 111.833C180.871 111.757 181.273 111.109 181.173 110.373C181.085 109.636 180.544 109.09 179.977 109.166C179.411 109.229 179.021 109.89 179.109 110.627Z" fill="#FBAA00"/>
<path d="M170.829 110.627C170.917 111.363 171.458 111.91 172.024 111.833C172.59 111.757 172.993 111.109 172.892 110.373C172.804 109.636 172.263 109.09 171.697 109.166C171.131 109.229 170.74 109.89 170.829 110.627Z" fill="#FBAA00"/>
<path d="M180.103 110.817C179.977 110.817 179.851 110.741 179.814 110.601C179.235 108.912 179.6 107.108 179.939 105.368C180.33 103.386 180.695 101.519 179.788 99.8549C179.096 98.572 177.549 97.632 175.749 97.416C173.811 97.1747 171.634 97.8225 170.577 98.9785C169.105 100.579 169.772 102.675 170.313 103.78C171.533 106.308 172.188 108.112 172.188 110.335C172.188 110.512 172.049 110.652 171.873 110.652C171.697 110.652 171.559 110.512 171.559 110.335C171.559 108.226 170.917 106.511 169.746 104.059C168.715 101.9 168.84 99.9438 170.124 98.5593C171.319 97.2509 173.66 96.5395 175.825 96.8063C177.813 97.0604 179.537 98.1147 180.33 99.5755C181.349 101.443 180.934 103.513 180.544 105.508C180.204 107.248 179.877 108.886 180.393 110.423C180.443 110.589 180.367 110.766 180.204 110.817C180.166 110.805 180.128 110.817 180.103 110.817Z" fill="#452B99"/>
<path opacity="0.45" d="M178.746 134.208C182.088 133.586 184.123 129.385 183.29 124.825C182.457 120.265 179.072 117.072 175.73 117.694C172.388 118.316 170.354 122.517 171.187 127.077C172.02 131.637 175.404 134.83 178.746 134.208Z" fill="white"/>
<path d="M36.1918 31.896H34.5181C34.3797 31.896 34.2539 31.9849 34.2161 32.1246L34.0777 32.6073H27.2445C27.1439 32.6073 27.0558 32.6454 27.0054 32.7217C26.9425 32.7979 26.9173 32.8868 26.9425 32.9884L27.7101 36.7611C27.7353 36.9135 27.8737 37.0151 28.0122 37.0151H32.8319L32.555 37.9805H28.2261C28.0499 37.9805 27.9115 38.1203 27.9115 38.2981C27.9115 38.4759 28.0499 38.6157 28.2261 38.6157H32.7941C32.9325 38.6157 33.0584 38.5267 33.0961 38.387L34.7446 32.5438H36.1918C36.368 32.5438 36.5064 32.4041 36.5064 32.2263C36.5064 32.0484 36.368 31.896 36.1918 31.896ZM28.2638 36.38L27.622 33.2425H33.8889L33.008 36.38H28.2638Z" fill="white"/>
<path d="M32.5929 39.9113C32.7667 39.9113 32.9075 39.7691 32.9075 39.5937C32.9075 39.4183 32.7667 39.2761 32.5929 39.2761C32.4192 39.2761 32.2783 39.4183 32.2783 39.5937C32.2783 39.7691 32.4192 39.9113 32.5929 39.9113Z" fill="white"/>
<path d="M28.2011 39.9113C28.3748 39.9113 28.5157 39.7691 28.5157 39.5937C28.5157 39.4183 28.3748 39.2761 28.2011 39.2761C28.0273 39.2761 27.8865 39.4183 27.8865 39.5937C27.8865 39.7691 28.0273 39.9113 28.2011 39.9113Z" fill="white"/>
<path d="M51.8589 40.1908C51.7834 40.1908 51.6953 40.1654 51.6324 40.1019L48.1969 36.6214C48.0711 36.4944 48.0711 36.2911 48.1969 36.1768L52.2364 32.0993C52.2867 32.0485 52.3623 32.0104 52.4378 32.0104L54.9923 31.8071C55.0804 31.7944 55.1685 31.8325 55.2314 31.896L56.2256 32.8614C56.2885 32.925 56.3262 33.0139 56.3262 33.1028L56.2256 35.8338C56.2256 35.9101 56.1878 35.9863 56.1375 36.0498L52.098 40.1273C52.0225 40.1654 51.947 40.1908 51.8589 40.1908ZM48.8639 36.3928L51.8715 39.4287L55.6089 35.656L55.697 33.1917L54.9042 32.4296L52.6014 32.6201L48.8639 36.3928Z" fill="white"/>
<path d="M56.4018 35.1607C56.213 35.1607 56.0117 35.1226 55.8355 35.0591C55.6719 35.0082 55.5838 34.8177 55.6467 34.6526C55.7096 34.4874 55.8858 34.3985 56.0494 34.462C56.1627 34.5001 56.2885 34.5256 56.4143 34.5256C57.031 34.5256 57.5217 34.0175 57.5217 33.4077C57.5217 32.7853 57.0184 32.2899 56.4143 32.2899C55.7977 32.2899 55.3069 32.798 55.3069 33.4077C55.3069 33.5856 55.1685 33.7253 54.9923 33.7253C54.8162 33.7253 54.6777 33.5856 54.6777 33.4077C54.6777 32.4423 55.4579 31.6548 56.4143 31.6548C57.3707 31.6548 58.1509 32.4423 58.1509 33.4077C58.1509 34.3731 57.3707 35.1607 56.4018 35.1607Z" fill="white"/>
<path d="M76.9266 37.3455H75.6305C75.4795 37.3455 75.3662 37.2185 75.3662 37.0788C75.3662 36.939 75.492 36.812 75.6305 36.812H76.9266C77.0776 36.812 77.1909 36.939 77.1909 37.0788C77.1909 37.2185 77.0651 37.3455 76.9266 37.3455Z" fill="white"/>
<path d="M77.3795 35.7576H76.2721C76.1211 35.7576 76.0078 35.6306 76.0078 35.4909C76.0078 35.3384 76.1337 35.2241 76.2721 35.2241H77.3795C77.5305 35.2241 77.6437 35.3511 77.6437 35.4909C77.6563 35.6306 77.5305 35.7576 77.3795 35.7576Z" fill="white"/>
<path d="M100.937 145.622H99.2129V137.442H103.001C103.856 137.442 104.511 137.696 105.002 138.191C105.48 138.699 105.719 139.322 105.719 140.071C105.719 140.821 105.48 141.443 104.989 141.951C104.498 142.459 103.844 142.713 103.001 142.713H100.937V145.622ZM102.774 141.189C103.127 141.189 103.403 141.088 103.63 140.884C103.856 140.681 103.97 140.414 103.97 140.084C103.97 139.754 103.856 139.487 103.63 139.284C103.403 139.081 103.127 138.979 102.774 138.979H100.937V141.189H102.774Z" fill="white"/>
<path d="M114.339 145.622H112.376L111.873 144.238H108.399L107.884 145.622H105.92L109.054 137.442H111.218L114.339 145.622ZM111.407 142.701L110.149 139.182L108.89 142.701H111.407Z" fill="white"/>
<path d="M119.083 145.622H117.359V142.282L114.238 137.455H116.201L118.215 140.745L120.203 137.455H122.166L119.071 142.282V145.622H119.083Z" fill="white"/>
<g opacity="0.3">
<g opacity="0.3">
<path opacity="0.3" d="M108.814 118.502C99.024 118.502 91.0708 110.461 91.0708 100.592C91.0708 90.7216 99.0365 82.6809 108.814 82.6809C112.074 82.6809 115.257 83.5828 118.026 85.2849C118.768 85.7422 119.007 86.7203 118.554 87.4698C118.101 88.2192 117.132 88.4606 116.39 88.0033C114.112 86.606 111.495 85.8693 108.814 85.8693C100.761 85.8693 94.2168 92.4873 94.2168 100.604C94.2168 108.734 100.773 115.339 108.814 115.339C116.856 115.339 123.412 108.721 123.412 100.604C123.412 99.2959 123.248 98.0129 122.909 96.7681C122.682 95.917 123.185 95.0532 124.016 94.8246C124.859 94.5959 125.715 95.104 125.941 95.9424C126.344 97.454 126.545 99.0291 126.545 100.604C126.558 110.461 118.605 118.502 108.814 118.502Z" fill="#72C46A"/>
</g>
<g opacity="0.3">
<path opacity="0.3" d="M109.607 106.409H109.595C109.142 106.409 108.714 106.206 108.412 105.85L100.685 96.7681C100.119 96.1076 100.194 95.1041 100.849 94.5325C101.503 93.9608 102.497 94.0371 103.064 94.6976L109.62 102.395L127.879 81.7029C128.458 81.0423 129.452 80.9915 130.094 81.5759C130.749 82.1602 130.799 83.1637 130.22 83.8115L110.778 105.889C110.476 106.219 110.048 106.409 109.607 106.409Z" fill="#72C46A"/>
</g>
</g>
</g>
<defs>
<clipPath id="clip0">
<rect width="232" height="174" fill="white"/>
</clipPath>
</defs>
</svg>
