<svg class="icon-logo" width="148.37px" height="48px" viewBox="0 0 161 52" fill="none" xmlns="http://www.w3.org/2000/svg">
<path d="M55.7363 40.7751V5.86963H69.4837C75.6645 5.86963 78.7471 8.34508 78.7471 13.3116V16.9235C78.7471 19.5858 77.4549 21.4696 74.8861 22.575C78.2645 23.3068 79.9615 25.4553 79.9615 29.0206V32.7571C79.9615 38.0972 76.7855 40.7751 70.4178 40.7751H55.7363ZM72.1459 14.1523C72.1459 12.2529 70.9938 11.3187 68.6896 11.3187H62.3375V20.4888H68.6429C70.9783 20.4888 72.1459 19.399 72.1459 17.2349V14.1523ZM73.3447 29.2852C73.3447 26.9499 72.1304 25.7822 69.6861 25.7822H62.3375V35.326H69.0944C71.928 35.326 73.3447 34.1894 73.3447 31.9164V29.2852Z" fill="#110E22"/>
<path d="M107.363 32.2743C107.363 38.2839 104.545 41.2887 98.909 41.2887C96.6982 41.2887 94.4251 41.0552 92.1054 40.5726V51.0971L85.7065 52.0001V15.2576H90.7976L91.4048 17.4061C93.8802 15.6156 96.5736 14.7126 99.485 14.7126C104.716 14.7126 107.347 17.6707 107.347 23.5713V32.2743H107.363ZM92.1054 35.1702C94.1916 35.6217 96.0754 35.8396 97.7569 35.8396C99.8898 35.8396 100.948 34.7031 100.948 32.43V23.4157C100.948 21.2516 99.9054 20.1618 97.8036 20.1618C95.6551 20.1618 93.7557 20.9246 92.0898 22.4659V35.1702H92.1054Z" fill="#110E22"/>
<path d="M131.465 41.2499H126.218L125.751 39.5061C123.463 41.0008 120.925 41.7636 118.154 41.7636C115.912 41.7636 114.23 41.063 113.078 39.6463C112.02 38.3229 111.49 36.5014 111.49 34.1972C111.49 29.4019 113.966 27.0043 118.932 27.0043H125.051V24.3109C125.051 22.8474 124.755 21.851 124.148 21.3373C123.478 20.7768 122.155 20.4965 120.178 20.4965C117.967 20.4965 115.6 20.7612 113.094 21.2906L112.331 16.4019C114.978 15.5923 117.889 15.2031 121.081 15.2031C124.988 15.2031 127.713 15.9504 129.27 17.4295C130.718 18.7995 131.45 21.1349 131.45 24.4355V41.2499H131.465ZM125.066 31.5972H120.364C118.59 31.5972 117.702 32.4379 117.702 34.1037C117.702 35.8319 118.559 36.6882 120.256 36.6882C121.921 36.6882 123.525 36.2523 125.066 35.3804V31.5972Z" fill="#110E22"/>
<path d="M152.559 40.775L149.15 51.0971H143.078L146.254 40.775H143.996L135.932 15.2576H142.486L148.293 34.6253L154.178 15.2576H160.733L152.559 40.775Z" fill="#110E22"/>
<path d="M41.7091 24.8635L38.9223 21.2671C40.1366 20.333 41.4444 18.2779 41.4444 16.5964V15.9892C41.4444 9.68385 36.3067 4.54612 30.0013 4.54612H11.4276L15.818 9.01439H9.38808L0.825195 0H29.9857C38.7977 0 45.975 7.17726 45.975 15.9892V16.5964C45.9905 20.006 43.7797 23.2755 41.7091 24.8635Z" fill="#03CB83"/>
<path d="M30.0012 46.5353H0.653809L9.68376 37.4898L16.0981 37.5054L11.6143 41.9892H30.0012C36.3065 41.9892 41.4443 36.8515 41.4443 30.5461V29.9389C41.4443 28.273 39.903 25.6886 39.3269 25.2215C39.3269 25.2215 39.3425 25.2371 39.3736 25.2527L41.7868 21.3916C43.1257 22.2168 44.2 24.1473 44.6048 24.9413C45.1185 25.9533 45.9904 27.9617 45.9904 29.9233V30.5305C45.9904 39.3581 38.8287 46.5353 30.0012 46.5353Z" fill="#03CB83"/>
<path d="M0 30.6862V34.1581H28.7557C30.4683 34.1581 31.8539 32.7725 31.8539 31.0599V30.6707H0V30.6862Z" fill="#03CB83"/>
<path d="M28.7402 12.1125H0V24.5832H11.7078V26.1401H0V27.9617H31.8384V15.2108C31.8384 13.4982 30.4527 12.1125 28.7402 12.1125Z" fill="#03CB83"/>
<path d="M41.7712 19.5391L38.9377 21.2672L35.7305 23.26C37.7856 24.0852 39.9185 25.9223 39.9185 25.9223L42.0047 25.6576L42.6742 22.1235L41.7712 19.5391Z" fill="#03CB83"/>
</svg>
