<svg width="16" height="17" viewBox="0 0 16 17" fill="none" xmlns="http://www.w3.org/2000/svg">
<path d="M8.00618 0.333252C5.43663 0.333252 3.33952 2.43036 3.33952 4.99992V6.33325H2.00618C1.26952 6.33325 0.672852 6.92992 0.672852 7.66658V15.6666C0.672852 16.4033 1.26952 16.9999 2.00618 16.9999H14.0062C14.7429 16.9999 15.3395 16.4033 15.3395 15.6666V7.66658C15.3395 6.92992 14.7429 6.33325 14.0062 6.33325H12.6729V4.99992C12.6729 2.51431 10.6972 0.512295 8.24316 0.381429C8.16777 0.351059 8.08745 0.334731 8.00618 0.333252ZM8.00618 1.66659C9.8553 1.66659 11.3395 3.15081 11.3395 4.99992V6.33325H4.67285V4.99992C4.67285 3.15081 6.15707 1.66659 8.00618 1.66659ZM4.00618 10.3333C4.74285 10.3333 5.33952 10.9299 5.33952 11.6666C5.33952 12.4026 4.74285 12.9999 4.00618 12.9999C3.26952 12.9999 2.67285 12.4026 2.67285 11.6666C2.67285 10.9299 3.26952 10.3333 4.00618 10.3333ZM8.00618 10.3333C8.74285 10.3333 9.33952 10.9299 9.33952 11.6666C9.33952 12.4026 8.74285 12.9999 8.00618 12.9999C7.26952 12.9999 6.67285 12.4026 6.67285 11.6666C6.67285 10.9299 7.26952 10.3333 8.00618 10.3333ZM12.0062 10.3333C12.7429 10.3333 13.3395 10.9299 13.3395 11.6666C13.3395 12.4026 12.7429 12.9999 12.0062 12.9999C11.2695 12.9999 10.6729 12.4026 10.6729 11.6666C10.6729 10.9299 11.2695 10.3333 12.0062 10.3333Z" fill="#B3B6CB"/>
</svg>
