<svg width="16" height="16" viewBox="0 0 16 16" fill="none" xmlns="http://www.w3.org/2000/svg">
<path d="M14.0182 10.7235L11.9015 10.4818C11.3932 10.4235 10.8932 10.5985 10.5349 10.9568L9.00153 12.4901C6.6432 11.2901 4.70986 9.36514 3.50986 6.99847L5.05153 5.4568C5.40986 5.09847 5.58486 4.59847 5.52653 4.09014L5.28486 1.99014C5.18486 1.14847 4.47653 0.515137 3.62653 0.515137H2.18486C1.2432 0.515137 0.459865 1.29847 0.518198 2.24014C0.959865 9.3568 6.65153 15.0401 13.7599 15.4818C14.7015 15.5401 15.4849 14.7568 15.4849 13.8151V12.3735C15.4932 11.5318 14.8599 10.8235 14.0182 10.7235Z" fill="#B9C0CE"/>
</svg>
