<svg width="24" height="24" viewBox="0 0 24 24" fill="none" xmlns="http://www.w3.org/2000/svg">
<path fill-rule="evenodd" clip-rule="evenodd" d="M7.00002 3H17C17.55 3 18 3.45 18 4V6C18 6.55 17.55 7 17 7H7.00002C6.45002 7 6.00002 6.55 6.00002 6V4C6.00002 3.45 6.45002 3 7.00002 3ZM5 7.99992H19C20.66 7.99992 22 9.33992 22 10.9999V14.9999C22 16.0999 21.1 16.9999 20 16.9999H18V18.9999C18 20.0999 17.1 20.9999 16 20.9999H8C6.9 20.9999 6 20.0999 6 18.9999V16.9999H4C2.9 16.9999 2 16.0999 2 14.9999V10.9999C2 9.33992 3.34 7.99992 5 7.99992ZM9 18.9999H15C15.55 18.9999 16 18.5499 16 17.9999V13.9999H8V17.9999C8 18.5499 8.45 18.9999 9 18.9999ZM19 12.0001C18.45 12.0001 18 11.5501 18 11.0001C18 10.4501 18.45 10.0001 19 10.0001C19.55 10.0001 20 10.4501 20 11.0001C20 11.5501 19.55 12.0001 19 12.0001Z" fill="#93A9C7"/>
</svg>
