<svg width="16" height="17" viewBox="0 0 16 17" fill="none" xmlns="http://www.w3.org/2000/svg">
<path d="M13.9989 7.132V3.60533C13.9989 3.30533 13.6389 3.15866 13.4322 3.372L12.2455 4.55866C11.0389 3.352 9.31887 2.65866 7.43887 2.82533C4.64553 3.07866 2.34553 5.32533 2.03887 8.11866C1.63887 11.732 4.45887 14.7987 7.99887 14.7987C11.0589 14.7987 13.5855 12.5053 13.9522 9.54533C13.9989 9.14533 13.6855 8.79867 13.2855 8.79867C12.9522 8.79867 12.6722 9.04533 12.6322 9.372C12.3455 11.6987 10.3389 13.4987 7.9322 13.4653C5.45887 13.432 3.3722 11.3453 3.3322 8.86533C3.2922 6.26533 5.40553 4.132 7.99887 4.132C9.28553 4.132 10.4522 4.65866 11.2989 5.49866L9.90553 6.892C9.6922 7.10533 9.83886 7.46533 10.1389 7.46533H13.6655C13.8522 7.46533 13.9989 7.31866 13.9989 7.132Z" fill="white"/>
</svg>
