<svg width="57" height="57" viewBox="0 0 57 57" fill="none" xmlns="http://www.w3.org/2000/svg">
<circle cx="26" cy="27" r="13" fill="white"/>
<path fill-rule="evenodd" clip-rule="evenodd" d="M16.4991 16.499C23.0162 9.98181 33.5521 9.98181 40.0693 16.499C46.5865 23.0162 46.5865 33.552 40.0693 40.0692C33.5521 46.5864 23.0162 46.5864 16.4991 40.0692C9.9819 33.552 9.9819 23.0162 16.4991 16.499ZM26.6225 36.7576C26.6225 37.6769 27.365 38.4193 28.2842 38.4193C29.1917 38.4076 29.9459 37.6533 29.9459 36.7576V29.9459L36.7577 29.9459C37.677 29.9459 38.4194 29.2034 38.4194 28.2842C38.4194 27.3649 37.677 26.6224 36.7577 26.6225L29.9459 26.6225L29.9459 19.8107C29.9459 18.8914 29.2035 18.149 28.2842 18.149C27.8434 18.1485 27.4204 18.3234 27.1087 18.6351C26.7969 18.9468 26.622 19.3698 26.6225 19.8107L26.6225 26.6225H19.8107C19.3699 26.622 18.9469 26.7969 18.6352 27.1086C18.3234 27.4203 18.1485 27.8433 18.149 28.2842C18.149 29.2034 18.8915 29.9459 19.8107 29.9459L26.6225 29.9459L26.6225 36.7576Z" fill="#0075FF"/>
<path d="M28.2842 38.4193V38.9194L28.2907 38.9193L28.2842 38.4193ZM26.6225 36.7576H26.1225H26.6225ZM29.9459 29.9459V29.4459H29.4459V29.9459H29.9459ZM36.7577 29.9459V30.4459L36.7577 30.4459L36.7577 29.9459ZM38.4194 28.2842L37.9194 28.2842L37.9194 28.2842H38.4194ZM36.7577 26.6225V27.1225L36.7577 27.1224L36.7577 26.6225ZM29.9459 26.6225H29.4459L29.4459 27.1225L29.9459 27.1225V26.6225ZM29.9459 19.8107H30.4459H29.9459ZM28.2842 18.149L28.2837 18.649H28.2842L28.2842 18.149ZM26.6225 19.8107H27.1225L27.1225 19.8101L26.6225 19.8107ZM26.6225 26.6225V27.1225L27.1225 27.1225L27.1225 26.6225H26.6225ZM19.8107 26.6225L19.8102 27.1225L19.8107 27.1225V26.6225ZM18.149 28.2842H18.649L18.649 28.2836L18.149 28.2842ZM19.8107 29.9459L19.8107 30.4459L19.8107 30.4459V29.9459ZM26.6225 29.9459H27.1225V29.4459H26.6225V29.9459ZM40.4228 16.1454C33.7104 9.433 22.8579 9.433 16.1455 16.1454L16.8526 16.8525C23.1745 10.5306 33.3938 10.5306 39.7157 16.8525L40.4228 16.1454ZM40.4228 40.4228C47.1353 33.7103 47.1353 22.8579 40.4228 16.1454L39.7157 16.8525C46.0376 23.1744 46.0376 33.3938 39.7157 39.7157L40.4228 40.4228ZM16.1455 40.4228C22.8579 47.1352 33.7104 47.1352 40.4228 40.4228L39.7157 39.7157C33.3938 46.0376 23.1745 46.0376 16.8526 39.7157L16.1455 40.4228ZM16.1455 16.1454C9.43308 22.8579 9.43308 33.7103 16.1455 40.4228L16.8526 39.7157C10.5307 33.3938 10.5307 23.1744 16.8526 16.8525L16.1455 16.1454ZM28.2842 37.9193C27.6411 37.9193 27.1225 37.4007 27.1225 36.7576H26.1225C26.1225 37.953 27.0888 38.9193 28.2842 38.9193V37.9193ZM29.4459 36.7576C29.4459 37.3736 28.9177 37.9111 28.2777 37.9194L28.2907 38.9193C29.4657 38.904 30.4459 37.933 30.4459 36.7576H29.4459ZM29.4459 29.9459V36.7576H30.4459V29.9459H29.4459ZM36.7577 29.4459L29.9459 29.4459V30.4459L36.7577 30.4459V29.4459ZM37.9194 28.2842C37.9194 28.9272 37.4008 29.4459 36.7577 29.4459L36.7577 30.4459C37.9531 30.4459 38.9194 29.4795 38.9194 28.2842H37.9194ZM36.7577 27.1224C37.4008 27.1224 37.9194 27.6411 37.9194 28.2842L38.9194 28.2842C38.9194 27.0888 37.9531 26.1224 36.7577 26.1225L36.7577 27.1224ZM29.9459 27.1225L36.7577 27.1225V26.1224L29.9459 26.1225V27.1225ZM29.4459 19.8107L29.4459 26.6225H30.4459L30.4459 19.8107H29.4459ZM28.2842 18.649C28.9273 18.649 29.4459 19.1676 29.4459 19.8107H30.4459C30.4459 18.6153 29.4796 17.649 28.2842 17.649L28.2842 18.649ZM27.4622 18.9887C27.6801 18.7708 27.9756 18.6486 28.2837 18.649L28.2848 17.649C27.7111 17.6483 27.1608 17.8759 26.7551 18.2816L27.4622 18.9887ZM27.1225 19.8101C27.1222 19.502 27.2444 19.2065 27.4622 18.9887L26.7551 18.2816C26.3495 18.6872 26.1219 19.2376 26.1225 19.8112L27.1225 19.8101ZM27.1225 26.6225L27.1225 19.8107H26.1225L26.1225 26.6225H27.1225ZM19.8107 27.1225H26.6225V26.1225H19.8107V27.1225ZM18.9887 27.4622C19.2066 27.2443 19.5021 27.1221 19.8102 27.1225L19.8113 26.1225C19.2376 26.1218 18.6873 26.3494 18.2816 26.7551L18.9887 27.4622ZM18.649 28.2836C18.6487 27.9755 18.7709 27.68 18.9887 27.4622L18.2816 26.7551C17.876 27.1607 17.6484 27.7111 17.649 28.2847L18.649 28.2836ZM19.8107 29.4459C19.1676 29.4459 18.649 28.9272 18.649 28.2842H17.649C17.649 29.4795 18.6153 30.4459 19.8107 30.4459L19.8107 29.4459ZM26.6225 29.4459L19.8107 29.4459V30.4459L26.6225 30.4459V29.4459ZM27.1225 36.7576L27.1225 29.9459H26.1225L26.1225 36.7576H27.1225Z" fill="white"/>
</svg>
