<svg width="180" height="180" viewBox="0 0 180 180" fill="none" xmlns="http://www.w3.org/2000/svg">
<circle cx="90" cy="90" r="89.5" fill="#F9F9FB" stroke="#E2E5EF"/>
<path fill-rule="evenodd" clip-rule="evenodd" d="M118 64.7998C118 80.2698 105.47 92.7998 90 92.7998C74.53 92.7998 62 80.2698 62 64.7998C62 49.3298 74.53 36.7998 90 36.7998C105.47 36.7998 118 49.3298 118 64.7998ZM34 132C34 113.38 71.31 104 90 104C108.69 104 146 113.38 146 132V139C146 142.85 142.85 146 139 146H41C37.15 146 34 142.85 34 139V132Z" fill="#D9DCE7"/>
</svg>
