<svg width="5" height="16" viewBox="0 0 5 16" fill="none" xmlns="http://www.w3.org/2000/svg">
<path fill-rule="evenodd" clip-rule="evenodd" d="M2.97537 4C4.0731 4 4.97125 3.1 4.97125 2C4.97125 0.9 4.0731 0 2.97537 0C1.87764 0 0.979492 0.9 0.979492 2C0.979492 3.1 1.87764 4 2.97537 4ZM2.97537 6C1.87764 6 0.979492 6.9 0.979492 8C0.979492 9.1 1.87764 10 2.97537 10C4.0731 10 4.97125 9.1 4.97125 8C4.97125 6.9 4.0731 6 2.97537 6ZM0.979492 14C0.979492 12.9 1.87764 12 2.97537 12C4.0731 12 4.97125 12.9 4.97125 14C4.97125 15.1 4.0731 16 2.97537 16C1.87764 16 0.979492 15.1 0.979492 14Z" fill="#B9C0CE"/>
</svg>
