<svg width="17" height="16" viewBox="0 0 17 16" fill="none" xmlns="http://www.w3.org/2000/svg">
<path d="M8.00635 0C3.58835 0 0.00634766 3.582 0.00634766 8C0.00634766 12.418 3.58835 16 8.00635 16C12.4243 16 16.0063 12.418 16.0063 8C16.0063 3.582 12.4243 0 8.00635 0ZM3.33968 12.7607C4.11768 10.4273 6.45101 11.338 6.83968 10.074V9.23133C6.66501 9.13733 6.16435 8.492 6.11168 7.988C5.97368 7.976 5.75768 7.83933 5.69368 7.29867C5.65968 7.00867 5.79568 6.84533 5.87768 6.794C5.87768 6.794 5.67235 6.326 5.67235 5.86133C5.67301 4.48 6.35701 3.33333 8.00635 3.33333C8.89701 3.33333 9.17301 3.96467 9.17301 3.96467C9.96901 3.96467 10.3397 4.83733 10.3397 5.86067C10.3397 6.37067 10.1343 6.79333 10.1343 6.79333C10.217 6.84467 10.353 7.008 10.319 7.298C10.255 7.83867 10.039 7.97533 9.90101 7.98733C9.84835 8.49133 9.34835 9.13667 9.17301 9.23067V10.0733C9.56168 11.338 11.895 10.4273 12.673 12.7607C12.673 12.7607 10.9277 14.6667 8.00635 14.6667C5.06835 14.6667 3.33968 12.7607 3.33968 12.7607Z" fill="#B3B6CB"/>
</svg>
