<svg width="425" height="353" viewBox="0 0 425 353" fill="none" xmlns="http://www.w3.org/2000/svg">
<path opacity="0.4" d="M388.049 344.881C388.049 348.916 340.127 352.174 281.023 352.174C221.92 352.174 173.998 348.916 173.998 344.881C173.998 340.845 221.92 337.587 281.023 337.587C340.152 337.587 388.049 340.845 388.049 344.881Z" fill="#AAA9F5"/>
<path d="M13.9335 248.559C19.8738 227.179 1.00453 226.352 0.58022 198.832C0.405504 187.578 6.5455 176.099 21.3464 170.835C28.6095 168.254 59.4343 170.134 64.4511 164.344C80.6747 145.696 60.4327 120.933 64.4511 105.719C73.2868 72.334 103.587 60.0778 137.981 60.93C162.766 61.5565 185.179 62.3085 207.768 83.4374C223.217 97.8993 233.276 115.67 247.628 130.583C262.828 146.373 281.348 153.942 302.164 159.005C321.832 163.792 343.247 169.507 358.297 183.894C372.449 197.403 370.378 211.539 364.313 228.132C357.623 246.428 372.125 258.885 387.25 266.003C399.979 271.993 416.952 271.467 422.842 285.829C429.257 301.393 410.213 301.644 392.492 301.644C374.795 301.644 145.494 300.266 81.4235 302.17C64.1766 302.672 9.14127 307.409 1.35396 285.804C-3.91246 271.141 9.79021 263.497 13.9335 248.559Z" fill="#CED2FC"/>
<path d="M259.983 268.234C262.903 263.672 265.648 259.01 268.144 254.248C271.214 245.049 269.642 235.425 263.277 228.031C259.858 224.071 255.739 218.933 259.408 213.619C262.478 209.158 268.569 209.985 271.738 213.694C279.675 222.943 275.407 238.057 271.614 247.205C274.734 240.513 277.404 233.595 279.576 226.377C280.624 215.424 277.205 211.765 278.802 204.521C279.8 199.934 283.07 196.425 287.563 198.957C296.798 204.12 285.641 220.913 280.1 227.705C279.626 229.485 279.101 231.264 278.527 233.019C282.945 225.048 291.057 219.91 297.746 223.269C302.363 225.575 301.964 231.289 298.769 234.723C293.528 240.363 283.719 234.472 275.033 242.643C273.286 246.904 271.339 251.09 269.193 255.175C277.828 244.448 292.654 236.077 301.69 243.27C307.53 247.907 304.635 254.022 299.094 257.907C290.009 264.324 277.978 256.629 263.277 265.527C260.756 269.637 255.165 278.159 252.42 282.094C260.631 274.199 274.709 262.319 286.19 265.076C292.155 266.504 296.573 272.896 293.378 278.911C289.559 286.104 283.045 282.069 276.655 280.515C266.597 278.059 256.563 280.791 248.601 286.856C253.518 280.39 256.463 275.502 259.983 268.234ZM244.608 257.757C253.917 275.828 247.877 293.172 248.127 292.621C248.601 291.668 257.836 273.948 259.184 267.006C260.781 257.03 261.206 246.328 254.167 239.059C249.874 234.648 242.162 234.097 238.642 239.936C234.449 246.904 241.588 251.892 244.608 257.757Z" fill="#AAA9F5"/>
<path d="M332.639 247.03C332.814 243.546 341.35 215.725 345.318 217.479C348.838 218.983 348.089 227.705 348.688 231.189C348.887 230.187 351.084 224.121 351.284 223.018C351.483 221.915 351.658 220.763 351.883 219.635C352.107 218.507 352.357 217.379 352.631 216.326C352.881 215.223 353.155 214.171 353.48 213.168C353.804 212.191 354.179 211.288 354.628 210.461C355.027 209.634 355.502 208.882 356.051 208.281C357.174 207.078 358.622 206.376 360.469 206.351C362.191 206.326 366.359 214.998 367.482 216.702C367.507 214.421 365.111 204.922 365.71 202.967C366.334 201.012 367.382 199.358 368.805 198.004C370.502 196.425 373.422 196.701 375.269 198.481C375.294 195.949 375.569 195.222 376.268 193.017C376.917 190.761 377.541 188.881 380.286 188.255C383.656 187.503 387.05 191.337 388.298 193.969C387.999 190.661 388.847 187.553 389.521 186.275C390.22 184.996 390.894 183.743 391.718 182.54C392.317 181.663 393.115 180.886 394.014 180.209C394.888 179.532 395.911 178.956 397.009 178.505C399.205 177.602 401.726 177.226 404.073 177.552C406.419 177.878 408.565 178.956 410.013 181.086C410.737 182.139 411.286 183.467 411.585 185.097C411.735 185.899 411.835 186.801 411.835 187.753C411.81 188.706 411.735 189.708 411.56 190.811C411.286 192.44 409.863 195.824 409.214 197.378C408.59 198.932 405.021 202.967 404.122 204.421C412.409 200.586 417.151 203.193 417.051 207.002C417.201 209.684 415.254 210.511 413.507 212.892C411.66 215.223 400.753 218.407 396.685 219.083C397.309 219.409 407.043 219.133 409.688 222.066C411.161 224.647 410.737 227.379 405.67 231.365C398.931 235.224 387.724 231.741 385.678 232.518C388.523 232.894 400.803 235.801 401.003 238.483C401.177 240.713 400.329 242.744 398.831 244.623C398.082 245.551 397.209 246.453 396.185 247.28C395.162 248.107 393.989 248.859 392.766 249.561C391.543 250.263 390.245 250.915 388.922 251.516C387.574 252.067 386.177 252.594 384.804 253.045C383.431 253.496 382.083 253.922 380.761 254.273C379.413 254.599 369.679 253.271 368.481 253.546C372.249 254.123 385.029 256.654 385.777 260.689C386.027 270.489 353.006 268.083 354.978 270.164C349.337 276.605 368.506 275.151 368.156 281.693C367.882 288.786 360.319 290.089 358.072 290.866C351.358 293.147 344.794 293.147 338.779 292.12C332.764 291.042 328.845 290.917 320.434 288.962C311.224 286.982 302.338 283.849 299.218 282.144C296.098 280.44 297.521 281.518 297.496 281.392C297.396 281.317 300.516 277.257 302.688 272.219C305.408 264.098 306.257 263.071 307.729 257.582C310.675 246.603 316.365 233.896 321.956 226.653C334.661 217.103 332.639 247.03 332.639 247.03Z" fill="#AAA9F5"/>
<path d="M383.082 217.078C385.777 217.003 388.298 216.351 390.919 215.599C390.919 215.599 391.543 215.674 390.969 216.05C390.395 216.426 388.623 217.078 387.674 217.554C385.752 218.506 383.281 219.384 381.16 219.309C374.945 226.402 368.505 233.044 361.791 239.259C364.138 239.836 366.509 240.237 368.93 240.412C371.351 240.588 373.747 240.488 376.218 240.237C377.166 242.342 374.171 241.59 370.577 242.142C366.883 242.593 362.565 242.067 359.795 241.265C359.745 241.239 359.72 241.214 359.67 241.189C358.572 242.117 357.548 243.119 356.425 244.022L353.13 246.779C350.884 248.533 348.663 250.363 346.317 251.992C344.045 253.721 341.649 255.25 339.278 256.854C336.882 258.408 334.436 259.887 331.965 261.316C336.433 263.747 341.949 265.326 346.891 266.078C347.739 266.153 348.189 267.782 340.576 265.827C336.632 265.376 332.015 264.348 329.569 262.97C329.494 262.92 329.444 262.845 329.369 262.794C321.257 267.406 312.447 271.993 304.485 277.958C300.491 280.916 296.772 284.274 293.453 287.984C290.183 291.718 287.363 295.829 285.391 300.34C285.041 301.067 284.393 300.516 283.943 299.538C283.469 298.561 283.244 297.132 283.694 296.38C284.018 295.754 285.091 294.325 286.24 292.997C287.388 291.668 288.636 290.465 289.06 289.964C293.203 285.202 297.696 281.342 302.288 277.883C306.906 274.424 311.648 271.442 316.415 268.559C325.95 262.794 335.684 257.606 344.994 250.689C344.894 250.613 345.368 249.31 346.067 247.455C346.741 245.55 347.59 243.069 348.363 240.663C349.087 238.207 349.087 234.748 349.536 233.094C350.011 231.439 351.034 231.665 351.084 232.066C350.959 233.369 350.859 234.723 350.759 236.101C350.635 237.43 350.51 238.783 350.36 240.162C350.085 242.919 349.586 245.601 348.688 248.257C349.736 247.455 350.759 246.653 351.758 245.876C352.756 245.049 353.73 244.222 354.703 243.42L356.151 242.192L357.548 240.914C358.472 240.061 359.445 239.234 360.369 238.382C364.038 234.923 367.632 231.389 371.351 227.504C371.301 227.479 371.276 226.502 371.276 225.048C371.301 223.594 371.401 221.69 371.575 219.71C371.7 217.729 371.975 215.749 372.449 214.095C372.873 212.441 372.674 210.11 374.62 210.636C374.046 212.14 373.672 213.619 373.397 215.073C373.098 216.501 372.923 217.855 372.848 219.133C372.749 221.715 372.898 223.795 373.372 225.098C374.995 223.193 377.191 220.762 379.587 218.131C380.735 216.777 382.033 215.449 383.206 214.045C384.38 212.642 385.628 211.263 386.776 209.91C387.899 208.531 388.972 207.228 389.995 206.025C395.761 196.5 395.087 200.686 394.338 201.964C393.54 203.217 392.391 204.897 391.119 206.751C388.498 210.436 385.178 214.546 383.082 217.078Z" fill="#9393E7"/>
<path d="M65.2996 256.881C62.1298 256.806 36.5964 249.687 38.1189 246.003C39.3918 242.72 47.3538 243.221 50.4987 242.569C49.5752 242.419 44.0093 240.564 43.0109 240.389C41.9876 240.238 40.9393 240.088 39.916 239.913C38.8926 239.737 37.8693 239.537 36.8709 239.311C35.8726 239.11 34.8991 238.885 33.9756 238.609C33.0771 238.333 32.2285 238.008 31.4797 237.632C30.706 237.281 30.0321 236.855 29.458 236.378C28.3348 235.376 27.6609 234.073 27.5861 232.393C27.5361 230.814 35.2985 226.779 36.821 225.701C34.7494 225.751 26.1883 228.183 24.3663 227.681C22.5692 227.155 21.0467 226.228 19.7738 224.974C18.3012 223.445 18.4509 220.764 20.0234 219.034C17.7271 219.084 17.0532 218.834 15.0315 218.257C12.9848 217.731 11.2377 217.205 10.6137 214.673C9.86493 211.615 13.2344 208.407 15.6056 207.179C12.6105 207.53 9.76509 206.853 8.592 206.252C7.41891 205.625 6.24583 205.049 5.14761 204.322C4.32396 203.795 3.60014 203.094 2.95119 202.266C2.30225 201.489 1.75315 200.562 1.32884 199.56C0.455261 197.58 0.030952 195.274 0.280545 193.118C0.530139 190.963 1.45363 188.958 3.32558 187.579C4.27404 186.902 5.44713 186.351 6.91973 186.05C7.64355 185.9 8.46721 185.774 9.31582 185.749C10.1644 185.749 11.1129 185.799 12.1113 185.925C13.5839 186.125 16.7287 187.353 18.1265 187.905C19.5491 188.431 23.318 191.614 24.6658 192.391C20.9718 184.897 23.2182 180.486 26.6875 180.461C29.1335 180.26 29.9322 182.04 32.1287 183.569C34.2752 185.198 37.47 195.123 38.1938 198.833C38.4683 198.256 37.9691 189.333 40.5899 186.827C42.9111 185.424 45.407 185.749 49.1509 190.286C52.8199 196.376 49.9496 206.753 50.6984 208.583C50.9729 205.951 53.2942 194.622 55.7152 194.396C57.7369 194.171 59.6089 194.898 61.356 196.226C62.2296 196.878 63.0533 197.68 63.852 198.582C64.6257 199.509 65.3246 200.562 65.9985 201.64C66.6724 202.743 67.2964 203.921 67.8704 205.099C68.4195 206.327 68.9187 207.58 69.368 208.833C69.8173 210.086 70.2416 211.315 70.591 212.518C70.9404 213.746 69.967 222.719 70.2416 223.796C70.6659 220.313 72.6376 208.558 76.3067 207.755C85.1922 207.279 83.8444 237.607 85.7163 235.752C91.7066 240.765 89.9095 223.22 95.8498 223.395C102.314 223.471 103.687 230.363 104.461 232.418C106.707 238.509 106.882 244.524 106.083 250.088C105.259 255.628 105.235 259.237 103.687 266.982C102.115 275.478 99.4939 283.724 98.0213 286.607C96.5487 289.514 97.4971 288.186 97.3973 288.211C97.3224 288.286 93.5536 285.554 88.9111 283.674C81.4483 281.393 80.4998 280.641 75.483 279.413C65.4244 277.007 53.7185 272.095 47.0044 267.132C38.0191 255.778 65.2996 256.881 65.2996 256.881Z" fill="#AAA9F5"/>
<path d="M36.7712 211.39C36.6464 208.934 35.9725 206.628 35.2237 204.247C35.2237 204.247 35.2736 203.67 35.6231 204.197C35.9725 204.723 36.6214 206.327 37.0957 207.179C37.9942 208.909 38.8678 211.164 38.8678 213.119C45.482 218.633 51.6719 224.373 57.4874 230.388C57.9617 228.233 58.2612 226.052 58.361 223.822C58.4609 221.616 58.3111 219.41 58.0116 217.13C59.8835 216.202 59.3095 218.959 59.8835 222.243C60.4077 225.626 60.0083 229.586 59.3594 232.143C59.3344 232.193 59.3095 232.218 59.3095 232.268C60.1831 233.246 61.1315 234.173 61.9801 235.176L64.5759 238.133C66.2232 240.163 67.9454 242.143 69.4929 244.249C71.1152 246.279 72.5878 248.46 74.1104 250.59C75.583 252.746 76.9807 254.951 78.3535 257.182C80.45 253.021 81.7479 247.908 82.322 243.372C82.3719 242.595 83.8195 242.118 82.2471 249.161C81.9476 252.796 81.1239 257.057 79.9259 259.337C79.876 259.413 79.826 259.463 79.7761 259.513C84.169 266.831 88.5868 274.802 94.2026 281.945C96.9981 285.529 100.143 288.863 103.587 291.795C107.057 294.703 110.875 297.184 115.019 298.888C115.693 299.189 115.218 299.791 114.345 300.242C113.471 300.693 112.173 300.943 111.474 300.542C110.9 300.267 109.553 299.314 108.33 298.287C107.082 297.259 105.983 296.156 105.509 295.78C101.066 292.121 97.4473 288.086 94.1777 283.95C90.933 279.815 88.0876 275.529 85.3421 271.243C79.851 262.646 74.9091 253.848 68.3697 245.502C68.3198 245.602 67.1217 245.201 65.3996 244.6C63.6524 244.048 61.3561 243.321 59.1847 242.67C56.9134 242.068 53.7935 242.143 52.2709 241.793C50.7484 241.417 50.9231 240.439 51.2975 240.389C52.4956 240.489 53.7186 240.539 54.9666 240.59C56.1896 240.665 57.4126 240.74 58.6605 240.84C61.1814 241.016 63.6274 241.417 66.0485 242.169C65.2997 241.241 64.5509 240.314 63.8022 239.412C63.0284 238.534 62.2547 237.657 61.4809 236.78L60.3328 235.476L59.1348 234.223C58.3361 233.396 57.5623 232.544 56.7636 231.717C53.5439 228.433 50.1993 225.225 46.6052 221.917C46.5802 221.967 45.7066 222.017 44.3588 222.042C43.036 222.067 41.2888 222.017 39.5167 221.917C37.6947 221.842 35.8976 221.641 34.4001 221.265C32.8776 220.914 30.781 221.14 31.2053 219.36C32.578 219.837 33.9508 220.162 35.2736 220.363C36.5715 220.614 37.8195 220.739 38.9926 220.764C41.3388 220.789 43.2357 220.588 44.3838 220.137C42.6117 218.684 40.3404 216.754 37.8944 214.623C36.6464 213.596 35.3984 212.443 34.1006 211.39C32.7777 210.337 31.5048 209.235 30.2319 208.232C28.9589 207.254 27.7359 206.277 26.6128 205.375C17.8021 200.337 21.6458 200.838 22.8189 201.515C23.9671 202.217 25.5395 203.219 27.2617 204.347C30.5813 206.603 34.4001 209.51 36.7712 211.39Z" fill="#9393E7"/>
<path d="M106.757 126.723H70.6411V280.189H106.757V126.723Z" fill="#C8C8CA"/>
<path d="M185.828 126.723H149.712V280.189H185.828V126.723Z" fill="#C8C8CA"/>
<path d="M264.051 126.373H227.935V279.84H264.051V126.373Z" fill="#C8C8CA"/>
<path d="M343.047 126.373H306.956V279.84H343.047V126.373Z" fill="#C8C8CA"/>
<path d="M394.339 293.223H11.4626V304.276H394.339V293.223Z" fill="#DFDFF2"/>
<path d="M400.029 304.276H4.12451V313.35H400.029V304.276Z" fill="#E5E5F9"/>
<path d="M384.655 283.323H19.7241V293.224H384.655V283.323Z" fill="#E5E5F9"/>
<path d="M203.525 0L33.5017 125.37H370.278L203.525 0ZM203.325 27.5453L305.708 105.87H98.97L203.325 27.5453Z" fill="#E5E5F9"/>
<path d="M114.42 132.188V122.488H65.0752V132.188H70.1419V274.025H65.0752V283.725H114.445V274.025H108.729V132.188H114.42Z" fill="#E5E5F9"/>
<path d="M192.767 132.188V122.488H143.422V132.188H148.489V274.025H143.422V283.725H192.792V274.025H187.076V132.188H192.767Z" fill="#E5E5F9"/>
<path d="M271.164 132.188V122.488H221.795V132.188H226.861V274.025H221.795V283.725H271.164V274.025H265.449V132.188H271.164Z" fill="#E5E5F9"/>
<path d="M349.537 132.188V122.488H300.167V132.188H305.234V274.025H300.167V283.725H349.537V274.025H343.821V132.188H349.537Z" fill="#E5E5F9"/>
<path d="M202.901 26.8936L309.452 108.402H94.3276L202.901 26.8936Z" fill="#DFDFF2"/>
<path d="M93.7531 132.188H83.7444V274.024H93.7531V132.188Z" fill="#DFDFF2"/>
<path d="M78.8526 132.187H74.335V274.023H78.8526V132.187Z" fill="#DFDFF2"/>
<path d="M103.163 132.188H98.645V274.024H103.163V132.188Z" fill="#DFDFF2"/>
<path d="M172.1 132.188H162.092V274.024H172.1V132.188Z" fill="#DFDFF2"/>
<path d="M157.2 132.188H152.682V274.024H157.2V132.188Z" fill="#DFDFF2"/>
<path d="M181.485 132.188H176.968V274.024H181.485V132.188Z" fill="#DFDFF2"/>
<path d="M250.473 132.188H240.464V274.024H250.473V132.188Z" fill="#DFDFF2"/>
<path d="M235.572 132.188H231.055V274.024H235.572V132.188Z" fill="#DFDFF2"/>
<path d="M259.883 132.188H255.365V274.024H259.883V132.188Z" fill="#DFDFF2"/>
<path d="M328.845 132.188H318.837V274.024H328.845V132.188Z" fill="#DFDFF2"/>
<path d="M313.97 132.188H309.452V274.024H313.97V132.188Z" fill="#DFDFF2"/>
<path d="M338.255 132.188H333.737V274.024H338.255V132.188Z" fill="#DFDFF2"/>
<path d="M172.425 92.8106C172.425 93.9134 172.25 94.941 171.901 95.8684C171.551 96.7957 171.002 97.5978 170.303 98.2996C169.605 99.0014 168.731 99.5277 167.733 99.9287C166.734 100.305 165.536 100.505 164.188 100.505H152.832C151.983 100.505 151.26 100.204 150.661 99.6029C150.061 99.0014 149.762 98.2745 149.762 97.4223V75.0653C149.762 74.2131 150.061 73.4863 150.661 72.8847C151.26 72.2832 151.983 71.9824 152.832 71.9824H163.814C165.112 71.9824 166.285 72.1829 167.283 72.5589C168.282 72.9348 169.13 73.4612 169.829 74.1129C170.503 74.7645 171.027 75.5415 171.377 76.4187C171.726 77.296 171.901 78.2484 171.901 79.251C171.901 80.1533 171.776 80.9804 171.526 81.7323C171.277 82.4842 170.903 83.1108 170.428 83.6873C169.954 84.2387 169.43 84.6898 168.856 85.0658C168.282 85.4167 167.633 85.6673 166.959 85.8177C167.733 85.943 168.432 86.1937 169.105 86.6198C169.779 87.0459 170.353 87.5471 170.853 88.1737C171.352 88.8003 171.751 89.5021 172.026 90.3042C172.3 91.1062 172.425 91.9333 172.425 92.8106ZM166.684 80.1282C166.684 79.0755 166.335 78.2233 165.636 77.5216C164.937 76.8198 163.964 76.4939 162.716 76.4939H154.804V83.7123H162.716C163.964 83.7123 164.937 83.3865 165.636 82.7098C166.335 82.0331 166.684 81.1558 166.684 80.1282ZM167.233 92.1088C167.233 91.6075 167.134 91.1062 166.959 90.63C166.784 90.1538 166.485 89.7277 166.135 89.3768C165.761 89.0259 165.312 88.7502 164.787 88.5246C164.263 88.3241 163.639 88.1988 162.94 88.1988H154.804V96.0188H162.94C164.313 96.0188 165.362 95.6679 166.11 94.9661C166.859 94.2893 167.233 93.3369 167.233 92.1088Z" fill="white"/>
<path d="M200.829 98.0496C200.829 98.7013 200.579 99.3279 200.08 99.9043C199.581 100.481 198.932 100.782 198.108 100.782C197.559 100.782 197.06 100.631 196.611 100.33C196.162 100.03 195.837 99.6286 195.637 99.1023L194.14 95.1171H181.186L179.663 99.1023C179.464 99.6036 179.139 100.03 178.69 100.33C178.241 100.631 177.742 100.782 177.192 100.782C176.369 100.782 175.72 100.506 175.221 99.9544C174.722 99.403 174.472 98.7764 174.472 98.0496C174.472 97.6736 174.547 97.3729 174.697 97.0972L183.557 74.4393C183.882 73.6373 184.406 72.9856 185.13 72.4844C185.878 71.9831 186.652 71.7324 187.526 71.7324C188.424 71.6823 189.298 71.9079 190.072 72.3841C190.87 72.8854 191.444 73.5621 191.769 74.4143L200.679 97.0721C200.779 97.4481 200.829 97.7488 200.829 98.0496ZM192.692 90.6307L187.675 77.1212L182.609 90.6307H192.692Z" fill="white"/>
<path d="M228.434 98.9008C228.284 99.2767 228.084 99.6026 227.785 99.8532C227.51 100.129 227.161 100.354 226.787 100.505C226.412 100.68 225.988 100.755 225.539 100.755C225.064 100.755 224.59 100.63 224.141 100.405C223.692 100.179 223.292 99.8532 222.993 99.4522L209.066 80.3033V98.2491C209.066 98.9509 208.816 99.5524 208.317 100.054C207.818 100.53 207.194 100.781 206.47 100.781C205.796 100.781 205.197 100.53 204.723 100.054C204.248 99.5775 203.999 98.976 203.999 98.2491V74.9396C203.999 74.5135 204.074 74.1125 204.223 73.7366C204.373 73.3606 204.598 73.0348 204.897 72.7089C205.197 72.3831 205.546 72.1575 205.946 71.9821C206.345 71.8066 206.794 71.7314 207.268 71.7314C207.818 71.7314 208.317 71.8568 208.791 72.1074C209.265 72.358 209.689 72.6839 210.014 73.11L223.542 91.5821V74.2128C223.542 73.536 223.791 72.9345 224.291 72.4583C224.79 71.9821 225.414 71.7314 226.138 71.7314C226.812 71.7314 227.411 71.9821 227.885 72.4583C228.359 72.9345 228.609 73.536 228.609 74.2128V97.7478C228.634 98.1488 228.559 98.5248 228.434 98.9008Z" fill="white"/>
<path d="M254.392 98.3493C254.392 98.9509 254.167 99.5023 253.693 100.029C253.219 100.53 252.645 100.806 251.971 100.806C251.596 100.806 251.247 100.73 250.897 100.58C250.548 100.43 250.273 100.204 250.049 99.8532L241.138 88.5744L238.667 91.4818V98.2491C238.667 98.9509 238.418 99.5524 237.919 100.054C237.419 100.53 236.795 100.781 236.072 100.781C235.398 100.781 234.799 100.53 234.324 100.054C233.85 99.5775 233.601 98.9759 233.601 98.2491V74.2128C233.601 73.536 233.85 72.9345 234.349 72.4583C234.849 71.9821 235.448 71.7314 236.146 71.7314C236.845 71.7314 237.444 71.9821 237.943 72.4583C238.418 72.9345 238.667 73.536 238.667 74.2128V85.4915L249.15 72.6087C249.375 72.333 249.649 72.1074 249.974 71.9821C250.298 71.8568 250.623 71.7816 250.972 71.7816C251.621 71.7816 252.195 72.0071 252.669 72.4332C253.144 72.8844 253.393 73.4358 253.393 74.1125C253.393 74.689 253.219 75.1652 252.894 75.5662L244.483 85.4665L253.893 96.8706C254.242 97.3468 254.392 97.823 254.392 98.3493Z" fill="white"/>
<path d="M255.266 345.683C246.755 345.683 239.816 338.716 239.816 330.169V117C239.816 108.453 246.755 101.485 255.266 101.485H275.882C279.951 101.485 334.562 101.485 338.63 101.485H359.246C367.757 101.485 374.696 108.453 374.696 117V330.169C374.696 338.716 367.757 345.683 359.246 345.683H255.266Z" fill="#3F3D96"/>
<path d="M359.271 106.522H338.63C336.758 106.522 335.26 108.051 335.26 109.906C335.26 111.786 333.738 113.29 331.891 113.29H282.646C280.774 113.29 279.277 111.761 279.277 109.906C279.277 108.026 277.754 106.522 275.907 106.522H255.266C249.5 106.522 244.833 111.209 244.833 116.999V330.168C244.833 335.958 249.5 340.645 255.266 340.645H359.271C365.037 340.645 369.704 335.958 369.704 330.168V116.999C369.704 111.209 365.037 106.522 359.271 106.522Z" fill="white"/>
<path d="M350.71 181.79H264.326C262.254 181.79 260.557 180.086 260.557 178.005C260.557 175.925 262.254 174.221 264.326 174.221H350.71C352.781 174.221 354.479 175.925 354.479 178.005C354.479 180.111 352.781 181.79 350.71 181.79Z" fill="#E5E5F9"/>
<path d="M350.71 197.631H264.326C262.254 197.631 260.557 195.926 260.557 193.846C260.557 191.766 262.254 190.062 264.326 190.062H350.71C352.781 190.062 354.479 191.766 354.479 193.846C354.479 195.926 352.781 197.631 350.71 197.631Z" fill="#E5E5F9"/>
<path d="M296.748 213.446H264.326C262.254 213.446 260.557 211.742 260.557 209.662C260.557 207.581 262.254 205.877 264.326 205.877H296.748C298.819 205.877 300.517 207.581 300.517 209.662C300.517 211.742 298.844 213.446 296.748 213.446Z" fill="#E5E5F9"/>
<path d="M350.71 213.446H333.837C331.766 213.446 330.068 211.742 330.068 209.662C330.068 207.581 331.766 205.877 333.837 205.877H350.71C352.781 205.877 354.479 207.581 354.479 209.662C354.479 211.742 352.781 213.446 350.71 213.446Z" fill="#E5E5F9"/>
<path d="M307.531 260.941C297.871 260.941 290.034 253.046 290.034 243.372C290.034 233.672 297.896 225.802 307.531 225.802C317.19 225.802 325.027 233.697 325.027 243.372C325.027 253.071 317.165 260.941 307.531 260.941ZM307.531 227.556C298.845 227.556 291.781 234.649 291.781 243.372C291.781 252.094 298.845 259.187 307.531 259.187C316.217 259.187 323.28 252.094 323.28 243.372C323.255 234.649 316.192 227.556 307.531 227.556Z" fill="#E5E5F9"/>
<path d="M306.757 252.77C306.532 252.77 306.308 252.67 306.133 252.495L298.845 244.925C298.495 244.574 298.52 244.023 298.87 243.672C299.219 243.346 299.768 243.346 300.118 243.697L307.406 251.266C307.755 251.617 307.73 252.169 307.381 252.52C307.206 252.67 306.981 252.77 306.757 252.77Z" fill="#E5E5F9"/>
<path d="M306.757 252.769C306.607 252.769 306.482 252.744 306.332 252.669C305.908 252.443 305.758 251.892 305.983 251.466L314.769 235.324C314.993 234.898 315.542 234.748 315.967 234.974C316.391 235.199 316.541 235.751 316.316 236.177L307.53 252.318C307.381 252.593 307.081 252.769 306.757 252.769Z" fill="#E5E5F9"/>
<path d="M388.973 113.29C391.768 96.9736 377.542 82.6872 361.293 85.4944C360.37 85.6447 359.496 85.0683 359.271 84.166V84.1409C359.047 83.1634 359.671 82.1608 360.669 81.9854C379.339 78.7521 395.662 95.169 392.442 113.892C392.268 114.894 391.294 115.546 390.296 115.295H390.271C389.372 115.095 388.823 114.193 388.973 113.29Z" fill="#3F3D96"/>
<path d="M383.207 111.937C385.029 99.9063 374.596 89.4296 362.616 91.2592C361.717 91.3845 360.869 90.8081 360.644 89.9308V89.9058C360.395 88.9032 361.068 87.9006 362.092 87.7503C376.418 85.5697 388.873 98.0766 386.702 112.463C386.552 113.491 385.554 114.168 384.555 113.917H384.53C383.657 113.717 383.083 112.839 383.207 111.937Z" fill="#3F3D96"/>
<path d="M377.442 110.608C378.315 102.838 371.701 96.1713 363.939 97.0485C363.065 97.1488 362.242 96.5723 362.042 95.7201V95.6951C361.792 94.6675 362.491 93.6649 363.539 93.5396C373.523 92.3866 382.109 100.984 380.961 111.034C380.836 112.087 379.838 112.789 378.815 112.538H378.79C377.891 112.312 377.342 111.51 377.442 110.608Z" fill="#3F3D96"/>
<path d="M232.927 228.433C232.752 227.506 232.553 226.604 232.278 225.701C232.178 225.376 232.053 225.05 231.854 224.799C231.654 224.548 231.379 224.348 231.13 224.147C230.431 223.621 228.284 222.017 228.01 221.716C227.536 221.24 226.213 216.127 226.213 216.127L222.694 219.536C222.694 219.536 224.341 222.794 224.69 223.696C224.74 223.847 224.815 223.972 224.79 224.122C224.765 224.398 224.316 225.651 225.09 226.604C225.514 227.13 226.038 227.581 226.562 228.032C227.111 228.509 227.86 228.859 228.11 229.561C228.21 229.837 228.21 230.113 228.235 230.388C228.334 231.792 228.834 233.17 229.657 234.298C229.857 234.574 230.107 234.85 230.456 234.85C230.531 234.724 230.581 234.599 230.656 234.474C230.805 234.624 230.83 234.875 230.905 235.05C230.98 235.251 231.23 235.426 231.404 235.301C231.479 235.251 231.504 235.15 231.529 235.075C232.028 233.421 232.503 231.767 232.902 230.088C232.977 229.787 233.052 229.486 233.052 229.185C233.027 228.91 232.977 228.659 232.927 228.433Z" fill="#EDBC9C"/>
<path d="M218.9 155.348C224.241 159.96 219.424 191.165 220.123 191.867C220.822 192.543 227.985 220.816 227.985 220.816L223.542 223.147C223.542 223.147 212.56 202.343 210.314 194.473C208.742 188.934 210.564 168.607 210.564 168.607C210.564 168.607 205.347 143.619 218.9 155.348Z" fill="#7162EA"/>
<path d="M215.331 193.544C214.382 191.213 213.808 173.367 213.808 173.367L211.762 180.686C209.989 186.751 209.44 191.463 210.289 194.446C212.535 202.291 223.517 223.119 223.517 223.119L219.274 211.013C219.274 210.988 216.304 195.875 215.331 193.544Z" fill="#3F3D96"/>
<path d="M218.151 329.715C218.151 329.715 218.999 333.274 218.924 336.107C218.525 338.062 218.924 338.638 218.924 338.638L227.161 338.036C227.161 338.036 223.517 336.407 223.791 328.713C224.091 321.043 218.151 329.715 218.151 329.715Z" fill="#EDBC9C"/>
<path d="M218.824 336.709C218.824 336.709 222.394 337.912 225.938 337.035C230.106 338.789 233.026 339.491 236.82 339.917C240.614 340.368 239.915 343.175 233.451 342.774C226.986 342.373 222.469 342.624 221.021 342.749C219.573 342.875 217.277 343.05 217.177 342.123C217.102 341.22 217.651 336.408 218.824 336.709Z" fill="#2D2355"/>
<path d="M184.306 329.414C184.306 329.414 184.68 333.048 184.231 335.856C183.557 337.761 183.881 338.387 183.881 338.387L192.143 338.888C192.143 338.888 188.748 336.783 190.046 329.214C191.344 321.619 184.306 329.414 184.306 329.414Z" fill="#EDBC9C"/>
<path d="M184.031 336.432C184.031 336.432 187.426 338.111 191.045 337.71C194.939 340.016 197.734 341.094 201.428 342.046C205.122 342.999 204.074 345.705 197.709 344.427C191.345 343.149 186.852 342.798 185.404 342.723C183.957 342.648 181.66 342.522 181.685 341.595C181.735 340.668 182.933 335.981 184.031 336.432Z" fill="#2D2355"/>
<path d="M224.939 280.689C224.29 276.278 217.801 220.887 213.882 212.089L191.194 209.733C182.983 234.271 195.013 238.682 198.208 243.52C200.754 247.329 206.669 258.658 211.986 274.649C213.308 281.316 212.659 282.995 213.982 290.314C213.508 291.893 217.976 334.677 217.976 334.677C221.844 335.404 225.289 334.677 225.289 334.677C225.289 334.677 226.113 288.785 224.939 280.689Z" fill="#3F3D96"/>
<path d="M208.666 215.648L182.434 213.618C182.434 213.618 180.886 223.468 182.084 231.99C183.258 240.136 186.877 277.682 186.402 283.346C185.679 292.093 183.882 334.903 183.882 334.903C183.882 334.903 188.374 335.88 190.77 335.178C190.77 335.178 198.034 297.357 201.678 283.346C205.696 267.957 208.666 215.648 208.666 215.648Z" fill="#3F3D96"/>
<path d="M213.983 277.029C212.66 267.355 206.345 244.672 206.345 244.672L205.022 259.685C206.794 263.971 209.615 272.969 211.012 278.684C213.908 290.764 217.976 334.727 217.976 334.727C218.725 334.852 218.65 334.676 219.299 334.727C219.049 330.315 218.775 321.292 218.725 319.763C218.65 317.583 214.432 280.288 213.983 277.029Z" fill="#20207A"/>
<path d="M219.274 157.955C218.65 153.193 212.311 150.511 203.55 150.787C197.51 150.987 181.611 150.21 177.417 156.953C174.098 162.291 173.149 162.617 178.665 186.628C179.913 192.092 182.334 205.752 182.334 209.036C182.334 212.319 180.912 215.677 181.71 216.63C183.557 218.76 195.738 219.963 201.628 219.963C206.894 219.963 217.901 221.643 216.579 215.627C215.955 212.82 215.805 211.918 215.58 209.286C215.356 206.654 212.261 183.22 212.261 180.262C212.261 174.598 214.058 170.938 214.257 167.931C214.482 164.948 219.948 162.968 219.274 157.955Z" fill="#7162EA"/>
<path d="M215.131 204.322C215.131 204.147 215.131 203.972 215.131 203.796C209.415 202.994 204.124 201.916 202.027 200.513C197.485 197.455 182.384 185.575 176.768 173.619L178.441 177.629C184.231 189.284 196.761 199.636 201.029 202.518C203.275 204.022 209.141 206.177 215.305 206.979C215.231 206.453 215.156 204.874 215.131 204.322Z" fill="#3F3D96"/>
<path d="M221.621 196.977C214.308 193.969 209.341 193.317 207.668 191.312C203.899 186.775 197.71 179.632 186.752 167.301L188.749 179.632C194.14 191.487 205.397 192.666 209.59 195.673C211.762 197.252 219.175 200.611 225.29 201.638C225.19 201.112 223.942 197.929 221.621 196.977Z" fill="#3F3D96"/>
<path d="M205.671 150.635C205.796 150.785 207.593 150.835 207.992 150.96C207.443 156.048 204.673 157.628 201.029 157.953C198.433 157.728 194.065 156.951 193.067 151.612C198.383 151.286 195.013 141.261 195.013 141.261H207.643C207.643 141.286 204.598 149.407 205.671 150.635Z" fill="#DC9B78"/>
<path d="M205.821 116.122C185.829 116.899 187.626 131.812 189.772 139.933C191.919 148.028 203.4 150.435 207.918 150.159C211.337 149.958 212.261 145.547 212.585 139.983L212.835 133.341C212.885 131.912 212.935 130.484 213.034 129.08C213.633 119.731 205.821 116.122 205.821 116.122Z" fill="#E9AC84"/>
<path d="M209.989 125.27C212.31 126.273 213.059 125.245 213.309 125.27C213.334 125.095 213.309 119.255 209.615 116.849C207.343 115.345 201.877 113.741 199.481 114.042C197.959 114.217 196.511 114.793 195.088 115.37C193.816 115.896 192.518 116.373 191.295 117.024C188.973 118.252 187.151 120.007 186.278 122.538C185.429 124.969 185.304 127.877 185.504 130.433C185.679 132.714 187.75 138.93 190.122 139.482C190.147 139.482 191.12 138.429 191.419 137.176C191.22 137.125 191.045 137 190.945 136.8C189.747 135.521 189.822 132.764 190.92 131.486C191.32 131.01 191.969 130.484 192.642 130.684C193.092 130.834 193.366 131.311 193.516 131.787C196.287 130.759 200.18 126.097 203.325 125.396C206.195 124.719 207.418 124.167 209.989 125.27Z" fill="#2D2355"/>
<path d="M235.423 207.053C236.022 207.555 236.521 208.156 237.17 208.607C238.068 209.259 239.217 209.209 240.265 209.51C245.531 210.988 257.836 206.652 246.654 201.865C245.481 201.364 244.358 200.787 243.11 200.712C240.49 200.537 236.271 201.715 235.323 201.614C233.875 201.439 231.055 201.038 231.055 201.038C231.055 201.038 231.13 205.224 231.08 205.299C230.057 206.577 234.225 206.026 235.423 207.053Z" fill="#EDBC9C"/>
<path d="M179.439 156.023C179.439 156.023 173.124 160.961 176.444 173.643C179.564 185.574 197.285 198.231 202.701 201.865C208.117 205.5 235.023 206.953 235.023 206.953L235.223 201.69L207.268 192.141C207.268 192.141 189.048 170.034 186.752 167.302L179.439 156.023Z" fill="#7162EA"/>
<path d="M101.691 325.608H31.605V345.008H101.691V325.608Z" fill="#F0CA30"/>
<path d="M47.9781 325.606H44.5337V345.006H47.9781V325.606Z" fill="#FCE06D"/>
<path d="M101.716 325.606H79.1279V345.006H101.716V325.606Z" fill="#EBBB31"/>
<path d="M36.8463 328.99H34.2256V341.622H36.8463V328.99Z" fill="#DAAB45"/>
<path d="M43.0619 328.99H40.4412V341.622H43.0619V328.99Z" fill="#DAAB45"/>
<path d="M49.3011 328.99H46.6804V341.622H49.3011V328.99Z" fill="#DAAB45"/>
<path d="M55.516 328.99H52.8953V341.622H55.516V328.99Z" fill="#DAAB45"/>
<path d="M61.7558 328.99H59.135V341.622H61.7558V328.99Z" fill="#DAAB45"/>
<path d="M67.9711 328.99H65.3503V341.622H67.9711V328.99Z" fill="#DAAB45"/>
<path d="M74.2108 328.99H71.5901V341.622H74.2108V328.99Z" fill="#DAAB45"/>
<path d="M80.4257 328.99H77.8049V341.622H80.4257V328.99Z" fill="#DAAB45"/>
<path d="M86.6405 328.99H84.0198V341.622H86.6405V328.99Z" fill="#DAAB45"/>
<path d="M92.8802 328.99H90.2595V341.622H92.8802V328.99Z" fill="#DAAB45"/>
<path d="M98.8702 328.99H96.2495V341.622H98.8702V328.99Z" fill="#DAAB45"/>
<path d="M112.673 306.309H42.5869V325.708H112.673V306.309Z" fill="#F0CA30"/>
<path d="M58.9354 306.309H55.491V325.708H58.9354V306.309Z" fill="#FCE06D"/>
<path d="M112.673 306.309H90.0847V325.708H112.673V306.309Z" fill="#EBBB31"/>
<path d="M47.8036 309.691H45.1829V322.324H47.8036V309.691Z" fill="#DAAB45"/>
<path d="M54.0184 309.693H51.3977V322.326H54.0184V309.693Z" fill="#DAAB45"/>
<path d="M60.2584 309.693H57.6377V322.326H60.2584V309.693Z" fill="#DAAB45"/>
<path d="M66.4733 309.693H63.8525V322.326H66.4733V309.693Z" fill="#DAAB45"/>
<path d="M72.713 309.693H70.0923V322.326H72.713V309.693Z" fill="#DAAB45"/>
<path d="M78.9279 309.693H76.3071V322.326H78.9279V309.693Z" fill="#DAAB45"/>
<path d="M85.1678 309.693H82.5471V322.326H85.1678V309.693Z" fill="#DAAB45"/>
<path d="M91.3825 309.693H88.7617V322.326H91.3825V309.693Z" fill="#DAAB45"/>
<path d="M97.6222 309.693H95.0015V322.326H97.6222V309.693Z" fill="#DAAB45"/>
<path d="M103.837 309.693H101.216V322.326H103.837V309.693Z" fill="#DAAB45"/>
<path d="M109.827 309.693H107.207V322.326H109.827V309.693Z" fill="#DAAB45"/>
<path d="M98.8951 287.36H28.8093V306.76H98.8951V287.36Z" fill="#F0CA30"/>
<path d="M45.1827 287.36H41.7383V306.76H45.1827V287.36Z" fill="#FCE06D"/>
<path d="M98.8956 287.36H76.3074V306.76H98.8956V287.36Z" fill="#EBBB31"/>
<path d="M34.026 290.744H31.4053V303.376H34.026V290.744Z" fill="#DAAB45"/>
<path d="M40.2662 290.742H37.6455V303.374H40.2662V290.742Z" fill="#DAAB45"/>
<path d="M46.4806 290.742H43.8599V303.374H46.4806V290.742Z" fill="#DAAB45"/>
<path d="M52.7211 290.742H50.1003V303.374H52.7211V290.742Z" fill="#DAAB45"/>
<path d="M58.9354 290.742H56.3147V303.374H58.9354V290.742Z" fill="#DAAB45"/>
<path d="M65.1752 290.742H62.5544V303.374H65.1752V290.742Z" fill="#DAAB45"/>
<path d="M71.3903 290.742H68.7695V303.374H71.3903V290.742Z" fill="#DAAB45"/>
<path d="M77.63 290.742H75.0093V303.374H77.63V290.742Z" fill="#DAAB45"/>
<path d="M83.8444 290.742H81.2236V303.374H83.8444V290.742Z" fill="#DAAB45"/>
<path d="M90.0599 290.742H87.4392V303.374H90.0599V290.742Z" fill="#DAAB45"/>
<path d="M96.0751 290.742H93.4543V303.374H96.0751V290.742Z" fill="#DAAB45"/>
<path d="M109.254 267.711H39.1677V287.11H109.254V267.711Z" fill="#F0CA30"/>
<path d="M55.5411 267.711H52.0967V287.11H55.5411V267.711Z" fill="#FCE06D"/>
<path d="M109.253 267.711H86.6653V287.11H109.253V267.711Z" fill="#EBBB31"/>
<path d="M44.3842 271.095H41.7634V283.727H44.3842V271.095Z" fill="#DAAB45"/>
<path d="M50.6237 271.095H48.0029V283.727H50.6237V271.095Z" fill="#DAAB45"/>
<path d="M56.839 271.095H54.2183V283.727H56.839V271.095Z" fill="#DAAB45"/>
<path d="M63.079 271.095H60.4583V283.727H63.079V271.095Z" fill="#DAAB45"/>
<path d="M69.2938 271.095H66.6731V283.727H69.2938V271.095Z" fill="#DAAB45"/>
<path d="M75.5082 271.095H72.8875V283.727H75.5082V271.095Z" fill="#DAAB45"/>
<path d="M81.7484 271.095H79.1277V283.727H81.7484V271.095Z" fill="#DAAB45"/>
<path d="M87.963 271.095H85.3423V283.727H87.963V271.095Z" fill="#DAAB45"/>
<path d="M94.203 271.095H91.5823V283.727H94.203V271.095Z" fill="#DAAB45"/>
<path d="M100.418 271.095H97.7971V283.727H100.418V271.095Z" fill="#DAAB45"/>
<path d="M106.433 271.095H103.812V283.727H106.433V271.095Z" fill="#DAAB45"/>
<path d="M106.433 248.537H36.3472V267.937H106.433V248.537Z" fill="#F0CA30"/>
<path d="M52.72 248.536H49.2756V267.936H52.72V248.536Z" fill="#FCE06D"/>
<path d="M106.458 248.536H83.8694V267.936H106.458V248.536Z" fill="#EBBB31"/>
<path d="M41.5885 251.92H38.9678V264.552H41.5885V251.92Z" fill="#DAAB45"/>
<path d="M47.8033 251.92H45.1826V264.552H47.8033V251.92Z" fill="#DAAB45"/>
<path d="M54.0433 251.92H51.4226V264.552H54.0433V251.92Z" fill="#DAAB45"/>
<path d="M60.258 251.92H57.6372V264.552H60.258V251.92Z" fill="#DAAB45"/>
<path d="M66.4982 251.92H63.8774V264.552H66.4982V251.92Z" fill="#DAAB45"/>
<path d="M72.713 251.92H70.0923V264.552H72.713V251.92Z" fill="#DAAB45"/>
<path d="M78.9274 251.92H76.3066V264.552H78.9274V251.92Z" fill="#DAAB45"/>
<path d="M85.1671 251.92H82.5464V264.552H85.1671V251.92Z" fill="#DAAB45"/>
<path d="M91.3827 251.92H88.762V264.552H91.3827V251.92Z" fill="#DAAB45"/>
<path d="M97.622 251.92H95.0012V264.552H97.622V251.92Z" fill="#DAAB45"/>
<path d="M103.612 251.92H100.992V264.552H103.612V251.92Z" fill="#DAAB45"/>
</svg>
