<svg width="196" height="219" viewBox="0 0 196 219" fill="none" xmlns="http://www.w3.org/2000/svg">
<path d="M169.203 106.115H31.3906C25.4187 106.115 20.6719 101.368 20.6719 95.3965C20.6719 89.4246 25.4187 84.6777 31.3906 84.6777H169.203C175.175 84.6777 179.922 89.4246 179.922 95.3965C179.922 101.215 175.175 106.115 169.203 106.115Z" fill="#444B54"/>
<path d="M169.203 110.709H31.3906C22.9688 110.709 16.0781 103.818 16.0781 95.3965C16.0781 86.9746 22.9688 80.084 31.3906 80.084H169.203C177.625 80.084 184.516 86.9746 184.516 95.3965C184.516 103.818 177.625 110.709 169.203 110.709ZM31.3906 89.2715C28.0219 89.2715 25.2656 92.0277 25.2656 95.3965C25.2656 98.7652 28.0219 101.521 31.3906 101.521H169.203C172.572 101.521 175.328 98.7652 175.328 95.3965C175.328 92.0277 172.572 89.2715 169.203 89.2715H31.3906ZM46.7031 66.9152V23.5809C46.7031 20.9777 48.6937 18.9871 51.2969 18.9871H144.703C147.306 18.9871 149.297 20.9777 149.297 23.5809V66.9152C149.297 69.5184 147.306 71.509 144.703 71.509H51.2969C48.6937 71.509 46.7031 69.3652 46.7031 66.9152ZM162.772 71.2027H175.328C177.931 71.2027 179.922 69.2121 179.922 66.609V54.0527C179.922 51.4496 177.931 49.459 175.328 49.459H162.772C160.169 49.459 158.178 51.4496 158.178 54.0527V66.609C158.178 69.2121 160.322 71.2027 162.772 71.2027ZM162.772 40.5777H175.328C177.931 40.5777 179.922 38.5871 179.922 35.984V23.4277C179.922 20.8246 177.931 18.834 175.328 18.834H162.772C160.169 18.834 158.178 20.8246 158.178 23.4277V35.984C158.178 38.5871 160.322 40.5777 162.772 40.5777ZM20.6719 40.7309H33.2281C35.8313 40.7309 37.8219 38.7402 37.8219 36.1371V23.5809C37.8219 20.9777 35.8313 18.9871 33.2281 18.9871H20.6719C18.0687 18.9871 16.0781 20.9777 16.0781 23.5809V36.1371C16.0781 38.5871 18.0687 40.7309 20.6719 40.7309ZM20.6719 71.3559H33.2281C35.8313 71.3559 37.8219 69.3652 37.8219 66.7621V54.2059C37.8219 51.6027 35.8313 49.6121 33.2281 49.6121H20.6719C18.0687 49.6121 16.0781 51.6027 16.0781 54.2059V66.7621C16.0781 69.2121 18.0687 71.3559 20.6719 71.3559Z" fill="#69D3F6"/>
<path d="M151.9 95.2441V161.854C151.9 170.275 145.009 177.166 136.587 177.166H60.0249C51.603 177.166 44.7124 170.275 44.7124 161.854V95.2441H151.9Z" fill="#6EC6AF"/>
<path d="M136.587 95.2441H120.816C121.122 96.7754 121.275 98.3066 121.275 99.8379C121.275 112.547 111.016 122.807 98.3061 122.807C85.5968 122.807 75.3374 112.547 75.3374 99.8379C75.3374 98.3066 75.4905 96.7754 75.7968 95.2441H60.0249V146.541C68.4468 146.541 75.3374 153.432 75.3374 161.854H121.275C121.275 153.432 128.166 146.541 136.587 146.541V95.2441Z" fill="#C5E8DF"/>
<path d="M120.816 95.2441H75.7968C75.4905 96.7754 75.3374 98.3066 75.3374 99.8379C75.3374 112.547 85.5968 122.807 98.3062 122.807C111.016 122.807 121.275 112.547 121.275 99.8379C121.275 98.3066 121.122 96.7754 120.816 95.2441Z" fill="#E8F6F2"/>
<path d="M136.587 181.76H60.0249C48.9999 181.76 40.1187 172.879 40.1187 161.854V95.2441C40.1187 92.641 42.1093 90.6504 44.7124 90.6504C47.3155 90.6504 49.3062 92.641 49.3062 95.2441V161.854C49.3062 167.825 54.053 172.572 60.0249 172.572H136.587C142.559 172.572 147.306 167.825 147.306 161.854V95.2441C147.306 92.641 149.297 90.6504 151.9 90.6504C154.503 90.6504 156.494 92.641 156.494 95.2441V161.854C156.494 172.725 147.612 181.76 136.587 181.76Z" fill="#97E5FB"/>
<circle cx="152.5" cy="187.5" r="29.5" fill="#03CB83" stroke="white" stroke-width="4"/>
<path d="M147.124 195.105L140.762 188.743C140.42 188.4 139.955 188.207 139.47 188.207C138.985 188.207 138.52 188.4 138.177 188.743C137.462 189.458 137.462 190.613 138.177 191.328L145.841 198.992C146.556 199.707 147.711 199.707 148.426 198.992L167.822 179.595C168.537 178.88 168.537 177.725 167.822 177.01C167.48 176.667 167.015 176.474 166.53 176.474C166.045 176.474 165.58 176.667 165.237 177.01L147.124 195.105Z" fill="white"/>
</svg>
