<svg width="52" height="52" viewBox="0 0 52 52" fill="none" xmlns="http://www.w3.org/2000/svg">
<path d="M16.249 6.5C14.4583 6.5 12.999 7.95925 12.999 9.75V42.25C12.999 44.0407 14.4583 45.5 16.249 45.5H35.749C37.5398 45.5 38.999 44.0407 38.999 42.25V32.5H43.0615H45.499V30.0625V18.6875V16.25H43.0615H38.999V9.75C38.999 7.95925 37.5398 6.5 35.749 6.5H16.249ZM16.249 9.75H35.749V16.25H24.374V19.5H40.7732C41.0183 20.1893 41.5597 20.7307 42.249 20.9758V27.7742C41.5597 28.0193 41.0183 28.5607 40.7732 29.25H24.374V32.5H35.749V42.25H16.249V9.75ZM32.499 21.125C30.7034 21.125 29.249 22.5794 29.249 24.375C29.249 26.1706 30.7034 27.625 32.499 27.625C34.2946 27.625 35.749 26.1706 35.749 24.375C35.749 22.5794 34.2946 21.125 32.499 21.125ZM25.999 22.75C25.102 22.75 24.374 23.478 24.374 24.375C24.374 25.272 25.102 26 25.999 26C26.896 26 27.624 25.272 27.624 24.375C27.624 23.478 26.896 22.75 25.999 22.75ZM38.999 22.75C38.102 22.75 37.374 23.478 37.374 24.375C37.374 25.272 38.102 26 38.999 26C39.896 26 40.624 25.272 40.624 24.375C40.624 23.478 39.896 22.75 38.999 22.75ZM22.749 37.375V40.625H29.249V37.375H22.749Z" fill="#03CB83"/>
</svg>
