<svg width="11" height="13" viewBox="0 0 11 13" fill="none" xmlns="http://www.w3.org/2000/svg">
<path d="M7.31392 3.15392C7.31392 3.26603 7.30628 3.37813 7.29226 3.48896C7.29863 3.44437 7.305 3.39851 7.3101 3.35393C7.27952 3.57559 7.22092 3.79088 7.13557 3.99725C7.15213 3.95648 7.16997 3.91572 7.18653 3.87495C7.10118 4.07623 6.99162 4.26477 6.85786 4.43802C6.88461 4.40362 6.91137 4.36923 6.93812 4.33483C6.80563 4.50554 6.65149 4.65968 6.48079 4.79217C6.51518 4.76541 6.54958 4.73866 6.58397 4.71191C6.41072 4.8444 6.22218 4.95523 6.02091 5.04058C6.06167 5.02402 6.10244 5.00618 6.1432 4.98962C5.93683 5.07497 5.72154 5.13357 5.49988 5.16415C5.54447 5.15778 5.59033 5.15141 5.63491 5.14631C5.41198 5.17561 5.18777 5.17561 4.96484 5.14631C5.00942 5.15268 5.05528 5.15905 5.09987 5.16415C4.87821 5.13357 4.66292 5.07497 4.45655 4.98962C4.49731 5.00618 4.53808 5.02402 4.57884 5.04058C4.37757 4.95523 4.18903 4.84567 4.01578 4.71191C4.05017 4.73866 4.08457 4.76541 4.11896 4.79217C3.94826 4.65968 3.79412 4.50554 3.66163 4.33483C3.68838 4.36923 3.71514 4.40362 3.74189 4.43802C3.6094 4.26477 3.49857 4.07623 3.41322 3.87495C3.42978 3.91572 3.44762 3.95648 3.46418 3.99725C3.37882 3.79088 3.32023 3.57559 3.28965 3.35393C3.29602 3.39851 3.30239 3.44437 3.30749 3.48896C3.27819 3.26603 3.27819 3.04182 3.30749 2.81889C3.30112 2.86347 3.29475 2.90933 3.28965 2.95392C3.32023 2.73226 3.37882 2.51697 3.46418 2.3106C3.44762 2.35136 3.42978 2.39213 3.41322 2.43289C3.49857 2.23162 3.60813 2.04308 3.74189 1.86983C3.71514 1.90422 3.68838 1.93862 3.66163 1.97301C3.79412 1.80231 3.94826 1.64817 4.11896 1.51568C4.08457 1.54243 4.05017 1.56918 4.01578 1.59594C4.18903 1.46345 4.37757 1.35262 4.57884 1.26727C4.53808 1.28383 4.49731 1.30166 4.45655 1.31822C4.66292 1.23287 4.87821 1.17427 5.09987 1.1437C5.05528 1.15007 5.00942 1.15644 4.96484 1.16153C5.18777 1.13223 5.41198 1.13223 5.63491 1.16153C5.59033 1.15516 5.54447 1.14879 5.49988 1.1437C5.72154 1.17427 5.93683 1.23287 6.1432 1.31822C6.10244 1.30166 6.06167 1.28383 6.02091 1.26727C6.22218 1.35262 6.41072 1.46218 6.58397 1.59594C6.54958 1.56918 6.51518 1.54243 6.48079 1.51568C6.65149 1.64817 6.80563 1.80231 6.93812 1.97301C6.91137 1.93862 6.88461 1.90422 6.85786 1.86983C6.99035 2.04308 7.10118 2.23162 7.18653 2.43289C7.16997 2.39213 7.15213 2.35136 7.13557 2.3106C7.22092 2.51697 7.27952 2.73226 7.3101 2.95392C7.30373 2.90933 7.29736 2.86347 7.29226 2.81889C7.30628 2.92972 7.31265 3.04182 7.31392 3.15392C7.31519 3.42017 7.54704 3.67622 7.82348 3.66349C8.09865 3.65075 8.33432 3.43928 8.33304 3.15392C8.3305 2.54372 8.14705 1.91951 7.78781 1.42268C7.691 1.28892 7.58781 1.15771 7.47316 1.03924C7.35723 0.919492 7.22984 0.816305 7.09736 0.715667C6.85659 0.532224 6.58779 0.39719 6.30244 0.29273C5.1521 -0.128933 3.76482 0.246869 2.98646 1.19466C2.87945 1.32459 2.77754 1.45963 2.69092 1.60485C2.60429 1.7488 2.53677 1.90167 2.47435 2.05709C2.35715 2.34499 2.29728 2.65073 2.27307 2.96029C2.22594 3.56667 2.3839 4.1998 2.69983 4.71955C3.0043 5.22147 3.46418 5.65205 4.00176 5.89537C4.15973 5.96671 4.32152 6.03295 4.48967 6.08008C4.65655 6.12595 4.82598 6.15142 4.99796 6.17181C5.31134 6.20875 5.63109 6.18327 5.94065 6.12085C7.11646 5.88136 8.10119 4.8686 8.28336 3.68005C8.31011 3.50679 8.3305 3.33354 8.3305 3.15774C8.33177 2.8915 8.09482 2.63544 7.82093 2.64818C7.54577 2.6571 7.31392 2.86857 7.31392 3.15392ZM9.00439 11.1197C8.75471 11.1197 8.50502 11.1197 8.25534 11.1197C7.66042 11.1197 7.06678 11.1197 6.47187 11.1197C5.75593 11.1197 5.04 11.1197 4.32279 11.1197C3.70494 11.1197 3.0871 11.1197 2.46798 11.1197C2.17881 11.1197 1.88963 11.1222 1.60045 11.1197C1.5686 11.1197 1.53676 11.1171 1.50618 11.1133C1.55077 11.1197 1.59663 11.126 1.64122 11.1311C1.59026 11.1235 1.54185 11.1095 1.49472 11.0904C1.53548 11.1069 1.57625 11.1248 1.61701 11.1413C1.56606 11.1197 1.51892 11.0916 1.47433 11.0572C1.50873 11.084 1.54313 11.1107 1.57752 11.1375C1.5393 11.1056 1.50363 11.0712 1.47306 11.033C1.49981 11.0674 1.52657 11.1018 1.55332 11.1362C1.51892 11.0916 1.49217 11.0445 1.46924 10.9935C1.4858 11.0343 1.50363 11.0751 1.5202 11.1158C1.50109 11.0687 1.48835 11.019 1.47943 10.9693C1.4858 11.0139 1.49217 11.0598 1.49727 11.1044C1.47688 10.9502 1.4909 10.7872 1.4909 10.6318C1.4909 10.4496 1.4909 10.2687 1.4909 10.0865C1.4909 9.95021 1.49854 9.81518 1.51637 9.68014C1.51 9.72473 1.50363 9.77059 1.49854 9.81518C1.53421 9.55403 1.603 9.29797 1.70619 9.05466C1.68963 9.09542 1.67179 9.13618 1.65523 9.17695C1.75459 8.9451 1.88198 8.72726 2.03613 8.52726C2.00938 8.56165 1.98262 8.59605 1.95587 8.63044C2.11001 8.43299 2.28709 8.25464 2.48582 8.1005C2.45142 8.12725 2.41703 8.154 2.38263 8.18076C2.58263 8.02661 2.80047 7.89922 3.03232 7.79986C2.99156 7.81642 2.95079 7.83425 2.91003 7.85081C3.15334 7.7489 3.40812 7.67884 3.67055 7.64317C3.62596 7.64954 3.5801 7.65591 3.53552 7.661C3.72405 7.6368 3.91132 7.63552 4.10113 7.63552C4.33425 7.63552 4.56738 7.63552 4.8005 7.63552C5.34446 7.63552 5.88842 7.63552 6.43238 7.63552C6.64257 7.63552 6.85149 7.63425 7.06169 7.661C7.0171 7.65463 6.97124 7.64826 6.92665 7.64317C7.1878 7.67884 7.44386 7.74763 7.68717 7.85081C7.64641 7.83425 7.60564 7.81642 7.56488 7.79986C7.79673 7.89922 8.01457 8.02661 8.21457 8.18076C8.18018 8.154 8.14578 8.12725 8.11139 8.1005C8.30884 8.25464 8.48719 8.43172 8.64133 8.63044C8.61458 8.59605 8.58783 8.56165 8.56107 8.52726C8.71522 8.72726 8.84261 8.9451 8.94197 9.17695C8.92541 9.13618 8.90758 9.09542 8.89102 9.05466C8.99293 9.29797 9.06299 9.55275 9.09866 9.81518C9.09229 9.77059 9.08592 9.72473 9.08083 9.68014C9.10503 9.8725 9.10631 10.0636 9.10631 10.2572C9.10631 10.4674 9.10631 10.6776 9.10631 10.8878C9.10631 10.9604 9.10885 11.033 9.09994 11.1044C9.10631 11.0598 9.11268 11.0139 9.11777 10.9693C9.11013 11.0203 9.09611 11.0687 9.07701 11.1158C9.09357 11.0751 9.1114 11.0343 9.12796 10.9935C9.10631 11.0445 9.07828 11.0916 9.04388 11.1362C9.07064 11.1018 9.09739 11.0674 9.12414 11.033C9.09229 11.0712 9.0579 11.1069 9.01968 11.1375C9.05408 11.1107 9.08847 11.084 9.12287 11.0572C9.07828 11.0916 9.03115 11.1184 8.98019 11.1413C9.02095 11.1248 9.06172 11.1069 9.10248 11.0904C9.05535 11.1095 9.00567 11.1222 8.95599 11.1311C9.00057 11.1248 9.04643 11.1184 9.09102 11.1133C9.06299 11.1171 9.03369 11.1184 9.00439 11.1197C8.87318 11.1209 8.73815 11.1757 8.64388 11.2687C8.55598 11.3566 8.48846 11.5018 8.49483 11.6292C8.50757 11.9018 8.71904 12.1426 9.00439 12.1388C9.49994 12.1311 9.93562 11.8076 10.0808 11.3324C10.1382 11.1439 10.1254 10.9413 10.1254 10.7477C10.1254 10.3044 10.1394 9.86486 10.063 9.42536C9.95091 8.78204 9.62733 8.17693 9.18401 7.70177C8.74069 7.2266 8.14451 6.87755 7.51392 6.72213C7.15213 6.63296 6.7878 6.61895 6.41836 6.61895C6.03874 6.61895 5.66039 6.61895 5.28077 6.61895C4.90624 6.61895 4.53298 6.61895 4.15846 6.61895C3.7801 6.61895 3.4043 6.63678 3.03614 6.73487C2.41066 6.90048 1.82211 7.25335 1.38771 7.73234C0.949486 8.21515 0.632283 8.82153 0.529097 9.46867C0.460306 9.90308 0.474319 10.3388 0.474319 10.777C0.474319 10.9783 0.462854 11.1884 0.535466 11.3808C0.629735 11.6279 0.780056 11.8229 1.00044 11.9694C1.17242 12.0827 1.39026 12.1375 1.59408 12.1401C1.69345 12.1413 1.79281 12.1401 1.89218 12.1401C2.14696 12.1401 2.40046 12.1401 2.65525 12.1401C3.01704 12.1401 3.37755 12.1401 3.73934 12.1401C4.15973 12.1401 4.58012 12.1401 5.00051 12.1401C5.43236 12.1401 5.86294 12.1401 6.2948 12.1401C6.68971 12.1401 7.08334 12.1401 7.47825 12.1401C7.78781 12.1401 8.09737 12.1401 8.40566 12.1401C8.58273 12.1401 8.7598 12.1401 8.93688 12.1401C8.95981 12.1401 8.98274 12.1401 9.00567 12.1401C9.27191 12.1401 9.52797 11.9057 9.51523 11.6305C9.50249 11.3528 9.29102 11.1197 9.00439 11.1197Z" fill="#8D95B0"/>
</svg>
