<svg width="13" height="12" viewBox="0 0 13 12" fill="none" xmlns="http://www.w3.org/2000/svg">
<path d="M11.8024 1.42471H10.7127V1.32564C10.7127 1.06289 10.6083 0.810911 10.4225 0.625124C10.2367 0.439336 9.98472 0.334961 9.72198 0.334961C9.45924 0.334961 9.20725 0.439336 9.02146 0.625124C8.83568 0.810911 8.7313 1.06289 8.7313 1.32564V1.42471H4.57046V1.32564C4.57046 1.06289 4.46608 0.810911 4.2803 0.625124C4.09451 0.439336 3.84253 0.334961 3.57978 0.334961C3.31704 0.334961 3.06505 0.439336 2.87927 0.625124C2.69348 0.810911 2.5891 1.06289 2.5891 1.32564V1.42471H1.49936C1.18407 1.42471 0.881688 1.54996 0.658742 1.7729C0.435796 1.99585 0.310547 2.29823 0.310547 2.61352L0.310547 10.7371C0.310547 11.0524 0.435796 11.3547 0.658742 11.5777C0.881688 11.8006 1.18407 11.9259 1.49936 11.9259H11.8024C12.1177 11.9259 12.4201 11.8006 12.643 11.5777C12.866 11.3547 12.9912 11.0524 12.9912 10.7371V2.61352C12.9912 2.29823 12.866 1.99585 12.643 1.7729C12.4201 1.54996 12.1177 1.42471 11.8024 1.42471ZM9.52384 1.32564C9.52384 1.27309 9.54472 1.22269 9.58188 1.18554C9.61903 1.14838 9.66943 1.1275 9.72198 1.1275C9.77453 1.1275 9.82492 1.14838 9.86208 1.18554C9.89924 1.22269 9.92011 1.27309 9.92011 1.32564V2.51445C9.92011 2.567 9.89924 2.6174 9.86208 2.65455C9.82492 2.69171 9.77453 2.71259 9.72198 2.71259C9.66943 2.71259 9.61903 2.69171 9.58188 2.65455C9.54472 2.6174 9.52384 2.567 9.52384 2.51445V1.32564ZM3.38165 1.32564C3.38165 1.27309 3.40252 1.22269 3.43968 1.18554C3.47684 1.14838 3.52723 1.1275 3.57978 1.1275C3.63233 1.1275 3.68273 1.14838 3.71988 1.18554C3.75704 1.22269 3.77792 1.27309 3.77792 1.32564V2.51445C3.77792 2.567 3.75704 2.6174 3.71988 2.65455C3.68273 2.69171 3.63233 2.71259 3.57978 2.71259C3.52723 2.71259 3.47684 2.69171 3.43968 2.65455C3.40252 2.6174 3.38165 2.567 3.38165 2.51445V1.32564ZM12.1987 10.7371C12.1987 10.8422 12.1569 10.943 12.0826 11.0173C12.0083 11.0916 11.9075 11.1333 11.8024 11.1333H1.49936C1.39426 11.1333 1.29347 11.0916 1.21915 11.0173C1.14484 10.943 1.10309 10.8422 1.10309 10.7371V4.69394H12.1987V10.7371ZM12.1987 3.9014H1.10309V2.61352C1.10309 2.50842 1.14484 2.40763 1.21915 2.33331C1.29347 2.259 1.39426 2.21725 1.49936 2.21725H2.5891V2.51445C2.5891 2.77719 2.69348 3.02918 2.87927 3.21496C3.06505 3.40075 3.31704 3.50513 3.57978 3.50513C3.84253 3.50513 4.09451 3.40075 4.2803 3.21496C4.46608 3.02918 4.57046 2.77719 4.57046 2.51445V2.21725H8.7313V2.51445C8.7313 2.77719 8.83568 3.02918 9.02146 3.21496C9.20725 3.40075 9.45924 3.50513 9.72198 3.50513C9.98472 3.50513 10.2367 3.40075 10.4225 3.21496C10.6083 3.02918 10.7127 2.77719 10.7127 2.51445V2.21725H11.8024C11.9075 2.21725 12.0083 2.259 12.0826 2.33331C12.1569 2.40763 12.1987 2.50842 12.1987 2.61352V3.9014Z" fill="#8D95B0"/>
</svg>
