<svg width="19" height="19" viewBox="0 0 19 19" fill="none" xmlns="http://www.w3.org/2000/svg">
<path d="M2.26429 0.046875C1.3692 0.046875 0.62793 0.788148 0.62793 1.68324V16.4105C0.62793 17.3056 1.3692 18.0469 2.26429 18.0469H16.9916C17.8867 18.0469 18.6279 17.3056 18.6279 16.4105V1.68324C18.6279 0.788148 17.8867 0.046875 16.9916 0.046875H2.26429ZM2.26429 1.68324H16.9916V16.4105H12.7468V10.8878H14.8692L15.176 8.43324H12.7477V6.8476C12.7477 6.13251 12.9227 5.64651 13.9487 5.64651H15.2783V3.42188C15.0517 3.39324 14.2654 3.34497 13.3613 3.34497C11.4754 3.34497 10.1908 4.47978 10.1908 6.59233V8.43324H8.04311V10.8878H10.19V16.4105H2.26429V1.68324Z" fill="#00DE8E"/>
</svg>
