<svg width="19" height="19" viewBox="0 0 19 19" fill="none" xmlns="http://www.w3.org/2000/svg">
<path d="M18.5881 5.86426C18.5732 5.11635 18.4317 4.37638 18.1694 3.67581C17.9428 3.07429 17.5876 2.52945 17.1288 2.0793C16.6786 1.62043 16.1338 1.26529 15.5323 1.03866C14.832 0.776511 14.0924 0.634953 13.3448 0.620003C12.3823 0.575934 12.0758 0.565918 9.62796 0.565918C7.18011 0.565918 6.87362 0.575934 5.91211 0.620003C5.16421 0.63484 4.42423 0.7764 3.72366 1.03866C3.12178 1.26517 2.57659 1.62031 2.12615 2.0793C1.66728 2.52945 1.31214 3.07429 1.08551 3.67581C0.823361 4.37607 0.681803 5.11569 0.666853 5.86326C0.623785 6.82577 0.61377 7.13225 0.61377 9.58011C0.61377 12.028 0.623785 12.3344 0.667855 13.296C0.682692 14.0439 0.824252 14.7838 1.08651 15.4844C1.31315 16.0859 1.66828 16.6308 2.12715 17.0809C2.57728 17.5398 3.12213 17.8949 3.72366 18.1216C4.42392 18.3837 5.16354 18.5253 5.91111 18.5402C6.87362 18.5843 7.18011 18.5943 9.62796 18.5943C12.0758 18.5943 12.3823 18.5843 13.3438 18.5402C14.0917 18.5254 14.8317 18.3838 15.5323 18.1216C16.1313 17.89 16.6753 17.5357 17.1295 17.0816C17.5836 16.6275 17.9378 16.0834 18.1694 15.4844C18.4316 14.7841 18.5731 14.0445 18.5881 13.297C18.6321 12.3344 18.6421 12.028 18.6421 9.58011C18.6421 7.13225 18.6321 6.82577 18.5881 5.86426ZM16.9655 13.2228C16.9586 13.7941 16.8536 14.3598 16.655 14.8955C16.5052 15.2844 16.2756 15.6377 15.9809 15.9325C15.6863 16.2273 15.3332 16.4571 14.9443 16.6072C14.4084 16.8058 13.8422 16.9108 13.2707 16.9177C12.3192 16.9607 12.0347 16.9697 9.62796 16.9697C7.22117 16.9697 6.93572 16.9607 5.98522 16.9177C5.41401 16.9107 4.84824 16.8057 4.31259 16.6072C3.92066 16.4629 3.56608 16.2326 3.27496 15.9331C2.97563 15.6423 2.74529 15.288 2.6009 14.8965C2.40223 14.3605 2.2972 13.7944 2.29041 13.2228C2.24734 12.2713 2.23833 11.9869 2.23833 9.58011C2.23833 7.17332 2.24734 6.88787 2.29041 5.93737C2.29734 5.36616 2.40236 4.80039 2.6009 4.26474C2.74516 3.87281 2.9755 3.51823 3.27496 3.22711C3.56579 2.92778 3.92002 2.69744 4.31159 2.55305C4.84755 2.3544 5.41367 2.24937 5.98522 2.24256C6.93672 2.19949 7.22117 2.19048 9.62796 2.19048C12.0347 2.19048 12.3202 2.19949 13.2707 2.24256C13.8419 2.24949 14.4077 2.35451 14.9433 2.55305C15.3353 2.69731 15.6898 2.92765 15.981 3.22711C16.2803 3.51794 16.5106 3.87216 16.655 4.26374C16.8537 4.7997 16.9587 5.36582 16.9655 5.93737C17.0086 6.88887 17.0176 7.17332 17.0176 9.58011C17.0176 11.9869 17.0086 12.2723 16.9655 13.2228ZM9.62796 4.95082C8.71237 4.95082 7.81735 5.22232 7.05606 5.731C6.29478 6.23967 5.70144 6.96266 5.35106 7.80856C5.00068 8.65445 4.909 9.58524 5.08762 10.4832C5.26624 11.3812 5.70714 12.2061 6.35456 12.8535C7.00198 13.5009 7.82684 13.9418 8.72483 14.1204C9.62282 14.2991 10.5536 14.2074 11.3995 13.857C12.2454 13.5066 12.9684 12.9133 13.4771 12.152C13.9857 11.3907 14.2572 10.4957 14.2572 9.58011C14.2572 8.35234 13.7695 7.17487 12.9014 6.30671C12.0332 5.43855 10.8557 4.95082 9.62796 4.95082ZM9.62796 12.5848C9.03368 12.5848 8.45274 12.4086 7.95862 12.0784C7.46449 11.7483 7.07937 11.279 6.85195 10.73C6.62453 10.1809 6.56503 9.57677 6.68096 8.99391C6.7969 8.41105 7.08308 7.87566 7.50329 7.45544C7.92351 7.03522 8.4589 6.74905 9.04177 6.63311C9.62463 6.51717 10.2288 6.57668 10.7778 6.8041C11.3269 7.03152 11.7961 7.41664 12.1263 7.91077C12.4565 8.40489 12.6327 8.98583 12.6327 9.58011C12.6327 10.377 12.3161 11.1413 11.7526 11.7048C11.1891 12.2683 10.4249 12.5848 9.62796 12.5848ZM15.5212 4.76853C15.5212 4.98247 15.4578 5.19161 15.3389 5.36949C15.2201 5.54738 15.0511 5.68602 14.8535 5.7679C14.6558 5.84977 14.4383 5.87119 14.2285 5.82945C14.0187 5.78771 13.8259 5.68469 13.6747 5.53341C13.5234 5.38213 13.4204 5.18939 13.3786 4.97956C13.3369 4.76973 13.3583 4.55224 13.4402 4.35458C13.522 4.15693 13.6607 3.98799 13.8386 3.86913C14.0165 3.75027 14.2256 3.68683 14.4395 3.68683C14.7264 3.68683 15.0016 3.8008 15.2044 4.00365C15.4073 4.20651 15.5212 4.48165 15.5212 4.76853Z" fill="#00DE8E"/>
</svg>
