<svg width="20" height="23" viewBox="0 0 20 23" fill="none" xmlns="http://www.w3.org/2000/svg">
<path fill-rule="evenodd" clip-rule="evenodd" d="M18.0298 9.5442C18.0298 15.8129 9.96998 21.1862 9.96998 21.1862C9.96998 21.1862 1.91016 15.8129 1.91016 9.5442C1.91016 7.4066 2.75931 5.35655 4.27082 3.84504C5.78233 2.33353 7.83238 1.48438 9.96998 1.48438C12.1076 1.48438 14.1576 2.33353 15.6691 3.84504C17.1806 5.35655 18.0298 7.4066 18.0298 9.5442V9.5442Z" stroke="#00DE8E" stroke-width="2" stroke-linecap="round" stroke-linejoin="round"/>
<path d="M9.96981 12.2308C11.4536 12.2308 12.6564 11.028 12.6564 9.5442C12.6564 8.06042 11.4536 6.85759 9.96981 6.85759C8.48604 6.85759 7.2832 8.06042 7.2832 9.5442C7.2832 11.028 8.48604 12.2308 9.96981 12.2308Z" stroke="#00DE8E" stroke-width="2" stroke-linecap="round" stroke-linejoin="round"/>
</svg>
