<svg width="89" height="90" viewBox="0 0 89 90" fill="none" xmlns="http://www.w3.org/2000/svg">
<g filter="url(#filter0_d)">
<rect x="16.1533" y="0.687988" width="56.3176" height="56.3176" rx="16" fill="white"/>
</g>
<path fill-rule="evenodd" clip-rule="evenodd" d="M44.3231 38.2158C46.5379 40.2566 49.5123 41.4945 52.7475 41.4945C59.6956 41.4945 65.3193 35.8275 65.3193 28.8574C65.3193 21.866 59.6956 16.1987 52.7475 16.1987C49.5123 16.1987 46.5379 17.4364 44.3231 19.4774C41.7827 21.8006 40.1758 25.1445 40.1758 28.8574C40.176 32.5702 41.7827 35.9143 44.3231 38.2158Z" fill="#F9DCA4"/>
<path fill-rule="evenodd" clip-rule="evenodd" d="M48.384 27.5119C48.3405 27.056 48.2536 26.6218 48.1668 26.1656H40.4803C40.5672 25.7097 40.6976 25.2756 40.8276 24.8411H47.7977C47.6464 24.384 47.4725 23.9347 47.2767 23.4949H41.3707C41.5879 23.035 41.827 22.5857 42.0872 22.1487H46.5386C46.2522 21.6849 45.933 21.2423 45.5834 20.8241H43.0427C43.4357 20.3442 43.8639 19.8942 44.3238 19.4779C42.0875 17.4586 39.1344 16.1992 35.8774 16.1992C28.951 16.1992 23.3057 21.8665 23.3057 28.8578C23.3057 35.8279 28.951 41.495 35.8774 41.495C39.1344 41.495 42.0872 40.2571 44.3238 38.2163C44.7766 37.8073 45.1977 37.3644 45.5834 36.8915H43.0427C42.6952 36.4574 42.3913 36.0232 42.0872 35.5453H46.5386C46.8185 35.1159 47.0654 34.6659 47.2769 34.1991H41.3707C41.1752 33.7649 40.9799 33.3307 40.8276 32.8743H47.7977C47.9495 32.4401 48.0584 31.9845 48.1665 31.5281C48.2534 31.0939 48.3403 30.6383 48.3837 30.1818C48.4277 29.7416 48.4496 29.2995 48.4491 28.8571C48.4491 28.4019 48.4274 27.946 48.384 27.5119Z" fill="#FF6565"/>
<path fill-rule="evenodd" clip-rule="evenodd" d="M50.4218 26.6429L50.2466 27.6612C49.8966 27.4862 49.6419 27.4067 49.3555 27.4067C48.6076 27.4067 48.0827 28.1386 48.0827 29.1729C48.0827 29.889 48.4327 30.3184 49.0216 30.3184C49.26 30.3184 49.5465 30.239 49.8647 30.08L49.6898 31.1458C49.3237 31.2413 49.0851 31.2892 48.8145 31.2892C47.7327 31.2892 47.0643 30.5094 47.0643 29.2527C47.0643 27.5818 47.9872 26.4043 49.3078 26.4043C49.4827 26.4043 49.6417 26.4202 49.769 26.4521L50.167 26.5476C50.2945 26.5953 50.3263 26.6112 50.4218 26.6429ZM47.2076 27.3431H47.112C46.7781 27.3431 46.5871 27.5023 46.2847 27.9635L46.3802 27.3747H45.4731L44.8528 31.1935H45.8555C46.2212 28.8545 46.3167 28.4568 46.7941 28.4568H46.8577C46.9532 27.9953 47.0804 27.6611 47.2396 27.3588L47.2076 27.3431ZM41.4477 31.1458C41.1773 31.2413 40.9544 31.2731 40.7318 31.2731C40.2226 31.2731 39.9361 30.9868 39.9361 30.43C39.9361 30.3345 39.952 30.2074 39.9679 30.0958L40.0316 29.7139L40.0793 29.4118L40.5089 26.8021H41.4955L41.384 27.3749H41.8932L41.7659 28.3137H41.2567L40.9863 29.9049C40.9704 29.9686 40.9704 30.0165 40.9704 30.0641C40.9704 30.2551 41.0659 30.3347 41.3044 30.3347C41.4159 30.3347 41.5112 30.3347 41.5749 30.3029L41.4477 31.1458ZM37.613 28.5841C37.613 29.0616 37.8357 29.3956 38.3608 29.6502C38.7744 29.8413 38.8381 29.9047 38.8381 30.0639C38.8381 30.3027 38.663 30.4139 38.2653 30.4139C37.963 30.4139 37.6924 30.3664 37.3742 30.2708L37.231 31.1458L37.2787 31.1619L37.4538 31.1937C37.5173 31.2094 37.5971 31.2255 37.7242 31.2255C37.9469 31.2574 38.1379 31.2574 38.2653 31.2574C39.3153 31.2574 39.8087 30.8594 39.8087 29.9845C39.8087 29.4592 39.602 29.1568 39.1087 28.9184C38.6791 28.7274 38.6314 28.6798 38.6314 28.5047C38.6314 28.298 38.8065 28.2025 39.1246 28.2025C39.3156 28.2025 39.5861 28.2184 39.8407 28.2502L39.9838 27.3751C39.7293 27.3273 39.3316 27.2955 39.1087 27.2955C37.9948 27.2953 37.5971 27.8841 37.613 28.5841ZM58.0435 31.1937H57.1046L57.1525 30.8276C56.8819 31.1139 56.5954 31.2413 56.2293 31.2413C55.4974 31.2413 55.0201 30.621 55.0201 29.6663C55.0201 28.3933 55.768 27.3112 56.6429 27.3112C57.0409 27.3112 57.3272 27.4863 57.598 27.8363L57.8207 26.4998H58.8072L58.0435 31.1937ZM56.5794 30.3027C57.0411 30.3027 57.3592 29.7617 57.3592 29.0137C57.3592 28.5204 57.184 28.2658 56.834 28.2658C56.3884 28.2658 56.0545 28.7909 56.0545 29.5388C56.0545 30.0482 56.2294 30.3027 56.5794 30.3027ZM44.5026 31.1139C44.1524 31.2255 43.8343 31.2731 43.4683 31.2731C42.3545 31.2731 41.7816 30.6845 41.7816 29.5547C41.7816 28.25 42.5136 27.2794 43.5161 27.2794C44.3435 27.2794 44.8684 27.8204 44.8684 28.6637C44.8684 28.9502 44.8365 29.2208 44.741 29.6184H42.7683C42.7524 29.6663 42.7524 29.6982 42.7524 29.73C42.7524 30.1755 43.0549 30.3982 43.6275 30.3982C43.9934 30.3982 44.3116 30.3345 44.6618 30.1594L44.5026 31.1139ZM43.9457 28.8386V28.6478C43.9457 28.3296 43.7706 28.1545 43.4683 28.1545C43.1502 28.1545 42.9273 28.3933 42.8318 28.8386H43.9457ZM33.8101 31.1937H32.8236L33.3964 27.5817L32.1076 31.1937H31.4234L31.3438 27.6135L30.7393 31.1937H29.8164L30.596 26.4998H32.0281L32.0758 29.4117L33.0303 26.4998H34.5897L33.8101 31.1937ZM36.2765 29.4911C36.1809 29.4911 36.1332 29.4753 36.0536 29.4753C35.4967 29.4753 35.2103 29.6821 35.2103 30.0639C35.2103 30.3027 35.3377 30.4458 35.5603 30.4458C35.974 30.4458 36.2605 30.0639 36.2765 29.4911ZM37.0083 31.1937H36.1808L36.1967 30.7958C35.942 31.1139 35.6079 31.2574 35.1465 31.2574C34.6054 31.2574 34.2395 30.8437 34.2395 30.2231C34.2395 29.2845 34.8759 28.7435 35.9897 28.7435C36.1012 28.7435 36.2444 28.7594 36.4034 28.7751C36.4353 28.648 36.4353 28.6002 36.4353 28.5365C36.4353 28.282 36.2602 28.1865 35.7987 28.1865C35.5124 28.1865 35.194 28.2184 34.9714 28.282L34.8281 28.3298L34.7326 28.3457L34.8759 27.4865C35.3691 27.3433 35.7032 27.2955 36.0693 27.2955C36.9285 27.2955 37.39 27.6774 37.39 28.4092C37.39 28.6002 37.374 28.7435 37.3104 29.1731L37.0875 30.5257L37.0557 30.7641L37.0398 30.9551L37.0238 31.0986L37.0083 31.1937ZM52.029 29.4911C51.9174 29.4911 51.8698 29.4753 51.8063 29.4753C51.2335 29.4753 50.9468 29.6821 50.9468 30.0639C50.9468 30.3027 51.0902 30.4458 51.3129 30.4458C51.7108 30.4458 52.0129 30.0639 52.029 29.4911ZM52.7608 31.1937H51.9335L51.9492 30.7958C51.6947 31.1139 51.3606 31.2574 50.8992 31.2574C50.3582 31.2574 49.9921 30.8437 49.9921 30.2231C49.9921 29.2845 50.6284 28.7435 51.7423 28.7435C51.8539 28.7435 51.9972 28.7594 52.1402 28.7751C52.1721 28.648 52.1882 28.6002 52.1882 28.5365C52.1882 28.282 52.0129 28.1865 51.5518 28.1865C51.2651 28.1865 50.9312 28.2184 50.7084 28.282L50.581 28.3298L50.4855 28.3457L50.6286 27.4865C51.122 27.3433 51.4559 27.2955 51.8221 27.2955C52.6813 27.2955 53.1268 27.6774 53.1268 28.4092C53.1268 28.6002 53.1268 28.7435 53.0474 29.1731L52.8404 30.5257L52.8086 30.7641L52.7768 30.9551L52.761 31.0986V31.1937H52.7608ZM55.4339 27.3431H55.3384C55.0045 27.3431 54.8135 27.5023 54.5111 27.9635L54.6066 27.3747H53.6994L53.0947 31.1935H54.0813C54.4474 28.8545 54.5429 28.4568 55.0202 28.4568H55.0839C55.1794 27.9953 55.3066 27.6611 55.4658 27.3588L55.4339 27.3431Z" fill="white"/>
<defs>
<filter id="filter0_d" x="0.15332" y="0.687988" width="88.3176" height="88.3176" filterUnits="userSpaceOnUse" color-interpolation-filters="sRGB">
<feFlood flood-opacity="0" result="BackgroundImageFix"/>
<feColorMatrix in="SourceAlpha" type="matrix" values="0 0 0 0 0 0 0 0 0 0 0 0 0 0 0 0 0 0 127 0"/>
<feOffset dy="16"/>
<feGaussianBlur stdDeviation="8"/>
<feColorMatrix type="matrix" values="0 0 0 0 0 0 0 0 0 0 0 0 0 0 0 0 0 0 0.06 0"/>
<feBlend mode="normal" in2="BackgroundImageFix" result="effect1_dropShadow"/>
<feBlend mode="normal" in="SourceGraphic" in2="effect1_dropShadow" result="shape"/>
</filter>
</defs>
</svg>
