<svg width="18" height="18" viewBox="0 0 18 18" fill="none" xmlns="http://www.w3.org/2000/svg">
<path d="M17.1201 12.5552L15.6097 11.0448C15.1594 10.5981 14.5517 10.3463 13.9175 10.3436C13.2833 10.3409 12.6734 10.5876 12.2194 11.0304C11.9771 11.274 11.6575 11.4256 11.3155 11.4591C10.9736 11.4925 10.6306 11.4058 10.3457 11.2137C9.22125 10.4632 8.25524 9.49909 7.50261 8.37607C7.31392 8.08799 7.23028 7.74368 7.2658 7.40114C7.30132 7.05861 7.45382 6.73878 7.6976 6.49554C8.13639 6.04108 8.37985 5.43291 8.37587 4.8012C8.37189 4.1695 8.12079 3.56444 7.67632 3.11554L6.16586 1.60508C5.71364 1.15442 5.10124 0.901367 4.46281 0.901367C3.82438 0.901367 3.21198 1.15442 2.75976 1.60508L2.32516 2.04037C0.0594674 4.30606 0.229051 9.06951 4.94307 13.7808C7.78548 16.6239 10.6464 17.8144 12.9664 17.8144C13.6493 17.8371 14.3299 17.7237 14.9685 17.4808C15.6072 17.2379 16.1911 16.8702 16.6862 16.3994L17.1215 15.9641C17.573 15.5117 17.8265 14.8985 17.8262 14.2594C17.8259 13.6202 17.572 13.0073 17.1201 12.5552ZM16.1493 14.9933L15.714 15.4286C13.9289 17.2136 9.9887 16.8875 5.91251 12.8107C1.83632 8.73377 1.50951 4.79078 3.2946 3.00569L3.72646 2.57109C3.9209 2.37735 4.1842 2.26857 4.45869 2.26857C4.73318 2.26857 4.99648 2.37735 5.19092 2.57109L6.70138 4.08155C6.89229 4.27342 7.00066 4.5323 7.00335 4.80295C7.00605 5.0736 6.90286 5.33459 6.7158 5.53022C6.25187 5.99711 5.96247 6.60925 5.8961 7.2641C5.82973 7.91894 5.99041 8.5767 6.35123 9.12718C7.20639 10.4069 8.30607 11.5049 9.58705 12.3582C10.1359 12.7191 10.7919 12.8807 11.4456 12.8161C12.0992 12.7515 12.7109 12.4646 13.1785 12.0032C13.3738 11.814 13.6355 11.7089 13.9074 11.7105C14.1794 11.7122 14.4398 11.8205 14.6327 12.0122L16.1431 13.5226C16.2405 13.6186 16.3179 13.7328 16.3709 13.8588C16.424 13.9848 16.4516 14.12 16.4521 14.2567C16.4527 14.3933 16.4263 14.5288 16.3743 14.6552C16.3223 14.7816 16.2459 14.8965 16.1493 14.9933Z" fill="#00DE8E"/>
</svg>
