<svg width="221" height="218" viewBox="0 0 221 218" fill="none" xmlns="http://www.w3.org/2000/svg">
<path d="M33.8962 105.436C48.2663 134.91 60.5707 133.912 70.8093 102.443C87.2452 162.388 99.5496 161.391 107.722 99.4501C124.094 158.443 136.398 157.446 144.636 96.4572C161.096 156.76 173.4 155.762 181.549 93.4643L184.009 67.3791" stroke="#00DE8E" stroke-width="3"/>
<path d="M29.7227 95.6182C29.0293 95.0587 28.0078 95.6332 28.1098 96.5253L30.167 114.522C30.2773 115.487 31.5462 115.74 32.0214 114.892L35.3638 108.927C35.5489 108.597 35.9015 108.398 36.2761 108.414L43.041 108.695C44.0028 108.735 44.4619 107.51 43.7119 106.905L29.7227 95.6182Z" fill="#00DE8E"/>
</svg>
