<svg width="19" height="11" viewBox="0 0 19 11" fill="none" xmlns="http://www.w3.org/2000/svg">
<path d="M9.52663 0.0683594C6.06107 0.0683594 2.87162 1.6483 0.776358 4.40235C0.449596 4.8313 0.449596 5.43037 0.776064 5.85873C2.87163 8.61337 6.06107 10.1933 9.52663 10.1933C12.9922 10.1933 16.1816 8.61337 18.2769 5.85931C18.6037 5.43036 18.6037 4.83188 18.2772 4.40294C16.1816 1.64829 12.9922 0.0683594 9.52663 0.0683594ZM17.3227 5.13259C15.4558 7.58653 12.6142 8.99401 9.52663 8.99401C6.43907 8.99401 3.59747 7.58653 1.73059 5.12908C3.59747 2.67514 6.43907 1.26766 9.52663 1.26766C12.6142 1.26766 15.4558 2.67514 17.3227 5.12908C17.3227 5.12937 17.3227 5.1323 17.3227 5.13259Z" fill="#8D95B0"/>
<path d="M9.52646 1.62048C7.59078 1.62048 6.01611 3.19515 6.01611 5.13083C6.01611 7.06652 7.59078 8.64119 9.52646 8.64119C11.4621 8.64119 13.0368 7.06652 13.0368 5.13083C13.0368 3.19515 11.4622 1.62048 9.52646 1.62048ZM9.52646 7.44189C8.25221 7.44189 7.21541 6.40509 7.21541 5.13083C7.21541 3.85658 8.25221 2.81978 9.52646 2.81978C10.8007 2.81978 11.8375 3.85658 11.8375 5.13083C11.8375 6.40509 10.8007 7.44189 9.52646 7.44189Z" fill="#8D95B0"/>
</svg>
