<svg width="96" height="95" viewBox="0 0 96 95" fill="none" xmlns="http://www.w3.org/2000/svg">
<g filter="url(#filter0_d)">
<rect x="16.6865" y="0.288574" width="62.5966" height="62.5966" rx="16" fill="white"/>
</g>
<path d="M41.4692 39.2876H45.1925L47.5855 24.3975H43.5968L41.4692 39.2876Z" fill="#0075FF"/>
<path d="M38.2777 24.1307L34.8209 34.7667L34.1682 31.7708C32.3071 27.2502 29.1157 25.389 29.1157 25.389L32.4278 39.0209H36.4166L42.001 24.1297H38.2777V24.1307ZM68.059 24.1307H64.0702L57.9539 39.0218H61.6762L62.4736 36.8942H67.2597L67.7916 39.0218H70.9839L68.059 24.1307ZM63.2729 34.2348L65.4005 28.6513L66.4642 34.2348H63.2729ZM52.636 28.3849C52.636 27.5875 53.1679 26.7892 55.029 26.7892C56.3583 26.7892 57.6885 27.853 57.6885 27.853L58.4858 24.6626C58.4858 24.6626 56.6247 23.8652 55.029 23.8652C51.0403 23.8652 49.1791 25.9928 49.1791 28.3859C49.1791 33.1719 54.4971 32.3746 54.4971 34.7676C54.4971 35.2995 54.2317 36.0969 52.1041 36.0969C49.9765 36.0969 48.3818 35.2995 48.3818 35.2995L47.8499 38.4899C47.8499 38.4899 49.1791 39.2873 51.8386 39.2873C54.2317 39.5527 57.9549 37.4261 57.9549 34.2348C57.9549 30.5125 52.636 30.247 52.636 28.3849Z" fill="#0075FF"/>
<path d="M34.2896 32.374L32.9604 25.7267C32.9604 25.7267 32.4285 24.3975 30.8328 24.3975C29.2371 24.3975 24.9829 24.3975 24.9829 24.3975C24.9829 24.3975 32.6939 26.7905 34.2896 32.374Z" fill="#69AEFE"/>
<defs>
<filter id="filter0_d" x="0.686523" y="0.288574" width="94.5966" height="94.5966" filterUnits="userSpaceOnUse" color-interpolation-filters="sRGB">
<feFlood flood-opacity="0" result="BackgroundImageFix"/>
<feColorMatrix in="SourceAlpha" type="matrix" values="0 0 0 0 0 0 0 0 0 0 0 0 0 0 0 0 0 0 127 0"/>
<feOffset dy="16"/>
<feGaussianBlur stdDeviation="8"/>
<feColorMatrix type="matrix" values="0 0 0 0 0 0 0 0 0 0 0 0 0 0 0 0 0 0 0.06 0"/>
<feBlend mode="normal" in2="BackgroundImageFix" result="effect1_dropShadow"/>
<feBlend mode="normal" in="SourceGraphic" in2="effect1_dropShadow" result="shape"/>
</filter>
</defs>
</svg>
