<svg width="95" height="95" viewBox="0 0 95 95" fill="none" xmlns="http://www.w3.org/2000/svg">
<g filter="url(#filter0_d)">
<rect x="16.2168" y="0.300293" width="62.5966" height="62.5966" rx="16" fill="white"/>
</g>
<path d="M55.1305 16.4197C60.9472 16.4197 64.3802 19.7668 64.3802 25.4963H57.2443V25.5548C53.9325 25.5548 51.2477 28.1723 51.2477 31.4012C51.2477 34.6301 53.9325 37.2477 57.2443 37.2477H64.3802V37.7739C64.3802 43.4303 60.9472 46.7774 55.1305 46.7774H39.8992C34.0825 46.7774 30.6494 43.4303 30.6494 37.7739V25.4232C30.6494 19.7668 34.0825 16.4197 39.8992 16.4197H55.1305ZM63.1209 28.0103C63.8164 28.0103 64.3802 28.56 64.3802 29.238V33.506C64.3721 34.1807 63.8131 34.7258 63.1209 34.7337H57.3792C55.7026 34.7557 54.2365 33.6365 53.8562 32.0443C53.6658 31.056 53.9331 30.0361 54.5866 29.258C55.2401 28.4799 56.2129 28.0232 57.2443 28.0103H63.1209ZM58.0538 29.9835H57.4991C57.1586 29.9796 56.8306 30.1087 56.5884 30.3421C56.3462 30.5756 56.2099 30.8938 56.2099 31.2258C56.2098 31.9225 56.7847 32.4894 57.4991 32.4974H58.0538C58.7659 32.4974 59.3431 31.9347 59.3431 31.2405C59.3431 30.5462 58.7659 29.9835 58.0538 29.9835ZM48.1595 22.9823H38.6399C37.9336 22.9823 37.3588 23.5362 37.3506 24.2247C37.3506 24.9213 37.9254 25.4883 38.6399 25.4963H48.1595C48.8715 25.4963 49.4487 24.9335 49.4487 24.2393C49.4487 23.5451 48.8715 22.9823 48.1595 22.9823Z" fill="#FFB600"/>
<defs>
<filter id="filter0_d" x="0.216797" y="0.300293" width="94.5966" height="94.5966" filterUnits="userSpaceOnUse" color-interpolation-filters="sRGB">
<feFlood flood-opacity="0" result="BackgroundImageFix"/>
<feColorMatrix in="SourceAlpha" type="matrix" values="0 0 0 0 0 0 0 0 0 0 0 0 0 0 0 0 0 0 127 0"/>
<feOffset dy="16"/>
<feGaussianBlur stdDeviation="8"/>
<feColorMatrix type="matrix" values="0 0 0 0 0 0 0 0 0 0 0 0 0 0 0 0 0 0 0.06 0"/>
<feBlend mode="normal" in2="BackgroundImageFix" result="effect1_dropShadow"/>
<feBlend mode="normal" in="SourceGraphic" in2="effect1_dropShadow" result="shape"/>
</filter>
</defs>
</svg>
