<svg width="77" height="34" viewBox="0 0 77 34" fill="none" xmlns="http://www.w3.org/2000/svg">
<path d="M1.05965 15.8035L13.0266 3.98754C14.6152 2.41906 17.1801 2.45441 18.7248 4.06607L28.183 13.9343C29.7214 15.5393 32.2734 15.582 33.8645 14.0292L43.0811 5.03489C44.6842 3.47045 47.2593 3.52723 48.7919 5.1608L57.9656 14.939C59.4885 16.5622 62.0435 16.6301 63.6504 15.0901L76.0216 3.234" stroke="#0075FF" stroke-width="2"/>
<path d="M1.05672 31.0564L13.0237 19.2405C14.6122 17.672 17.1772 17.7073 18.7219 19.319L28.1801 29.1872C29.7185 30.7923 32.2704 30.8349 33.8616 29.2821L43.0781 20.2878C44.6812 18.7234 47.2564 18.7802 48.789 20.4137L57.9627 30.1919C59.4855 31.8151 62.0405 31.883 63.6475 30.343L76.0187 18.4869" stroke="#0075FF" stroke-width="2"/>
</svg>
