<svg width="41" height="41" viewBox="0 0 41 41" fill="none" xmlns="http://www.w3.org/2000/svg">
<path d="M31.7267 19.384C30.8301 19.384 29.9536 19.6499 29.2081 20.148C28.4626 20.6462 27.8816 21.3542 27.5384 22.1825C27.1953 23.0109 27.1055 23.9224 27.2805 24.8018C27.4554 25.6812 27.8871 26.4889 28.5211 27.1229C29.1551 27.7569 29.9629 28.1887 30.8423 28.3636C31.7217 28.5385 32.6332 28.4487 33.4615 28.1056C34.2899 27.7625 34.9979 27.1815 35.496 26.436C35.9942 25.6904 36.26 24.814 36.26 23.9174C36.26 22.715 35.7824 21.562 34.9322 20.7118C34.0821 19.8617 32.929 19.384 31.7267 19.384ZM31.7267 25.784C31.3575 25.784 30.9966 25.6746 30.6896 25.4694C30.3827 25.2643 30.1434 24.9728 30.0021 24.6317C29.8608 24.2906 29.8239 23.9153 29.8959 23.5532C29.9679 23.1911 30.1457 22.8585 30.4068 22.5974C30.6678 22.3364 31.0004 22.1586 31.3625 22.0866C31.7246 22.0145 32.1 22.0515 32.441 22.1928C32.7821 22.3341 33.0737 22.5733 33.2788 22.8803C33.4839 23.1873 33.5934 23.5482 33.5934 23.9174C33.5934 24.4124 33.3967 24.8872 33.0466 25.2373C32.6966 25.5874 32.2218 25.784 31.7267 25.784Z" fill="#1FD392"/>
<path d="M37.5931 8.82387H29.5931V4.63721C29.5931 3.57634 29.1717 2.55893 28.4215 1.80878C27.6714 1.05863 26.654 0.637207 25.5931 0.637207H4.25977C3.1989 0.637207 2.18148 1.05863 1.43134 1.80878C0.681193 2.55893 0.259766 3.57634 0.259766 4.63721V36.6372C0.259766 37.6981 0.681193 38.7155 1.43134 39.4656C2.18148 40.2158 3.1989 40.6372 4.25977 40.6372H25.5931C26.654 40.6372 27.6714 40.2158 28.4215 39.4656C29.1717 38.7155 29.5931 37.6981 29.5931 36.6372V32.4505H37.5931C38.3003 32.4505 38.9786 32.1696 39.4787 31.6695C39.9788 31.1694 40.2598 30.4911 40.2598 29.7839V11.4905C40.2598 10.7833 39.9788 10.105 39.4787 9.60492C38.9786 9.10483 38.3003 8.82387 37.5931 8.82387ZM37.5931 11.4905V14.1572H10.9264V11.4905H37.5931ZM26.9264 36.6372C26.9264 36.9908 26.786 37.33 26.5359 37.58C26.2859 37.8301 25.9467 37.9705 25.5931 37.9705H4.25977C3.90614 37.9705 3.56701 37.8301 3.31696 37.58C3.06691 37.33 2.92643 36.9908 2.92643 36.6372V4.63721C2.92643 4.28359 3.06691 3.94445 3.31696 3.6944C3.56701 3.44435 3.90614 3.30387 4.25977 3.30387H25.5931C25.9467 3.30387 26.2859 3.44435 26.5359 3.6944C26.786 3.94445 26.9264 4.28359 26.9264 4.63721V8.82387H10.9264C10.2192 8.82387 9.54091 9.10483 9.04081 9.60492C8.54072 10.105 8.25977 10.7833 8.25977 11.4905V29.7839C8.25977 30.4911 8.54072 31.1694 9.04081 31.6695C9.54091 32.1696 10.2192 32.4505 10.9264 32.4505H26.9264V36.6372ZM28.2598 29.7839H10.9264V16.8239H37.5931V29.7839H28.2598Z" fill="#1FD392"/>
</svg>
