<svg width="41" height="41" viewBox="0 0 41 41" fill="none" xmlns="http://www.w3.org/2000/svg">
<path d="M36.8203 11.3034H28.3536C28.6496 10.4674 28.8203 9.57272 28.8203 8.63672C28.8203 4.22472 25.2323 0.636719 20.8203 0.636719C16.4083 0.636719 12.8203 4.22472 12.8203 8.63672C12.8203 9.57272 12.991 10.4674 13.287 11.3034H4.82031C2.61498 11.3034 0.820312 13.0981 0.820312 15.3034V36.6367C0.820312 38.8421 2.61498 40.6367 4.82031 40.6367H36.8203C39.0256 40.6367 40.8203 38.8421 40.8203 36.6367V15.3034C40.8203 13.0981 39.0256 11.3034 36.8203 11.3034ZM20.8203 3.30339C23.7616 3.30339 26.1536 5.69539 26.1536 8.63672C26.1536 11.5781 23.7616 13.9701 20.8203 13.9701C17.879 13.9701 15.487 11.5781 15.487 8.63672C15.487 5.69539 17.879 3.30339 20.8203 3.30339ZM4.82031 13.9701H14.8736C16.339 15.6021 18.4576 16.6367 20.8203 16.6367C23.183 16.6367 25.3003 15.6021 26.767 13.9701H36.8203C37.555 13.9701 38.1536 14.5687 38.1536 15.3034V19.3034H3.48698V15.3034C3.48698 14.5687 4.08565 13.9701 4.82031 13.9701ZM36.8203 37.9701H4.82031C4.08565 37.9701 3.48698 37.3727 3.48698 36.6367V21.9701H38.1536V36.6367C38.1536 37.3727 37.555 37.9701 36.8203 37.9701Z" fill="#00DE8E"/>
<path d="M15.4876 27.3034H7.48763C6.75163 27.3034 6.1543 27.8994 6.1543 28.6367V33.9701C6.1543 34.7074 6.75163 35.3034 7.48763 35.3034H15.4876C16.2236 35.3034 16.821 34.7074 16.821 33.9701V28.6367C16.821 27.8994 16.2236 27.3034 15.4876 27.3034ZM14.1543 32.6367H8.82096V29.9701H14.1543V32.6367ZM31.4876 27.3034C29.2823 27.3034 27.4876 29.0981 27.4876 31.3034C27.4876 33.5087 29.2823 35.3034 31.4876 35.3034C33.693 35.3034 35.4876 33.5087 35.4876 31.3034C35.4876 29.0981 33.693 27.3034 31.4876 27.3034ZM31.4876 32.6367C30.753 32.6367 30.1543 32.0394 30.1543 31.3034C30.1543 30.5674 30.753 29.9701 31.4876 29.9701C32.2223 29.9701 32.821 30.5674 32.821 31.3034C32.821 32.0394 32.2223 32.6367 31.4876 32.6367ZM19.2116 10.9127C19.4716 11.1727 19.813 11.3034 20.1543 11.3034C20.4956 11.3034 20.837 11.1727 21.097 10.9127L23.7636 8.24606C24.285 7.72473 24.285 6.88206 23.7636 6.36073C23.2423 5.83939 22.3996 5.83939 21.8783 6.36073L20.1543 8.08473L19.7636 7.69406C19.2423 7.17273 18.3996 7.17273 17.8783 7.69406C17.357 8.21539 17.357 9.05806 17.8783 9.57939L19.2116 10.9127Z" fill="#00DE8E"/>
</svg>
