<svg width="42" height="47" viewBox="0 0 42 47" fill="none" xmlns="http://www.w3.org/2000/svg">
<path d="M5.66722 46.3617H35.9732C37.3129 46.3617 38.5976 45.8295 39.5448 44.8823C40.4921 43.935 41.0243 42.6503 41.0243 41.3107V21.1066C41.0191 20.176 40.7569 19.2649 40.2667 18.4739C39.7765 17.6829 39.0773 17.0426 38.2462 16.6239C38.5005 15.9473 38.556 15.2122 38.4061 14.5051C38.2562 13.7981 37.9071 13.1487 37.4002 12.6336L26.7678 2.00121C26.0591 1.3033 25.1043 0.912109 24.1097 0.912109C23.115 0.912109 22.1603 1.3033 21.4516 2.00121L7.39718 16.0556H5.66722C4.32761 16.0556 3.04286 16.5878 2.09562 17.535C1.14837 18.4823 0.616211 19.767 0.616211 21.1066V41.3107C0.616211 42.6503 1.14837 43.935 2.09562 44.8823C3.04286 45.8295 4.32761 46.3617 5.66722 46.3617ZM33.4477 26.1576C32.1081 26.1576 30.8234 26.6898 29.8761 27.6371C28.9289 28.5843 28.3967 29.869 28.3967 31.2086C28.3967 32.5483 28.9289 33.833 29.8761 34.7802C30.8234 35.7275 32.1081 36.2597 33.4477 36.2597V37.5224C33.4477 37.8573 33.3147 38.1785 33.0779 38.4153C32.8411 38.6521 32.5199 38.7852 32.185 38.7852H3.14171V23.6321H32.185C32.5199 23.6321 32.8411 23.7652 33.0779 24.002C33.3147 24.2388 33.4477 24.56 33.4477 24.8949V26.1576ZM30.9222 31.2086C30.9222 30.5388 31.1883 29.8965 31.6619 29.4228C32.1356 28.9492 32.7779 28.6831 33.4477 28.6831H38.4987V33.7341H33.4477C32.7779 33.7341 32.1356 33.4681 31.6619 32.9944C31.1883 32.5208 30.9222 31.8785 30.9222 31.2086ZM23.2321 3.78169C23.4675 3.55409 23.7822 3.42687 24.1097 3.42687C24.4372 3.42687 24.7518 3.55409 24.9873 3.78169L35.6197 14.4141C35.828 14.6321 35.9514 14.9174 35.9676 15.2185C35.9838 15.5196 35.8918 15.8165 35.7081 16.0556H10.9708L23.2321 3.78169ZM5.66722 18.5811H35.9732C36.6431 18.5811 37.2854 18.8472 37.759 19.3208C38.2327 19.7945 38.4987 20.4368 38.4987 21.1066V26.1576H35.9732V24.8949C35.9732 23.8902 35.5741 22.9266 34.8637 22.2162C34.1533 21.5058 33.1897 21.1066 32.185 21.1066H3.14171C3.14171 20.4368 3.40779 19.7945 3.88142 19.3208C4.35504 18.8472 4.99741 18.5811 5.66722 18.5811ZM32.185 41.3107C33.1897 41.3107 34.1533 40.9115 34.8637 40.2011C35.5741 39.4907 35.9732 38.5271 35.9732 37.5224V36.2597H38.4987V41.3107C38.4987 41.9805 38.2327 42.6228 37.759 43.0965C37.2854 43.5701 36.6431 43.8362 35.9732 43.8362H5.66722C4.99741 43.8362 4.35504 43.5701 3.88142 43.0965C3.40779 42.6228 3.14171 41.9805 3.14171 41.3107H32.185Z" fill="#00DE8E"/>
<path d="M33.4478 32.4718C34.1452 32.4718 34.7106 31.9064 34.7106 31.209C34.7106 30.5116 34.1452 29.9463 33.4478 29.9463C32.7504 29.9463 32.1851 30.5116 32.1851 31.209C32.1851 31.9064 32.7504 32.4718 33.4478 32.4718Z" fill="#00DE8E"/>
</svg>
