<svg width="25" height="19" viewBox="0 0 25 19" fill="none" xmlns="http://www.w3.org/2000/svg">
<path d="M13.0498 2.35898C16.11 2.35898 18.6124 2.41053 20.9275 2.51363H20.9931C22.0756 2.51363 22.9613 3.54461 22.9613 4.81459V4.86614L22.966 4.91769C23.0738 6.51103 23.1253 8.16529 23.1253 9.8336C23.13 11.5019 23.0738 13.1562 22.966 14.7495L22.9613 14.8011V14.8526C22.9613 15.4993 22.741 16.0992 22.3333 16.5444C21.9678 16.9474 21.4898 17.1723 20.9931 17.1723H20.9181C18.439 17.2895 15.8194 17.3504 13.1201 17.3504H12.6234H12.6281H12.1172C9.40858 17.3504 6.78895 17.2895 4.32865 17.177H4.25367C3.75693 17.177 3.28361 16.9521 2.91808 16.549C2.51506 16.1038 2.29012 15.504 2.29012 14.8573V14.8057L2.28543 14.7542C2.17296 13.1562 2.12141 11.5019 2.13079 9.84766V9.83829C2.1261 8.18403 2.17765 6.53446 2.28543 4.93644L2.29012 4.88489V4.83334C2.29012 3.55867 3.17114 2.523 4.25367 2.523H4.31928C6.63899 2.41522 9.14146 2.36836 12.2016 2.36836H13.0498V2.35898ZM13.0498 0.859375H12.2063C9.50699 0.859375 6.85456 0.896865 4.25836 1.01402C2.34636 1.01402 0.795197 2.71514 0.795197 4.82397C0.67804 6.50166 0.626491 8.16997 0.631177 9.84297C0.626491 11.516 0.673354 13.1843 0.790511 14.8573C0.790511 16.9661 2.34167 18.6813 4.25367 18.6813C6.82175 18.8031 9.44138 18.8594 12.1172 18.8594H13.1295C15.8054 18.8594 18.425 18.8031 20.9977 18.6813C22.9144 18.6813 24.4656 16.9661 24.4656 14.8573C24.5781 13.1843 24.6296 11.5113 24.6249 9.83829C24.6296 8.16529 24.5781 6.49697 24.4656 4.81928C24.4656 2.71046 22.9144 1.01871 20.9977 1.01871C18.4016 0.896865 15.7538 0.859375 13.0498 0.859375Z" fill="#00DE8E"/>
<path d="M10.3315 14.4405V5.23665L17.1266 9.83857L10.3315 14.4405Z" fill="#00DE8E"/>
</svg>
